Samaano-Wide-Thin-Slanted.ufo
<glyph name=".notdef" format="2">
  <advance width="2048"/>
  <unicode hex="0000"/>
  <outline>
    <contour>
      <point x="457.176757812" y="-16.0" type="line"/>
      <point x="1455.17675781" y="-16.0" type="line"/>
      <point x="2052.08789062" y="1624.0" type="line"/>
      <point x="1054.08789062" y="1624.0" type="line"/>
    </contour>
    <contour>
      <point x="560.293945312" y="64.0" type="line"/>
      <point x="1099.69824219" y="1546.0" type="line"/>
      <point x="1231.00292969" y="827.0" type="line"/>
    </contour>
    <contour>
      <point x="652.293945312" y="64.0" type="line"/>
      <point x="1240.97753906" y="750.0" type="line"/>
      <point x="1332.29394531" y="64.0" type="line"/>
    </contour>
    <contour>
      <point x="1224.06542969" y="1558.0" type="line"/>
      <point x="1855.06542969" y="1558.0" type="line"/>
      <point x="1300.84863281" y="909.0" type="line"/>
    </contour>
    <contour>
      <point x="1310.82324219" y="832.0" type="line"/>
      <point x="1951.4296875" y="1559.0" type="line"/>
      <point x="1407.29394531" y="64.0" type="line"/>
    </contour>
  </outline>
</glyph>
<glyph name="exclam" format="2">
  <advance width="2048"/>
  <unicode hex="0021"/>
  <outline>
    <contour>
      <point x="1017.66" y="76.0" type="line"/>
      <point x="1084.66" y="76.0" type="line"/>
      <point x="1120.33" y="174.0" type="line"/>
      <point x="1053.33" y="174.0" type="line"/>
    </contour>
    <contour>
      <point x="1137.59" y="411.0" type="line"/>
      <point x="1209.59" y="411.0" type="line"/>
      <point x="1580.11" y="1429.0" type="line"/>
      <point x="1508.11" y="1429.0" type="line"/>
    </contour>
  </outline>
</glyph>
<glyph name="quotedbl" format="2">
  <advance width="2048"/>
  <unicode hex="0022"/>
  <outline>
    <contour>
      <point x="1274.62" y="1326.0" type="line"/>
      <point x="1340.62" y="1326.0" type="line"/>
      <point x="1430.89" y="1574.0" type="line"/>
      <point x="1364.89" y="1574.0" type="line"/>
    </contour>
    <contour>
      <point x="1678.62" y="1326.0" type="line"/>
      <point x="1738.62" y="1326.0" type="line"/>
      <point x="1828.89" y="1574.0" type="line"/>
      <point x="1768.89" y="1574.0" type="line"/>
    </contour>
  </outline>
</glyph>
<glyph name="numbersign" format="2">
  <advance width="2048"/>
  <unicode hex="0023"/>
  <outline>
    <contour>
      <point x="1171.94" y="1184" type="line"/>
      <point x="777.033" y="99" type="line"/>
      <point x="836.033" y="99" type="line"/>
      <point x="1230.94" y="1184" type="line"/>
    </contour>
    <contour>
      <point x="1669.85" y="1192" type="line"/>
      <point x="1270.58" y="95" type="line"/>
      <point x="1341.58" y="95" type="line"/>
      <point x="1740.85" y="1192" type="line"/>
    </contour>
    <contour>
      <point x="979.15" y="995" type="line"/>
      <point x="958.04" y="937" type="line"/>
      <point x="1759.04" y="937" type="line"/>
      <point x="1780.15" y="995" type="line"/>
    </contour>
    <contour>
      <point x="800.438" y="493" type="line"/>
      <point x="772.775" y="417" type="line"/>
      <point x="1582.78" y="417" type="line"/>
      <point x="1610.44" y="493" type="line"/>
    </contour>
  </outline>
</glyph>
<glyph name="dollar" format="2">
  <advance width="2048"/>
  <unicode hex="0024"/>
  <outline>
    <contour>
      <point x="1198.15039062" y="1539.0" type="line"/>
      <point x="1168.3046875" y="1457.0" type="line"/>
      <point x="1766.3046875" y="1457.0" type="line"/>
      <point x="1796.15039062" y="1539.0" type="line"/>
    </contour>
    <contour>
      <point x="1199.2421875" y="1542.0" type="line"/>
      <point x="1012.16113281" y="1028.0" type="line"/>
      <point x="1096.16113281" y="1028.0" type="line"/>
      <point x="1283.2421875" y="1542.0" type="line"/>
    </contour>
    <contour>
      <point x="691.114257812" y="69.0" type="line"/>
      <point x="666.0" y="0.0" type="line"/>
      <point x="1374.0" y="0.0" type="line"/>
      <point x="1399.11425781" y="69.0" type="line"/>
    </contour>
    <contour>
      <point x="1330.0" y="0.0" type="line"/>
      <point x="1410.0" y="0.0" type="line"/>
      <point x="1539.20898438" y="355.0" type="line"/>
      <point x="1459.20898438" y="355.0" type="line"/>
    </contour>
    <contour>
      <point x="1012.16113281" y="1028.0" type="line"/>
      <point x="1458.20898438" y="355.0" type="line"/>
      <point x="1539.20898438" y="355.0" type="line"/>
      <point x="1096.16113281" y="1028.0" type="line"/>
    </contour>
    <contour>
      <point x="1528.45507812" y="1636.0" type="line"/>
      <point x="854.74609375" y="-215.0" type="line"/>
      <point x="924.74609375" y="-215.0" type="line"/>
      <point x="1598.45507812" y="1636.0" type="line"/>
    </contour>
  </outline>
</glyph>
<glyph name="percent" format="2">
  <advance width="2048"/>
  <unicode hex="0025"/>
  <outline>
    <contour>
      <point x="795.602539062" y="444.0" type="line"/>
      <point x="814.775390625" y="417.0" type="line"/>
      <point x="1692.07714844" y="775.0" type="line"/>
      <point x="1682.54003906" y="801.0" type="line"/>
    </contour>
    <contour>
      <point x="1157.83789062" y="1148.0" type="line"/>
      <point x="1032.26855469" y="803.0" type="line"/>
      <point x="1063.26855469" y="803.0" type="line"/>
      <point x="1188.83789062" y="1148.0" type="line"/>
    </contour>
    <contour>
      <point x="1159.29394531" y="1152.0" type="line"/>
      <point x="1149.83007812" y="1126.0" type="line"/>
      <point x="1496.83007812" y="1126.0" type="line"/>
      <point x="1506.29394531" y="1152.0" type="line"/>
    </contour>
    <contour>
      <point x="1040.63964844" y="826.0" type="line"/>
      <point x="1027.17285156" y="789.0" type="line"/>
      <point x="1371.17285156" y="789.0" type="line"/>
      <point x="1384.63964844" y="826.0" type="line"/>
    </contour>
    <contour>
      <point x="1470.29394531" y="1152.0" type="line"/>
      <point x="1338.90039062" y="791.0" type="line"/>
      <point x="1374.90039062" y="791.0" type="line"/>
      <point x="1506.29394531" y="1152.0" type="line"/>
    </contour>
    <contour>
      <point x="1225.69140625" y="436.0" type="line"/>
      <point x="1101.21289062" y="94.0" type="line"/>
      <point x="1144.21289062" y="94.0" type="line"/>
      <point x="1268.69140625" y="436.0" type="line"/>
    </contour>
    <contour>
      <point x="1227.14648438" y="440.0" type="line"/>
      <point x="1211.49609375" y="397.0" type="line"/>
      <point x="1558.49609375" y="397.0" type="line"/>
      <point x="1574.14648438" y="440.0" type="line"/>
    </contour>
    <contour>
      <point x="1106.67285156" y="109.0" type="line"/>
      <point x="1095.02539062" y="77.0" type="line"/>
      <point x="1439.02539062" y="77.0" type="line"/>
      <point x="1450.67285156" y="109.0" type="line"/>
    </contour>
    <contour>
      <point x="1540.14648438" y="440.0" type="line"/>
      <point x="1408.75390625" y="79.0" type="line"/>
      <point x="1442.75390625" y="79.0" type="line"/>
      <point x="1574.14648438" y="440.0" type="line"/>
    </contour>
  </outline>
</glyph>
<glyph name="ampersand" format="2">
  <advance width="2048"/>
  <unicode hex="0026"/>
  <outline>
    <contour>
      <point x="1330.33" y="1534" type="line"/>
      <point x="1305.65" y="43" type="line"/>
      <point x="1386.38" y="56" type="line"/>
      <point x="1408.33" y="1534" type="line"/>
    </contour>
    <contour>
      <point x="1849.94" y="1467" type="line"/>
      <point x="1875.06" y="1536" type="line"/>
      <point x="1409.06" y="1536" type="line"/>
      <point x="1383.94" y="1467" type="line"/>
    </contour>
    <contour>
      <point x="1798.5" y="1485" type="line"/>
      <point x="1624.15" y="1006" type="line"/>
      <point x="1682.15" y="1006" type="line"/>
      <point x="1856.5" y="1485" type="line"/>
    </contour>
    <contour>
      <point x="1000.35" y="1045" type="line"/>
      <point x="978.511" y="985" type="line"/>
      <point x="1674.51" y="985" type="line"/>
      <point x="1696.35" y="1045" type="line"/>
    </contour>
    <contour>
      <point x="1000.35" y="1045" type="line"/>
      <point x="628.735" y="24" type="line"/>
      <point x="718.735" y="24" type="line"/>
      <point x="1090.35" y="1045" type="line"/>
    </contour>
    <contour>
      <point x="645.842" y="71" type="line"/>
      <point x="622.184" y="6" type="line"/>
      <point x="1430.18" y="6" type="line"/>
      <point x="1453.84" y="71" type="line"/>
    </contour>
  </outline>
</glyph>
<glyph name="quotesingle" format="2">
  <advance width="2048"/>
  <unicode hex="0027"/>
  <outline>
    <contour>
      <point x="1536.5" y="1496.0" type="line"/>
      <point x="1471.35" y="1317.0" type="line"/>
      <point x="1535.35" y="1317.0" type="line"/>
      <point x="1600.5" y="1496.0" type="line"/>
    </contour>
  </outline>
</glyph>
<glyph name="parenleft" format="2">
  <advance width="2048"/>
  <unicode hex="0028"/>
  <outline>
    <contour>
      <point x="1201.43" y="1026.0" type="line"/>
      <point x="893.15" y="179.0" type="line"/>
      <point x="1021.15" y="179.0" type="line"/>
      <point x="1329.43" y="1026.0" type="line"/>
    </contour>
    <contour>
      <point x="1787.46" y="1636.0" type="line"/>
      <point x="1201.43" y="1026.0" type="line"/>
      <point x="1329.43" y="1026.0" type="line"/>
      <point x="1814.36" y="1633.0" type="line"/>
    </contour>
    <contour>
      <point x="893.15" y="179.0" type="line"/>
      <point x="1053.53" y="-309.0" type="line"/>
      <point x="1081.53" y="-309.0" type="line"/>
      <point x="1021.15" y="179.0" type="line"/>
    </contour>
  </outline>
</glyph>
<glyph name="parenright" format="2">
  <advance width="2048"/>
  <unicode hex="0029"/>
  <outline>
    <contour>
      <point x="1435.43359375" y="1026.0" type="line"/>
      <point x="1127.15039062" y="179.0" type="line"/>
      <point x="1255.15039062" y="179.0" type="line"/>
      <point x="1563.43359375" y="1026.0" type="line"/>
    </contour>
    <contour>
      <point x="1453.09179688" y="1635.0" type="line"/>
      <point x="1435.43359375" y="1026.0" type="line"/>
      <point x="1563.43359375" y="1026.0" type="line"/>
      <point x="1491.09179688" y="1635.0" type="line"/>
    </contour>
    <contour>
      <point x="1127.15039062" y="179.0" type="line"/>
      <point x="745.533203125" y="-309.0" type="line"/>
      <point x="773.533203125" y="-309.0" type="line"/>
      <point x="1255.15039062" y="179.0" type="line"/>
    </contour>
  </outline>
</glyph>
<glyph name="asterisk" format="2">
  <advance width="2048"/>
  <unicode hex="002A"/>
  <outline>
    <contour>
      <point x="1470.07" y="1297.0" type="line"/>
      <point x="1103.19" y="289.0" type="line"/>
      <point x="1203.19" y="289.0" type="line"/>
      <point x="1570.07" y="1297.0" type="line"/>
    </contour>
    <contour>
      <point x="1071.66" y="1153.0" type="line"/>
      <point x="1530.32" y="424.0" type="line"/>
      <point x="1624.53" y="496.0" type="line"/>
      <point x="1156.77" y="1222.0" type="line"/>
    </contour>
    <contour>
      <point x="1788.76" y="1200.0" type="line"/>
      <point x="767.423" y="449.0" type="line"/>
      <point x="805.225" y="399.0" type="line"/>
      <point x="1816.74" y="1134.0" type="line"/>
    </contour>
  </outline>
</glyph>
<glyph name="plus" format="2">
  <advance width="2048"/>
  <unicode hex="002B"/>
  <outline>
    <contour>
      <point x="1390.40722656" y="1221.0" type="line"/>
      <point x="1006.0546875" y="165.0" type="line"/>
      <point x="1116.0546875" y="165.0" type="line"/>
      <point x="1500.40722656" y="1221.0" type="line"/>
    </contour>
    <contour>
      <point x="862.720703125" y="796.0" type="line"/>
      <point x="825.231445312" y="693.0" type="line"/>
      <point x="1727.23144531" y="693.0" type="line"/>
      <point x="1764.72070312" y="796.0" type="line"/>
    </contour>
  </outline>
</glyph>
<glyph name="comma" format="2">
  <advance width="2048"/>
  <unicode hex="002C"/>
  <outline>
    <contour>
      <point x="1016.0546875" y="165.0" type="line"/>
      <point x="958.912109375" y="8.0" type="line"/>
      <point x="1094.91210938" y="8.0" type="line"/>
      <point x="1152.0546875" y="165.0" type="line"/>
    </contour>
    <contour>
      <point x="1089.13574219" y="135.0" type="line"/>
      <point x="961.966796875" y="-99.0" type="line"/>
      <point x="994.1328125" y="-148.0" type="line"/>
      <point x="1099.46289062" y="26.0" type="line"/>
    </contour>
  </outline>
</glyph>
<glyph name="hyphen" format="2">
  <advance width="2048"/>
  <unicode hex="002D"/>
  <outline>
    <contour>
      <point x="899.627929688" y="793.0" type="line"/>
      <point x="863.958984375" y="695.0" type="line"/>
      <point x="1689.95898438" y="695.0" type="line"/>
      <point x="1725.62792969" y="793.0" type="line"/>
    </contour>
  </outline>
</glyph>
<glyph name="slash" format="2">
  <advance width="2048"/>
  <unicode hex="002F"/>
  <outline>
    <contour>
      <point x="1804.67578125" y="1480.0" type="line"/>
      <point x="682.639648438" y="10.0" type="line"/>
      <point x="785.639648438" y="10.0" type="line"/>
      <point x="1907.67578125" y="1480.0" type="line"/>
    </contour>
  </outline>
</glyph>
<glyph name="zero" format="2">
  <advance width="2048"/>
  <unicode hex="0030"/>
  <outline>
    <contour>
      <point x="747.385742188" y="883.0" type="line"/>
      <point x="1918.38574219" y="883.0" type="line"/>
      <point x="1866.33789062" y="740.0" type="line"/>
      <point x="695.337890625" y="740.0" type="line"/>
    </contour>
    <contour>
      <point x="697.591796875" y="1499.0" type="line"/>
      <point x="2439.59179688" y="1499.0" type="line"/>
      <point x="1920.20605469" y="72.0" type="line"/>
      <point x="178.206054688" y="72.0" type="line"/>
    </contour>
    <contour>
      <point x="660.4296875" y="1559.0" type="line"/>
      <point x="95.5478515625" y="7.0" type="line"/>
      <point x="1956.54785156" y="7.0" type="line"/>
      <point x="2521.4296875" y="1559.0" type="line"/>
    </contour>
  </outline>
</glyph>
<glyph name="one" format="2">
  <advance width="2048"/>
  <unicode hex="0031"/>
  <outline>
    <contour>
      <point x="1054" y="0" type="line"/>
      <point x="1114" y="0" type="line"/>
      <point x="1678" y="1550" type="line"/>
      <point x="1618" y="1550" type="line"/>
    </contour>
    <contour>
      <point x="1618" y="1550" type="line"/>
      <point x="1453" y="1426" type="line"/>
      <point x="1495" y="1398" type="line"/>
      <point x="1678" y="1550" type="line"/>
    </contour>
  </outline>
</glyph>
<glyph name="two" format="2">
  <advance width="2048"/>
  <unicode hex="0032"/>
  <outline>
    <contour>
      <point x="649" y="1484" type="line"/>
      <point x="2422" y="1484" type="line"/>
      <point x="2212" y="908" type="line"/>
      <point x="446" y="908" type="line"/>
      <point x="116" y="0" type="line"/>
      <point x="1928" y="0" type="line"/>
      <point x="1949" y="59" type="line"/>
      <point x="197" y="59" type="line"/>
      <point x="485" y="849" type="line"/>
      <point x="2251" y="849" type="line"/>
      <point x="2504" y="1544" type="line"/>
      <point x="671" y="1544" type="line"/>
    </contour>
  </outline>
</glyph>
<glyph name="three" format="2">
  <advance width="2048"/>
  <unicode hex="0033"/>
  <outline>
    <contour>
      <point x="369" y="736" type="line"/>
      <point x="2195" y="736" type="line"/>
      <point x="1946" y="52" type="line"/>
      <point x="78" y="52" type="line"/>
      <point x="65" y="-8" type="line"/>
      <point x="1984" y="-8" type="line"/>
      <point x="2551" y="1550" type="line"/>
      <point x="653" y="1550" type="line"/>
      <point x="632" y="1493" type="line"/>
      <point x="2468" y="1493" type="line"/>
      <point x="2215" y="796" type="line"/>
      <point x="391" y="796" type="line"/>
    </contour>
  </outline>
</glyph>
<glyph name="four" format="2">
  <advance width="2048"/>
  <unicode hex="0034"/>
  <outline>
    <contour>
      <point x="367.981445312" y="761.0" type="line"/>
      <point x="2172.98144531" y="761.0" type="line"/>
      <point x="1898.54785156" y="7.0" type="line"/>
      <point x="1955.54785156" y="7.0" type="line"/>
      <point x="2517.15429688" y="1550.0" type="line"/>
      <point x="2457.15429688" y="1550.0" type="line"/>
      <point x="2191.81933594" y="821.0" type="line"/>
      <point x="449.819335938" y="821.0" type="line"/>
      <point x="715.154296875" y="1550.0" type="line"/>
      <point x="655.154296875" y="1550.0" type="line"/>
    </contour>
  </outline>
</glyph>
<glyph name="five" format="2">
  <advance width="2048"/>
  <unicode hex="0035"/>
  <outline>
    <contour>
      <point x="2268.21" y="899" type="line"/>
      <point x="1962.11" y="58" type="line"/>
      <point x="80.1104" y="58" type="line"/>
      <point x="59" y="0" type="line"/>
      <point x="2001" y="0" type="line"/>
      <point x="2350.05" y="959" type="line"/>
      <point x="469.048" y="959" type="line"/>
      <point x="663.044" y="1492" type="line"/>
      <point x="2554.04" y="1492" type="line"/>
      <point x="2575.15" y="1550" type="line"/>
      <point x="624.154" y="1550" type="line"/>
      <point x="387.209" y="899" type="line"/>
    </contour>
  </outline>
</glyph>
<glyph name="six" format="2">
  <advance width="2048"/>
  <unicode hex="0036"/>
  <outline>
    <contour>
      <point x="605.154" y="1550" type="line"/>
      <point x="114.158" y="201" type="line"/>
      <point x="42.4561" y="4" type="line"/>
      <point x="2005.46" y="4" type="line"/>
      <point x="2302.09" y="819" type="line"/>
      <point x="401.092" y="819" type="line"/>
      <point x="644.588" y="1488" type="line"/>
      <point x="2550.59" y="1488" type="line"/>
      <point x="2573.15" y="1550" type="line"/>
    </contour>
    <contour>
      <point x="2218.25" y="759" type="line"/>
      <point x="1964.93" y="63" type="line"/>
      <point x="131.93" y="63" type="line"/>
      <point x="385.253" y="759" type="line"/>
    </contour>
  </outline>
</glyph>
<glyph name="seven" format="2">
  <advance width="2048"/>
  <unicode hex="0037"/>
  <outline>
    <contour>
      <point x="598.135742188" y="1495.0" type="line"/>
      <point x="2473.13574219" y="1495.0" type="line"/>
      <point x="1929.0" y="0.0" type="line"/>
      <point x="1991.0" y="0.0" type="line"/>
      <point x="2557.70117188" y="1557.0" type="line"/>
      <point x="620.701171875" y="1557.0" type="line"/>
    </contour>
  </outline>
</glyph>
<glyph name="eight" format="2">
  <advance width="2048"/>
  <unicode hex="0038"/>
  <outline>
    <contour>
      <point x="620.154" y="1550.0" type="line"/>
      <point x="56.0" y="0.0" type="line"/>
      <point x="1991.91" y="-3.0" type="line"/>
      <point x="2557.15" y="1550.0" type="line"/>
    </contour>
    <contour>
      <point x="2258.21" y="899.0" type="line"/>
      <point x="1951.75" y="57.0" type="line"/>
      <point x="139.746" y="57.0" type="line"/>
      <point x="446.209" y="899.0" type="line"/>
    </contour>
    <contour>
      <point x="2281.05" y="959.0" type="line"/>
      <point x="467.048" y="959.0" type="line"/>
      <point x="659.952" y="1489.0" type="line"/>
      <point x="2473.95" y="1489.0" type="line"/>
    </contour>
  </outline>
</glyph>
<glyph name="nine" format="2">
  <advance width="2048"/>
  <unicode hex="0039"/>
  <outline>
    <contour>
      <point x="2221.25292969" y="759.0" type="line"/>
      <point x="1966.47460938" y="59.0" type="line"/>
      <point x="100.474609375" y="59.0" type="line"/>
      <point x="79.0" y="0.0" type="line"/>
      <point x="2001.0" y="0.0" type="line"/>
      <point x="2566.24609375" y="1553.0" type="line"/>
      <point x="622.24609375" y="1553.0" type="line"/>
      <point x="617.877929688" y="1541.0" type="line"/>
      <point x="333.252929688" y="759.0" type="line"/>
    </contour>
    <contour>
      <point x="2239.72753906" y="818.0" type="line"/>
      <point x="414.727539062" y="818.0" type="line"/>
      <point x="661.135742188" y="1495.0" type="line"/>
      <point x="2486.13574219" y="1495.0" type="line"/>
    </contour>
  </outline>
</glyph>
<glyph name="colon" format="2">
  <advance width="2048"/>
  <unicode hex="003A"/>
  <outline>
    <contour>
      <point x="1016" y="164" type="line"/>
      <point x="959" y="7" type="line"/>
      <point x="1095" y="7" type="line"/>
      <point x="1152" y="164" type="line"/>
    </contour>
    <contour>
      <point x="1157" y="553" type="line"/>
      <point x="1100" y="396" type="line"/>
      <point x="1236" y="396" type="line"/>
      <point x="1293" y="553" type="line"/>
    </contour>
  </outline>
</glyph>
<glyph name="semicolon" format="2">
  <advance width="2048"/>
  <unicode hex="003B"/>
  <outline>
    <contour>
      <point x="1015.69" y="164" type="line"/>
      <point x="958.548" y="7" type="line"/>
      <point x="1094.55" y="7" type="line"/>
      <point x="1151.69" y="164" type="line"/>
    </contour>
    <contour>
      <point x="1089.14" y="135" type="line"/>
      <point x="961.967" y="-99" type="line"/>
      <point x="994.133" y="-148" type="line"/>
      <point x="1099.46" y="26" type="line"/>
    </contour>
    <contour>
      <point x="1139.08" y="503" type="line"/>
      <point x="1081.93" y="346" type="line"/>
      <point x="1217.93" y="346" type="line"/>
      <point x="1275.08" y="503" type="line"/>
    </contour>
  </outline>
</glyph>
<glyph name="less" format="2">
  <advance width="2048"/>
  <unicode hex="003C"/>
  <outline>
    <contour>
      <point x="852.309" y="652" type="line"/>
      <point x="822.099" y="569" type="line"/>
      <point x="1777.32" y="946" type="line"/>
      <point x="1801.7" y="1013" type="line"/>
    </contour>
    <contour>
      <point x="852.309" y="652" type="line"/>
      <point x="822.099" y="569" type="line"/>
      <point x="1471.4" y="122" type="line"/>
      <point x="1499.43" y="199" type="line"/>
    </contour>
  </outline>
</glyph>
<glyph name="equal" format="2">
  <advance width="2048"/>
  <unicode hex="003D"/>
  <outline>
    <contour>
      <point x="915.911" y="824" type="line"/>
      <point x="879.515" y="724" type="line"/>
      <point x="1695.51" y="724" type="line"/>
      <point x="1731.91" y="824" type="line"/>
    </contour>
    <contour>
      <point x="812.544" y="540" type="line"/>
      <point x="779.786" y="450" type="line"/>
      <point x="1595.79" y="450" type="line"/>
      <point x="1628.54" y="540" type="line"/>
    </contour>
  </outline>
</glyph>
<glyph name="greater" format="2">
  <advance width="2048"/>
  <unicode hex="003E"/>
  <outline>
    <contour>
      <point x="1663" y="632" type="line"/>
      <point x="986" y="1013" type="line"/>
      <point x="964" y="952" type="line"/>
      <point x="1640" y="569" type="line"/>
    </contour>
    <contour>
      <point x="1663" y="632" type="line"/>
      <point x="683" y="186" type="line"/>
      <point x="659" y="122" type="line"/>
      <point x="1640" y="569" type="line"/>
    </contour>
  </outline>
</glyph>
<glyph name="question" format="2">
  <advance width="2048"/>
  <unicode hex="003F"/>
  <outline>
    <contour>
      <point x="928.772" y="134.0" type="line"/>
      <point x="880.0" y="0.0" type="line"/>
      <point x="992.0" y="0.0" type="line"/>
      <point x="1040.77" y="134.0" type="line"/>
    </contour>
    <contour>
      <point x="1256.87" y="1519.0" type="line"/>
      <point x="1223.02" y="1426.0" type="line"/>
      <point x="1859.02" y="1426.0" type="line"/>
      <point x="1892.87" y="1519.0" type="line"/>
    </contour>
    <contour>
      <point x="1809.05" y="1514.0" type="line"/>
      <point x="1609.6" y="966.0" type="line"/>
      <point x="1695.6" y="966.0" type="line"/>
      <point x="1895.05" y="1514.0" type="line"/>
    </contour>
    <contour>
      <point x="1249.43" y="1015.0" type="line"/>
      <point x="1225.04" y="948.0" type="line"/>
      <point x="1689.04" y="948.0" type="line"/>
      <point x="1713.43" y="1015.0" type="line"/>
    </contour>
    <contour>
      <point x="1247.97" y="1011.0" type="line"/>
      <point x="1022.68" y="392.0" type="line"/>
      <point x="1118.68" y="392.0" type="line"/>
      <point x="1343.97" y="1011.0" type="line"/>
    </contour>
  </outline>
</glyph>
<glyph name="at" format="2">
  <advance width="2048"/>
  <unicode hex="0040"/>
  <outline>
    <contour>
      <point x="966" y="1023" type="line"/>
      <point x="942" y="956" type="line"/>
      <point x="1840" y="956" type="line"/>
      <point x="1864" y="1023" type="line"/>
    </contour>
    <contour>
      <point x="1470" y="598" type="line"/>
      <point x="1252" y="0" type="line"/>
      <point x="1320" y="0" type="line"/>
      <point x="1538" y="598" type="line"/>
    </contour>
    <contour>
      <point x="1051" y="601" type="line"/>
      <point x="1033" y="551" type="line"/>
      <point x="1457" y="551" type="line"/>
      <point x="1475" y="601" type="line"/>
    </contour>
    <contour>
      <point x="1042" y="589" type="line"/>
      <point x="832" y="12" type="line"/>
      <point x="886" y="12" type="line"/>
      <point x="1096" y="589" type="line"/>
    </contour>
    <contour>
      <point x="854" y="76" type="line"/>
      <point x="826" y="0" type="line"/>
      <point x="1320" y="0" type="line"/>
      <point x="1348" y="76" type="line"/>
    </contour>
    <contour>
      <point x="912" y="1023" type="line"/>
      <point x="459" y="-223" type="line"/>
      <point x="525" y="-223" type="line"/>
      <point x="978" y="1023" type="line"/>
    </contour>
    <contour>
      <point x="473" y="-179" type="line"/>
      <point x="444" y="-258" type="line"/>
      <point x="1392" y="-258" type="line"/>
      <point x="1421" y="-179" type="line"/>
    </contour>
    <contour>
      <point x="1800" y="1033" type="line"/>
      <point x="1424" y="0" type="line"/>
      <point x="1510" y="0" type="line"/>
      <point x="1886" y="1033" type="line"/>
    </contour>
    <contour>
      <point x="1294" y="76" type="line"/>
      <point x="1266" y="0" type="line"/>
      <point x="1456" y="0" type="line"/>
      <point x="1484" y="76" type="line"/>
    </contour>
  </outline>
</glyph>
<glyph name="A" format="2">
  <advance width="2048"/>
  <unicode hex="0041"/>
  <anchor x="1629" y="1625" name="top"/>
  <anchor x="1063" y="11" name="base"/>
  <outline>
    <contour>
      <point x="128" y="0" type="line"/>
      <point x="187" y="0" type="line"/>
      <point x="752.246" y="1553" type="line"/>
      <point x="693.246" y="1553" type="line"/>
    </contour>
    <contour>
      <point x="730.044" y="1492" type="line"/>
      <point x="2418.04" y="1492" type="line"/>
      <point x="2440.25" y="1553" type="line"/>
      <point x="752.246" y="1553" type="line"/>
    </contour>
    <contour>
      <point x="534.051" y="970" type="line"/>
      <point x="512.577" y="911" type="line"/>
      <point x="2206.58" y="911" type="line"/>
      <point x="2228.05" y="970" type="line"/>
    </contour>
    <contour>
      <point x="1859" y="0" type="line"/>
      <point x="1919" y="0" type="line"/>
      <point x="2484.25" y="1553" type="line"/>
      <point x="2424.25" y="1553" type="line"/>
    </contour>
  </outline>
</glyph>
<glyph name="B" format="2">
  <advance width="2048"/>
  <unicode hex="0042"/>
  <outline>
    <contour>
      <point x="114.0" y="0.0" type="line"/>
      <point x="171.0" y="0.0" type="line"/>
      <point x="736.246" y="1553.0" type="line"/>
      <point x="679.246" y="1553.0" type="line"/>
    </contour>
    <contour>
      <point x="1603.77" y="1494.0" type="line"/>
      <point x="2347.41" y="1232.0" type="line"/>
      <point x="2367.79" y="1288.0" type="line"/>
      <point x="1624.15" y="1550.0" type="line"/>
    </contour>
    <contour>
      <point x="1391.65" y="848.0" type="line"/>
      <point x="2347.41" y="1232.0" type="line"/>
      <point x="2367.07" y="1286.0" type="line"/>
      <point x="1413.49" y="908.0" type="line"/>
    </contour>
    <contour>
      <point x="1087.57" y="62.0" type="line"/>
      <point x="1065.0" y="0.0" type="line"/>
      <point x="2090.96" y="434.0" type="line"/>
      <point x="2114.99" y="500.0" type="line"/>
    </contour>
    <contour>
      <point x="1330.69" y="719.0" type="line"/>
      <point x="2090.51" y="430.0" type="line"/>
      <point x="2116.35" y="501.0" type="line"/>
      <point x="1353.26" y="781.0" type="line"/>
    </contour>
    <contour>
      <point x="498.121" y="907.0" type="line"/>
      <point x="476.283" y="847.0" type="line"/>
      <point x="1391.28" y="847.0" type="line"/>
      <point x="1413.12" y="907.0" type="line"/>
    </contour>
    <contour>
      <point x="443.261" y="781.0" type="line"/>
      <point x="421.423" y="721.0" type="line"/>
      <point x="1331.42" y="721.0" type="line"/>
      <point x="1353.26" y="781.0" type="line"/>
    </contour>
    <contour>
      <point x="177.566" y="62.0" type="line"/>
      <point x="155.0" y="0.0" type="line"/>
      <point x="1065.0" y="0.0" type="line"/>
      <point x="1087.57" y="62.0" type="line"/>
    </contour>
    <contour>
      <point x="715.246" y="1553.0" type="line"/>
      <point x="693.771" y="1494.0" type="line"/>
      <point x="1603.77" y="1494.0" type="line"/>
      <point x="1625.25" y="1553.0" type="line"/>
    </contour>
  </outline>
</glyph>
<glyph name="C" format="2">
  <advance width="2048"/>
  <unicode hex="0043"/>
  <outline>
    <contour>
      <point x="636.246" y="1553.0" type="line"/>
      <point x="71.0" y="0.0" type="line"/>
      <point x="131.0" y="0.0" type="line"/>
      <point x="696.246" y="1553.0" type="line"/>
    </contour>
    <contour>
      <point x="665.246" y="1553.0" type="line"/>
      <point x="644.136" y="1495.0" type="line"/>
      <point x="2521.14" y="1495.0" type="line"/>
      <point x="2542.25" y="1553.0" type="line"/>
    </contour>
    <contour>
      <point x="126.11" y="58.0" type="line"/>
      <point x="105.0" y="0.0" type="line"/>
      <point x="1975.0" y="0.0" type="line"/>
      <point x="1996.11" y="58.0" type="line"/>
    </contour>
  </outline>
</glyph>
<glyph name="D" format="2">
  <advance width="2048"/>
  <unicode hex="0044"/>
  <outline>
    <contour>
      <point x="673.24609375" y="1553.0" type="line"/>
      <point x="108.0" y="0.0" type="line"/>
      <point x="168.0" y="0.0" type="line"/>
      <point x="733.24609375" y="1553.0" type="line"/>
    </contour>
    <contour>
      <point x="1812.15429688" y="1550.0" type="line"/>
      <point x="1791.40722656" y="1493.0" type="line"/>
      <point x="2287.77539062" y="961.0" type="line"/>
      <point x="2310.34179688" y="1023.0" type="line"/>
    </contour>
    <contour>
      <point x="1269.11035156" y="58.0" type="line"/>
      <point x="1248.0" y="0.0" type="line"/>
      <point x="2289.41113281" y="960.0" type="line"/>
      <point x="2312.34179688" y="1023.0" type="line"/>
    </contour>
    <contour>
      <point x="733.24609375" y="1553.0" type="line"/>
      <point x="711.407226562" y="1493.0" type="line"/>
      <point x="1791.40722656" y="1493.0" type="line"/>
      <point x="1813.24609375" y="1553.0" type="line"/>
    </contour>
    <contour>
      <point x="191.110351562" y="58.0" type="line"/>
      <point x="170.0" y="0.0" type="line"/>
      <point x="1248.0" y="0.0" type="line"/>
      <point x="1269.11035156" y="58.0" type="line"/>
    </contour>
  </outline>
</glyph>
<glyph name="E" format="2">
  <advance width="2048"/>
  <unicode hex="0045"/>
  <outline>
    <contour>
      <point x="680.154296875" y="1550.0" type="line"/>
      <point x="116.0" y="0.0" type="line"/>
      <point x="174.0" y="0.0" type="line"/>
      <point x="738.154296875" y="1550.0" type="line"/>
    </contour>
    <contour>
      <point x="717.24609375" y="1553.0" type="line"/>
      <point x="694.315429688" y="1490.0" type="line"/>
      <point x="2454.31542969" y="1490.0" type="line"/>
      <point x="2477.24609375" y="1553.0" type="line"/>
    </contour>
    <contour>
      <point x="179.837890625" y="60.0" type="line"/>
      <point x="158.0" y="0.0" type="line"/>
      <point x="1928.0" y="0.0" type="line"/>
      <point x="1949.83789062" y="60.0" type="line"/>
    </contour>
    <contour>
      <point x="470.650390625" y="859.0" type="line"/>
      <point x="448.448242188" y="798.0" type="line"/>
      <point x="1972.44824219" y="798.0" type="line"/>
      <point x="1994.65039062" y="859.0" type="line"/>
    </contour>
  </outline>
</glyph>
<glyph name="F" format="2">
  <advance width="2048"/>
  <unicode hex="0046"/>
  <anchor x="1594" y="1641" name="top"/>
  <anchor x="1022" y="-90" name="base"/>
  <outline>
    <contour>
      <point x="682" y="1553" type="line"/>
      <point x="118" y="3" type="line"/>
      <point x="177" y="3" type="line"/>
      <point x="741" y="1553" type="line"/>
    </contour>
    <contour>
      <point x="741" y="1553" type="line"/>
      <point x="721" y="1497" type="line"/>
      <point x="2475" y="1497" type="line"/>
      <point x="2495" y="1553" type="line"/>
    </contour>
    <contour>
      <point x="481" y="864" type="line"/>
      <point x="460" y="806" type="line"/>
      <point x="2050" y="806" type="line"/>
      <point x="2071" y="864" type="line"/>
    </contour>
  </outline>
</glyph>
<glyph name="G" format="2">
  <advance width="2048"/>
  <unicode hex="0047"/>
  <outline>
    <contour>
      <point x="683.510742188" y="1529.0" type="line"/>
      <point x="125.543945312" y="-4.0" type="line"/>
      <point x="184.543945312" y="-4.0" type="line"/>
      <point x="742.510742188" y="1529.0" type="line"/>
    </contour>
    <contour>
      <point x="736.510742188" y="1529.0" type="line"/>
      <point x="714.671875" y="1469.0" type="line"/>
      <point x="2419.671875" y="1469.0" type="line"/>
      <point x="2441.51074219" y="1529.0" type="line"/>
    </contour>
    <contour>
      <point x="179.837890625" y="60.0" type="line"/>
      <point x="158.0" y="0.0" type="line"/>
      <point x="1921.0" y="0.0" type="line"/>
      <point x="1942.83789062" y="60.0" type="line"/>
    </contour>
    <contour>
      <point x="2064.1875" y="561.0" type="line"/>
      <point x="1866.55175781" y="18.0" type="line"/>
      <point x="1927.55175781" y="18.0" type="line"/>
      <point x="2125.1875" y="561.0" type="line"/>
    </contour>
  </outline>
</glyph>
<glyph name="H" format="2">
  <advance width="2048"/>
  <unicode hex="0048"/>
  <outline>
    <contour>
      <point x="679.246" y="1553.0" type="line"/>
      <point x="114.0" y="0.0" type="line"/>
      <point x="173.0" y="0.0" type="line"/>
      <point x="738.246" y="1553.0" type="line"/>
    </contour>
    <contour>
      <point x="2438.25" y="1553.0" type="line"/>
      <point x="1873.0" y="0.0" type="line"/>
      <point x="1934.0" y="0.0" type="line"/>
      <point x="2499.25" y="1553.0" type="line"/>
    </contour>
    <contour>
      <point x="491.944" y="923.0" type="line"/>
      <point x="470.471" y="864.0" type="line"/>
      <point x="2211.47" y="864.0" type="line"/>
      <point x="2232.94" y="923.0" type="line"/>
    </contour>
  </outline>
</glyph>
<glyph name="I" format="2">
  <advance width="2048"/>
  <unicode hex="0049"/>
  <outline>
    <contour>
      <point x="718.154" y="1550.0" type="line"/>
      <point x="695.952" y="1489.0" type="line"/>
      <point x="2420.95" y="1489.0" type="line"/>
      <point x="2443.15" y="1550.0" type="line"/>
    </contour>
    <contour>
      <point x="1609.42" y="1515.0" type="line"/>
      <point x="1070.38" y="34.0" type="line"/>
      <point x="1129.38" y="34.0" type="line"/>
      <point x="1668.42" y="1515.0" type="line"/>
    </contour>
    <contour>
      <point x="158.022" y="66.0" type="line"/>
      <point x="136.184" y="6.0" type="line"/>
      <point x="1916.18" y="6.0" type="line"/>
      <point x="1938.02" y="66.0" type="line"/>
    </contour>
  </outline>
</glyph>
<glyph name="J" format="2">
  <advance width="2048"/>
  <unicode hex="004A"/>
  <anchor x="1040" y="-148" name="base"/>
  <anchor x="2481" y="1825" name="top"/>
  <outline>
    <contour>
      <point x="2419.78" y="1527" type="line"/>
      <point x="1864" y="0" type="line"/>
      <point x="1924" y="0" type="line"/>
      <point x="2479.78" y="1527" type="line"/>
    </contour>
    <contour>
      <point x="145.838" y="60" type="line"/>
      <point x="124" y="0" type="line"/>
      <point x="1890" y="0" type="line"/>
      <point x="1911.84" y="60" type="line"/>
    </contour>
    <contour>
      <point x="307.077" y="503" type="line"/>
      <point x="133.827" y="27" type="line"/>
      <point x="193.827" y="27" type="line"/>
      <point x="367.077" y="503" type="line"/>
    </contour>
  </outline>
</glyph>
<glyph name="K" format="2">
  <advance width="2048"/>
  <unicode hex="004B"/>
  <anchor x="933" y="-99" name="base"/>
  <anchor x="843" y="1686" name="top"/>
  <outline>
    <contour>
      <point x="737.246" y="1553" type="line"/>
      <point x="173.82" y="5" type="line"/>
      <point x="233.82" y="5" type="line"/>
      <point x="797.246" y="1553" type="line"/>
    </contour>
    <contour>
      <point x="599.43" y="1015" type="line"/>
      <point x="573.588" y="944" type="line"/>
      <point x="2406.15" y="1550" type="line"/>
      <point x="2336.15" y="1550" type="line"/>
    </contour>
    <contour>
      <point x="569.948" y="934" type="line"/>
      <point x="517.19" y="844" type="line"/>
      <point x="1826" y="0" type="line"/>
      <point x="1876" y="0" type="line"/>
    </contour>
  </outline>
</glyph>
<glyph name="L" format="2">
  <advance width="2048"/>
  <unicode hex="004C"/>
  <anchor x="1000" y="-123" name="base"/>
  <anchor x="822" y="1738" name="top"/>
  <outline>
    <contour>
      <point x="695.246" y="1553" type="line"/>
      <point x="130" y="0" type="line"/>
      <point x="190" y="0" type="line"/>
      <point x="755.246" y="1553" type="line"/>
    </contour>
    <contour>
      <point x="166.202" y="61" type="line"/>
      <point x="144" y="0" type="line"/>
      <point x="1914" y="0" type="line"/>
      <point x="1936.2" y="61" type="line"/>
    </contour>
  </outline>
</glyph>
<glyph name="M" format="2">
  <advance width="2048"/>
  <unicode hex="004D"/>
  <outline>
    <contour>
      <point x="665.246" y="1553.0" type="line"/>
      <point x="100.0" y="0.0" type="line"/>
      <point x="160.0" y="0.0" type="line"/>
      <point x="725.246" y="1553.0" type="line"/>
    </contour>
    <contour>
      <point x="2451.25" y="1553.0" type="line"/>
      <point x="1884.91" y="-3.0" type="line"/>
      <point x="1946.91" y="-3.0" type="line"/>
      <point x="2513.25" y="1553.0" type="line"/>
    </contour>
    <contour>
      <point x="665.246" y="1553.0" type="line"/>
      <point x="1421.98" y="1033.0" type="line"/>
      <point x="1491.98" y="1033.0" type="line"/>
      <point x="725.246" y="1553.0" type="line"/>
    </contour>
    <contour>
      <point x="2451.25" y="1553.0" type="line"/>
      <point x="1423.98" y="1033.0" type="line"/>
      <point x="1491.98" y="1033.0" type="line"/>
      <point x="2513.25" y="1553.0" type="line"/>
    </contour>
  </outline>
</glyph>
<glyph name="N" format="2">
  <advance width="2048"/>
  <unicode hex="004E"/>
  <anchor x="1736" y="1754" name="top"/>
  <anchor x="1158" y="-76" name="base"/>
  <outline>
    <contour>
      <point x="663.246" y="1553" type="line"/>
      <point x="98" y="0" type="line"/>
      <point x="158" y="0" type="line"/>
      <point x="723.246" y="1553" type="line"/>
    </contour>
    <contour>
      <point x="2455.25" y="1553" type="line"/>
      <point x="1890" y="0" type="line"/>
      <point x="1950" y="0" type="line"/>
      <point x="2515.25" y="1553" type="line"/>
    </contour>
    <contour>
      <point x="663.246" y="1553" type="line"/>
      <point x="1890" y="0" type="line"/>
      <point x="1950" y="0" type="line"/>
      <point x="723.246" y="1553" type="line"/>
    </contour>
  </outline>
</glyph>
<glyph name="O" format="2">
  <advance width="2048"/>
  <unicode hex="004F"/>
  <outline>
    <contour>
      <point x="677.24609375" y="1553.0" type="line"/>
      <point x="112.0" y="0.0" type="line"/>
      <point x="171.0" y="0.0" type="line"/>
      <point x="736.24609375" y="1553.0" type="line"/>
    </contour>
    <contour>
      <point x="2442.24609375" y="1553.0" type="line"/>
      <point x="1877.0" y="0.0" type="line"/>
      <point x="1936.0" y="0.0" type="line"/>
      <point x="2501.24609375" y="1553.0" type="line"/>
    </contour>
    <contour>
      <point x="715.24609375" y="1553.0" type="line"/>
      <point x="693.407226562" y="1493.0" type="line"/>
      <point x="2449.40722656" y="1493.0" type="line"/>
      <point x="2471.24609375" y="1553.0" type="line"/>
    </contour>
    <contour>
      <point x="174.202148438" y="61.0" type="line"/>
      <point x="152.0" y="0.0" type="line"/>
      <point x="1914.0" y="0.0" type="line"/>
      <point x="1936.20214844" y="61.0" type="line"/>
    </contour>
  </outline>
</glyph>
<glyph name="P" format="2">
  <advance width="2048"/>
  <unicode hex="0050"/>
  <outline>
    <contour>
      <point x="691.694335938" y="1535.0" type="line"/>
      <point x="133.0" y="0.0" type="line"/>
      <point x="192.0" y="0.0" type="line"/>
      <point x="750.694335938" y="1535.0" type="line"/>
    </contour>
    <contour>
      <point x="697.154296875" y="1550.0" type="line"/>
      <point x="668.764648438" y="1472.0" type="line"/>
      <point x="2452.76464844" y="1472.0" type="line"/>
      <point x="2481.15429688" y="1550.0" type="line"/>
    </contour>
    <contour>
      <point x="2415.05859375" y="1536.0" type="line"/>
      <point x="2173.38183594" y="872.0" type="line"/>
      <point x="2234.38183594" y="872.0" type="line"/>
      <point x="2476.05859375" y="1536.0" type="line"/>
    </contour>
    <contour>
      <point x="516.856445312" y="931.0" type="line"/>
      <point x="495.018554688" y="871.0" type="line"/>
      <point x="2206.01855469" y="871.0" type="line"/>
      <point x="2227.85644531" y="931.0" type="line"/>
    </contour>
  </outline>
</glyph>
<glyph name="Q" format="2">
  <advance width="2048"/>
  <unicode hex="0051"/>
  <outline>
    <contour>
      <point x="677.246" y="1553.0" type="line"/>
      <point x="112.0" y="0.0" type="line"/>
      <point x="170.0" y="0.0" type="line"/>
      <point x="735.246" y="1553.0" type="line"/>
    </contour>
    <contour>
      <point x="2443.25" y="1553.0" type="line"/>
      <point x="1878.0" y="0.0" type="line"/>
      <point x="1936.0" y="0.0" type="line"/>
      <point x="2501.25" y="1553.0" type="line"/>
    </contour>
    <contour>
      <point x="717.246" y="1553.0" type="line"/>
      <point x="696.499" y="1496.0" type="line"/>
      <point x="2430.5" y="1496.0" type="line"/>
      <point x="2451.25" y="1553.0" type="line"/>
    </contour>
    <contour>
      <point x="174.566" y="62.0" type="line"/>
      <point x="152.0" y="0.0" type="line"/>
      <point x="1888.0" y="0.0" type="line"/>
      <point x="1910.57" y="62.0" type="line"/>
    </contour>
    <contour>
      <point x="1420.73" y="13.0" type="line"/>
      <point x="1447.75" y="-204.0" type="line"/>
      <point x="1523.95" y="-165.0" type="line"/>
      <point x="1482.93" y="52.0" type="line"/>
    </contour>
  </outline>
</glyph>
<glyph name="R" format="2">
  <advance width="2048"/>
  <unicode hex="0052"/>
  <anchor x="967" y="-156" name="base"/>
  <anchor x="1520" y="1690" name="top"/>
  <outline>
    <contour>
      <point x="686.154" y="1550" type="line"/>
      <point x="122" y="0" type="line"/>
      <point x="182" y="0" type="line"/>
      <point x="746.154" y="1550" type="line"/>
    </contour>
    <contour>
      <point x="728.154" y="1550" type="line"/>
      <point x="706.68" y="1491" type="line"/>
      <point x="2422.68" y="1491" type="line"/>
      <point x="2444.15" y="1550" type="line"/>
    </contour>
    <contour>
      <point x="2384.15" y="1550" type="line"/>
      <point x="2137.38" y="872" type="line"/>
      <point x="2225.38" y="872" type="line"/>
      <point x="2472.15" y="1550" type="line"/>
    </contour>
    <contour>
      <point x="490.128" y="929" type="line"/>
      <point x="467.926" y="868" type="line"/>
      <point x="2211.93" y="868" type="line"/>
      <point x="2234.13" y="929" type="line"/>
    </contour>
    <contour>
      <point x="732.474" y="875" type="line"/>
      <point x="1870" y="0" type="line"/>
      <point x="1926" y="0" type="line"/>
      <point x="790.474" y="875" type="line"/>
    </contour>
  </outline>
</glyph>
<glyph name="S" format="2">
  <advance width="2048"/>
  <unicode hex="0053"/>
  <outline>
    <contour>
      <point x="691.24609375" y="1553.0" type="line"/>
      <point x="669.771484375" y="1494.0" type="line"/>
      <point x="2291.77148438" y="1494.0" type="line"/>
      <point x="2313.24609375" y="1553.0" type="line"/>
    </contour>
    <contour>
      <point x="687.2421875" y="1542.0" type="line"/>
      <point x="500.161132812" y="1028.0" type="line"/>
      <point x="559.161132812" y="1028.0" type="line"/>
      <point x="746.2421875" y="1542.0" type="line"/>
    </contour>
    <contour>
      <point x="175.837890625" y="60.0" type="line"/>
      <point x="154.0" y="0.0" type="line"/>
      <point x="1886.0" y="0.0" type="line"/>
      <point x="1907.83789062" y="60.0" type="line"/>
    </contour>
    <contour>
      <point x="1863.0" y="0.0" type="line"/>
      <point x="1922.0" y="0.0" type="line"/>
      <point x="2051.20898438" y="355.0" type="line"/>
      <point x="1992.20898438" y="355.0" type="line"/>
    </contour>
    <contour>
      <point x="500.161132812" y="1028.0" type="line"/>
      <point x="1992.20898438" y="355.0" type="line"/>
      <point x="2051.20898438" y="355.0" type="line"/>
      <point x="559.161132812" y="1028.0" type="line"/>
    </contour>
  </outline>
</glyph>
<glyph name="T" format="2">
  <advance width="2048"/>
  <unicode hex="0054"/>
  <outline>
    <contour>
      <point x="685.24609375" y="1553.0" type="line"/>
      <point x="663.771484375" y="1494.0" type="line"/>
      <point x="2471.77148438" y="1494.0" type="line"/>
      <point x="2493.24609375" y="1553.0" type="line"/>
    </contour>
    <contour>
      <point x="1616.32324219" y="1512.0" type="line"/>
      <point x="1070.3671875" y="12.0" type="line"/>
      <point x="1130.3671875" y="12.0" type="line"/>
      <point x="1676.32324219" y="1512.0" type="line"/>
    </contour>
  </outline>
</glyph>
<glyph name="U" format="2">
  <advance width="2048"/>
  <unicode hex="0055"/>
  <anchor x="1556" y="1630" name="top"/>
  <anchor x="1108" y="-160" name="base"/>
  <outline>
    <contour>
      <point x="721" y="1553" type="line"/>
      <point x="156" y="0" type="line"/>
      <point x="218" y="0" type="line"/>
      <point x="783" y="1553" type="line"/>
    </contour>
    <contour>
      <point x="2395" y="1553" type="line"/>
      <point x="1830" y="0" type="line"/>
      <point x="1890" y="0" type="line"/>
      <point x="2455" y="1553" type="line"/>
    </contour>
    <contour>
      <point x="226" y="61" type="line"/>
      <point x="204" y="0" type="line"/>
      <point x="1848" y="0" type="line"/>
      <point x="1870" y="61" type="line"/>
    </contour>
  </outline>
</glyph>
<glyph name="V" format="2">
  <advance width="2048"/>
  <unicode hex="0056"/>
  <outline>
    <contour>
      <point x="671.24609375" y="1553.0" type="line"/>
      <point x="1062.0" y="0.0" type="line"/>
      <point x="1122.0" y="0.0" type="line"/>
      <point x="735.24609375" y="1553.0" type="line"/>
    </contour>
    <contour>
      <point x="2437.24609375" y="1553.0" type="line"/>
      <point x="1062.0" y="0.0" type="line"/>
      <point x="1122.0" y="0.0" type="line"/>
      <point x="2507.24609375" y="1553.0" type="line"/>
    </contour>
  </outline>
</glyph>
<glyph name="W" format="2">
  <advance width="2048"/>
  <unicode hex="0057"/>
  <outline>
    <contour>
      <point x="665.698" y="1546.0" type="line"/>
      <point x="103.0" y="0.0" type="line"/>
      <point x="163.0" y="0.0" type="line"/>
      <point x="725.698" y="1546.0" type="line"/>
    </contour>
    <contour>
      <point x="2442.97" y="1533.0" type="line"/>
      <point x="1889.37" y="12.0" type="line"/>
      <point x="1949.37" y="12.0" type="line"/>
      <point x="2502.97" y="1533.0" type="line"/>
    </contour>
    <contour>
      <point x="1443.16" y="1028.0" type="line"/>
      <point x="1069.0" y="0.0" type="line"/>
      <point x="1129.0" y="0.0" type="line"/>
      <point x="1503.16" y="1028.0" type="line"/>
    </contour>
    <contour>
      <point x="132.838" y="60.0" type="line"/>
      <point x="111.0" y="0.0" type="line"/>
      <point x="1945.0" y="0.0" type="line"/>
      <point x="1966.84" y="60.0" type="line"/>
    </contour>
  </outline>
</glyph>
<glyph name="X" format="2">
  <advance width="2048"/>
  <unicode hex="0058"/>
  <outline>
    <contour>
      <point x="667.24609375" y="1553.0" type="line"/>
      <point x="1872.0" y="0.0" type="line"/>
      <point x="1946.0" y="0.0" type="line"/>
      <point x="739.24609375" y="1553.0" type="line"/>
    </contour>
    <contour>
      <point x="102.0" y="0.0" type="line"/>
      <point x="172.0" y="0.0" type="line"/>
      <point x="2511.24609375" y="1553.0" type="line"/>
      <point x="2435.24609375" y="1553.0" type="line"/>
    </contour>
  </outline>
</glyph>
<glyph name="Y" format="2">
  <advance width="2048"/>
  <unicode hex="0059"/>
  <anchor x="1628" y="1642" name="top"/>
  <anchor x="1080" y="-147" name="base"/>
  <outline>
    <contour>
      <point x="1385.75" y="895" type="line"/>
      <point x="1060" y="0" type="line"/>
      <point x="1119" y="0" type="line"/>
      <point x="1444.75" y="895" type="line"/>
    </contour>
    <contour>
      <point x="734.062" y="1547" type="line"/>
      <point x="483.65" y="859" type="line"/>
      <point x="544.65" y="859" type="line"/>
      <point x="795.062" y="1547" type="line"/>
    </contour>
    <contour>
      <point x="2376.06" y="1536" type="line"/>
      <point x="2129.65" y="859" type="line"/>
      <point x="2189.65" y="859" type="line"/>
      <point x="2436.06" y="1536" type="line"/>
    </contour>
    <contour>
      <point x="551.488" y="919" type="line"/>
      <point x="529.65" y="859" type="line"/>
      <point x="2162.65" y="859" type="line"/>
      <point x="2184.49" y="919" type="line"/>
    </contour>
  </outline>
</glyph>
<glyph name="Z" format="2">
  <advance width="2048"/>
  <unicode hex="005A"/>
  <anchor x="1596" y="1638" name="top"/>
  <anchor x="1092" y="-78" name="base"/>
  <outline>
    <contour>
      <point x="662" y="1550" type="line"/>
      <point x="641" y="1491" type="line"/>
      <point x="2493" y="1491" type="line"/>
      <point x="2514" y="1550" type="line"/>
    </contour>
    <contour>
      <point x="121" y="60" type="line"/>
      <point x="99" y="0" type="line"/>
      <point x="1950" y="0" type="line"/>
      <point x="1972" y="60" type="line"/>
    </contour>
    <contour>
      <point x="2433" y="1491" type="line"/>
      <point x="121" y="60" type="line"/>
      <point x="181" y="60" type="line"/>
      <point x="2493" y="1491" type="line"/>
    </contour>
  </outline>
</glyph>
<glyph name="bracketleft" format="2">
  <advance width="2048"/>
  <unicode hex="005B"/>
  <outline>
    <contour>
      <point x="1451.24" y="1542.0" type="line"/>
      <point x="801.919" y="-242.0" type="line"/>
      <point x="858.919" y="-242.0" type="line"/>
      <point x="1508.24" y="1542.0" type="line"/>
    </contour>
    <contour>
      <point x="1505.61" y="1543.0" type="line"/>
      <point x="1483.04" y="1481.0" type="line"/>
      <point x="1692.04" y="1481.0" type="line"/>
      <point x="1714.61" y="1543.0" type="line"/>
    </contour>
    <contour>
      <point x="864.853" y="-168.0" type="line"/>
      <point x="837.919" y="-242.0" type="line"/>
      <point x="1069.92" y="-242.0" type="line"/>
      <point x="1096.85" y="-168.0" type="line"/>
    </contour>
  </outline>
</glyph>
<glyph name="backslash" format="2">
  <advance width="2048"/>
  <unicode hex="005C"/>
  <outline>
    <contour>
      <point x="1271.15" y="1550.0" type="line"/>
      <point x="1263.0" y="0.0" type="line"/>
      <point x="1341.0" y="0.0" type="line"/>
      <point x="1354.15" y="1550.0" type="line"/>
    </contour>
  </outline>
</glyph>
<glyph name="bracketright" format="2">
  <advance width="2048"/>
  <unicode hex="005D"/>
  <outline>
    <contour>
      <point x="1659.2421875" y="1542.0" type="line"/>
      <point x="1009.91894531" y="-242.0" type="line"/>
      <point x="1071.91894531" y="-242.0" type="line"/>
      <point x="1721.2421875" y="1542.0" type="line"/>
    </contour>
    <contour>
      <point x="1447.60644531" y="1543.0" type="line"/>
      <point x="1423.94824219" y="1478.0" type="line"/>
      <point x="1651.94824219" y="1478.0" type="line"/>
      <point x="1675.60644531" y="1543.0" type="line"/>
    </contour>
    <contour>
      <point x="825.9453125" y="-165.0" type="line"/>
      <point x="797.918945312" y="-242.0" type="line"/>
      <point x="1035.91894531" y="-242.0" type="line"/>
      <point x="1063.9453125" y="-165.0" type="line"/>
    </contour>
  </outline>
</glyph>
<glyph name="asciicircum" format="2">
  <advance width="2048"/>
  <unicode hex="005E"/>
  <outline>
    <contour>
      <point x="1395.79785156" y="1027.0" type="line"/>
      <point x="1323.79785156" y="1027.0" type="line"/>
      <point x="834.135742188" y="407.0" type="line"/>
      <point x="875.760742188" y="373.0" type="line"/>
    </contour>
    <contour>
      <point x="1330.88964844" y="1030.0" type="line"/>
      <point x="1412.48535156" y="364.0" type="line"/>
      <point x="1507.58789062" y="400.0" type="line"/>
      <point x="1404.88964844" y="1030.0" type="line"/>
    </contour>
  </outline>
</glyph>
<glyph name="grave" format="2">
  <advance width="2048"/>
  <unicode hex="0060"/>
  <outline>
    <contour>
      <point x="1406.06542969" y="1286.0" type="line"/>
      <point x="1406.71679688" y="1057.0" type="line"/>
      <point x="1514.73535156" y="1112.0" type="line"/>
      <point x="1505.71972656" y="1340.0" type="line"/>
    </contour>
  </outline>
</glyph>
<glyph name="a" format="2">
  <advance width="2048"/>
  <unicode hex="0061"/>
  <outline>
    <contour>
      <point x="538.342" y="1023.0" type="line"/>
      <point x="514.319" y="957.0" type="line"/>
      <point x="2187.32" y="957.0" type="line"/>
      <point x="2211.34" y="1023.0" type="line"/>
    </contour>
    <contour>
      <point x="2173.34" y="1023.0" type="line"/>
      <point x="1801.0" y="0.0" type="line"/>
      <point x="1878.0" y="0.0" type="line"/>
      <point x="2250.34" y="1023.0" type="line"/>
    </contour>
    <contour>
      <point x="387.382" y="600.0" type="line"/>
      <point x="364.816" y="538.0" type="line"/>
      <point x="2012.82" y="538.0" type="line"/>
      <point x="2035.38" y="600.0" type="line"/>
    </contour>
    <contour>
      <point x="380.011" y="577.0" type="line"/>
      <point x="170.0" y="0.0" type="line"/>
      <point x="241.0" y="0.0" type="line"/>
      <point x="451.011" y="577.0" type="line"/>
    </contour>
    <contour>
      <point x="205.934" y="74.0" type="line"/>
      <point x="179.0" y="0.0" type="line"/>
      <point x="1867.0" y="0.0" type="line"/>
      <point x="1893.93" y="74.0" type="line"/>
    </contour>
  </outline>
</glyph>
<glyph name="b" format="2">
  <advance width="2048"/>
  <unicode hex="0062"/>
  <outline>
    <contour>
      <point x="694.05859375" y="1536.0" type="line"/>
      <point x="135.0" y="0.0" type="line"/>
      <point x="195.0" y="0.0" type="line"/>
      <point x="754.05859375" y="1536.0" type="line"/>
    </contour>
    <contour>
      <point x="553.981445312" y="1033.0" type="line"/>
      <point x="531.779296875" y="972.0" type="line"/>
      <point x="2219.77929688" y="972.0" type="line"/>
      <point x="2241.98144531" y="1033.0" type="line"/>
    </contour>
    <contour>
      <point x="2228.98144531" y="1033.0" type="line"/>
      <point x="1853.0" y="0.0" type="line"/>
      <point x="1913.0" y="0.0" type="line"/>
      <point x="2288.98144531" y="1033.0" type="line"/>
    </contour>
    <contour>
      <point x="191.837890625" y="60.0" type="line"/>
      <point x="170.0" y="0.0" type="line"/>
      <point x="1891.0" y="0.0" type="line"/>
      <point x="1912.83789062" y="60.0" type="line"/>
    </contour>
  </outline>
</glyph>
<glyph name="c" format="2">
  <advance width="2048"/>
  <unicode hex="0063"/>
  <outline>
    <contour>
      <point x="537.797851562" y="1027.0" type="line"/>
      <point x="515.958984375" y="967.0" type="line"/>
      <point x="2235.95898438" y="967.0" type="line"/>
      <point x="2257.79785156" y="1027.0" type="line"/>
    </contour>
    <contour>
      <point x="524.146484375" y="984.0" type="line"/>
      <point x="166.0" y="0.0" type="line"/>
      <point x="226.0" y="0.0" type="line"/>
      <point x="584.146484375" y="984.0" type="line"/>
    </contour>
    <contour>
      <point x="235.837890625" y="60.0" type="line"/>
      <point x="214.0" y="0.0" type="line"/>
      <point x="1878.0" y="0.0" type="line"/>
      <point x="1899.83789062" y="60.0" type="line"/>
    </contour>
  </outline>
</glyph>
<glyph name="d" format="2">
  <advance width="2048"/>
  <unicode hex="0064"/>
  <outline>
    <contour>
      <point x="2368.15" y="1550.0" type="line"/>
      <point x="1804.0" y="0.0" type="line"/>
      <point x="1864.0" y="0.0" type="line"/>
      <point x="2428.15" y="1550.0" type="line"/>
    </contour>
    <contour>
      <point x="601.434" y="1026.0" type="line"/>
      <point x="579.596" y="966.0" type="line"/>
      <point x="2189.6" y="966.0" type="line"/>
      <point x="2211.43" y="1026.0" type="line"/>
    </contour>
    <contour>
      <point x="556.342" y="1023.0" type="line"/>
      <point x="184.0" y="0.0" type="line"/>
      <point x="244.0" y="0.0" type="line"/>
      <point x="616.342" y="1023.0" type="line"/>
    </contour>
    <contour>
      <point x="245.475" y="59.0" type="line"/>
      <point x="222.544" y="-4.0" type="line"/>
      <point x="1814.54" y="-4.0" type="line"/>
      <point x="1837.47" y="59.0" type="line"/>
    </contour>
  </outline>
</glyph>
<glyph name="e" format="2">
  <advance width="2048"/>
  <unicode hex="0065"/>
  <outline>
    <contour>
      <point x="590.342" y="1023.0" type="line"/>
      <point x="570.323" y="968.0" type="line"/>
      <point x="2232.32" y="968.0" type="line"/>
      <point x="2252.34" y="1023.0" type="line"/>
    </contour>
    <contour>
      <point x="538.342" y="1023.0" type="line"/>
      <point x="166.0" y="0.0" type="line"/>
      <point x="224.0" y="0.0" type="line"/>
      <point x="596.342" y="1023.0" type="line"/>
    </contour>
    <contour>
      <point x="230.202" y="61.0" type="line"/>
      <point x="208.0" y="0.0" type="line"/>
      <point x="1876.0" y="0.0" type="line"/>
      <point x="1898.2" y="61.0" type="line"/>
    </contour>
    <contour>
      <point x="370.169" y="506.0" type="line"/>
      <point x="356.331" y="446.0" type="line"/>
      <point x="2010.33" y="446.0" type="line"/>
      <point x="2032.17" y="506.0" type="line"/>
    </contour>
    <contour>
      <point x="2183.42" y="993.0" type="line"/>
      <point x="1983.97" y="445.0" type="line"/>
      <point x="2043.97" y="445.0" type="line"/>
      <point x="2243.42" y="993.0" type="line"/>
    </contour>
  </outline>
</glyph>
<glyph name="f" format="2">
  <advance width="2048"/>
  <unicode hex="0066"/>
  <outline>
    <contour>
      <point x="1301.34" y="1023.0" type="line"/>
      <point x="779.772" y="-410.0" type="line"/>
      <point x="839.772" y="-410.0" type="line"/>
      <point x="1361.34" y="1023.0" type="line"/>
    </contour>
    <contour>
      <point x="1302.34" y="1023.0" type="line"/>
      <point x="1280.5" y="963.0" type="line"/>
      <point x="2190.5" y="963.0" type="line"/>
      <point x="2212.34" y="1023.0" type="line"/>
    </contour>
    <contour>
      <point x="375.154" y="462.0" type="line"/>
      <point x="353.316" y="402.0" type="line"/>
      <point x="1856.32" y="402.0" type="line"/>
      <point x="1878.15" y="462.0" type="line"/>
    </contour>
  </outline>
</glyph>
<glyph name="g" format="2">
  <advance width="2048"/>
  <unicode hex="0067"/>
  <outline>
    <contour>
      <point x="595.342" y="1023.0" type="line"/>
      <point x="223.0" y="0.0" type="line"/>
      <point x="283.0" y="0.0" type="line"/>
      <point x="655.342" y="1023.0" type="line"/>
    </contour>
    <contour>
      <point x="635.342" y="1023.0" type="line"/>
      <point x="613.14" y="962.0" type="line"/>
      <point x="2153.14" y="962.0" type="line"/>
      <point x="2175.34" y="1023.0" type="line"/>
    </contour>
    <contour>
      <point x="2137.34" y="1023.0" type="line"/>
      <point x="1615.41" y="-411.0" type="line"/>
      <point x="1675.41" y="-411.0" type="line"/>
      <point x="2197.34" y="1023.0" type="line"/>
    </contour>
    <contour>
      <point x="307.11" y="58.0" type="line"/>
      <point x="286.0" y="0.0" type="line"/>
      <point x="1767.0" y="0.0" type="line"/>
      <point x="1788.11" y="58.0" type="line"/>
    </contour>
    <contour>
      <point x="134.154" y="-354.0" type="line"/>
      <point x="112.681" y="-413.0" type="line"/>
      <point x="1625.68" y="-413.0" type="line"/>
      <point x="1647.15" y="-354.0" type="line"/>
    </contour>
  </outline>
</glyph>
<glyph name="h" format="2">
  <advance width="2048"/>
  <unicode hex="0068"/>
  <outline>
    <contour>
      <point x="729.0546875" y="1525.0" type="line"/>
      <point x="176.18359375" y="6.0" type="line"/>
      <point x="235.18359375" y="6.0" type="line"/>
      <point x="788.0546875" y="1525.0" type="line"/>
    </contour>
    <contour>
      <point x="588.161132812" y="1028.0" type="line"/>
      <point x="566.323242188" y="968.0" type="line"/>
      <point x="2179.32324219" y="968.0" type="line"/>
      <point x="2201.16113281" y="1028.0" type="line"/>
    </contour>
    <contour>
      <point x="2189.16113281" y="1028.0" type="line"/>
      <point x="1815.0" y="0.0" type="line"/>
      <point x="1874.0" y="0.0" type="line"/>
      <point x="2248.16113281" y="1028.0" type="line"/>
    </contour>
  </outline>
</glyph>
<glyph name="i" format="2">
  <advance width="2048"/>
  <unicode hex="0069"/>
  <outline>
    <contour>
      <point x="1394.34" y="1023.0" type="line"/>
      <point x="1040.93" y="52.0" type="line"/>
      <point x="1100.93" y="52.0" type="line"/>
      <point x="1454.34" y="1023.0" type="line"/>
    </contour>
    <contour>
      <point x="162.838" y="60.0" type="line"/>
      <point x="141.0" y="0.0" type="line"/>
      <point x="1907.0" y="0.0" type="line"/>
      <point x="1928.84" y="60.0" type="line"/>
    </contour>
    <contour>
      <point x="1306.25" y="1292.0" type="line"/>
      <point x="1263.3" y="1174.0" type="line"/>
      <point x="1376.3" y="1174.0" type="line"/>
      <point x="1419.25" y="1292.0" type="line"/>
    </contour>
    <contour>
      <point x="563.342" y="1023.0" type="line"/>
      <point x="541.14" y="962.0" type="line"/>
      <point x="1389.14" y="962.0" type="line"/>
      <point x="1411.34" y="1023.0" type="line"/>
    </contour>
  </outline>
</glyph>
<glyph name="j" format="2">
  <advance width="2048"/>
  <unicode hex="006A"/>
  <outline>
    <contour>
      <point x="2164.34179688" y="1023.0" type="line"/>
      <point x="1642.40820312" y="-411.0" type="line"/>
      <point x="1700.40820312" y="-411.0" type="line"/>
      <point x="2222.34179688" y="1023.0" type="line"/>
    </contour>
    <contour>
      <point x="71.337890625" y="-348.0" type="line"/>
      <point x="49.1357421875" y="-409.0" type="line"/>
      <point x="1663.13574219" y="-409.0" type="line"/>
      <point x="1685.33789062" y="-348.0" type="line"/>
    </contour>
    <contour>
      <point x="195.81640625" y="-6.0" type="line"/>
      <point x="60.4189453125" y="-378.0" type="line"/>
      <point x="120.418945312" y="-378.0" type="line"/>
      <point x="255.81640625" y="-6.0" type="line"/>
    </contour>
    <contour>
      <point x="2227.12792969" y="1201.0" type="line"/>
      <point x="2205.65429688" y="1142.0" type="line"/>
      <point x="2265.65429688" y="1142.0" type="line"/>
      <point x="2287.12792969" y="1201.0" type="line"/>
    </contour>
  </outline>
</glyph>
<glyph name="k" format="2">
  <advance width="2048"/>
  <unicode hex="006B"/>
  <anchor x="811" y="-133" name="base"/>
  <anchor x="756" y="1678" name="top"/>
  <outline>
    <contour>
      <point x="647" y="1535" type="line"/>
      <point x="90" y="5" type="line"/>
      <point x="150" y="5" type="line"/>
      <point x="707" y="1535" type="line"/>
    </contour>
    <contour>
      <point x="290" y="421" type="line"/>
      <point x="265" y="352" type="line"/>
      <point x="2166" y="1023" type="line"/>
      <point x="2106" y="1023" type="line"/>
    </contour>
    <contour>
      <point x="690" y="551" type="line"/>
      <point x="632" y="508" type="line"/>
      <point x="1899" y="0" type="line"/>
      <point x="1960" y="0" type="line"/>
    </contour>
  </outline>
</glyph>
<glyph name="l" format="2">
  <advance width="2048"/>
  <unicode hex="006C"/>
  <outline>
    <contour>
      <point x="233.206" y="72.0" type="line"/>
      <point x="207.0" y="0.0" type="line"/>
      <point x="1841.0" y="0.0" type="line"/>
      <point x="1867.21" y="72.0" type="line"/>
    </contour>
    <contour>
      <point x="1571.25" y="1553.0" type="line"/>
      <point x="1026.75" y="57.0" type="line"/>
      <point x="1086.75" y="57.0" type="line"/>
      <point x="1631.25" y="1553.0" type="line"/>
    </contour>
    <contour>
      <point x="833.246" y="1553.0" type="line"/>
      <point x="811.771" y="1494.0" type="line"/>
      <point x="1558.77" y="1494.0" type="line"/>
      <point x="1580.25" y="1553.0" type="line"/>
    </contour>
  </outline>
</glyph>
<glyph name="m" format="2">
  <advance width="2048"/>
  <unicode hex="006D"/>
  <outline>
    <contour>
      <point x="695.423" y="993.0" type="line"/>
      <point x="334.0" y="0.0" type="line"/>
      <point x="394.0" y="0.0" type="line"/>
      <point x="755.423" y="993.0" type="line"/>
    </contour>
    <contour>
      <point x="1383.78" y="972.0" type="line"/>
      <point x="1030.0" y="0.0" type="line"/>
      <point x="1090.0" y="0.0" type="line"/>
      <point x="1443.78" y="972.0" type="line"/>
    </contour>
    <contour>
      <point x="2283.24" y="976.0" type="line"/>
      <point x="1928.0" y="0.0" type="line"/>
      <point x="1988.0" y="0.0" type="line"/>
      <point x="2343.24" y="976.0" type="line"/>
    </contour>
    <contour>
      <point x="432.342" y="1023.0" type="line"/>
      <point x="411.596" y="966.0" type="line"/>
      <point x="2339.6" y="966.0" type="line"/>
      <point x="2360.34" y="1023.0" type="line"/>
    </contour>
  </outline>
</glyph>
<glyph name="n" format="2">
  <advance width="2048"/>
  <unicode hex="006E"/>
  <anchor x="1203" y="-133" name="base"/>
  <anchor x="1631" y="1124" name="top"/>
  <outline>
    <contour>
      <point x="862" y="990" type="line"/>
      <point x="502" y="0" type="line"/>
      <point x="563" y="0" type="line"/>
      <point x="923" y="990" type="line"/>
    </contour>
    <contour>
      <point x="2221" y="976" type="line"/>
      <point x="1866" y="0" type="line"/>
      <point x="1926" y="0" type="line"/>
      <point x="2281" y="976" type="line"/>
    </contour>
    <contour>
      <point x="496" y="1027" type="line"/>
      <point x="474" y="967" type="line"/>
      <point x="2276" y="967" type="line"/>
      <point x="2298" y="1027" type="line"/>
    </contour>
  </outline>
</glyph>
<glyph name="o" format="2">
  <advance width="2048"/>
  <unicode hex="006F"/>
  <outline>
    <contour>
      <point x="476.341796875" y="1023.0" type="line"/>
      <point x="104.0" y="0.0" type="line"/>
      <point x="160.0" y="0.0" type="line"/>
      <point x="532.341796875" y="1023.0" type="line"/>
    </contour>
    <contour>
      <point x="2256.34179688" y="1023.0" type="line"/>
      <point x="1884.0" y="0.0" type="line"/>
      <point x="1946.0" y="0.0" type="line"/>
      <point x="2318.34179688" y="1023.0" type="line"/>
    </contour>
    <contour>
      <point x="524.341796875" y="1023.0" type="line"/>
      <point x="503.958984375" y="967.0" type="line"/>
      <point x="2240.95898438" y="967.0" type="line"/>
      <point x="2261.34179688" y="1023.0" type="line"/>
    </contour>
    <contour>
      <point x="172.56640625" y="62.0" type="line"/>
      <point x="150.0" y="0.0" type="line"/>
      <point x="1892.0" y="0.0" type="line"/>
      <point x="1914.56640625" y="62.0" type="line"/>
    </contour>
  </outline>
</glyph>
<glyph name="p" format="2">
  <advance width="2048"/>
  <unicode hex="0070"/>
  <outline>
    <contour>
      <point x="619.848632812" y="1181.0" type="line"/>
      <point x="42.228515625" y="-406.0" type="line"/>
      <point x="102.228515625" y="-406.0" type="line"/>
      <point x="679.848632812" y="1181.0" type="line"/>
    </contour>
    <contour>
      <point x="606.341796875" y="1023.0" type="line"/>
      <point x="584.8671875" y="964.0" type="line"/>
      <point x="2194.8671875" y="964.0" type="line"/>
      <point x="2216.34179688" y="1023.0" type="line"/>
    </contour>
    <contour>
      <point x="258.202148438" y="61.0" type="line"/>
      <point x="236.0" y="0.0" type="line"/>
      <point x="1856.0" y="0.0" type="line"/>
      <point x="1878.20214844" y="61.0" type="line"/>
    </contour>
    <contour>
      <point x="2168.34179688" y="1023.0" type="line"/>
      <point x="1796.0" y="0.0" type="line"/>
      <point x="1854.0" y="0.0" type="line"/>
      <point x="2226.34179688" y="1023.0" type="line"/>
    </contour>
  </outline>
</glyph>
<glyph name="q" format="2">
  <advance width="2048"/>
  <unicode hex="0071"/>
  <outline>
    <contour>
      <point x="1982.4" y="1188.0" type="line"/>
      <point x="1400.77" y="-410.0" type="line"/>
      <point x="1460.77" y="-410.0" type="line"/>
      <point x="2042.4" y="1188.0" type="line"/>
    </contour>
    <contour>
      <point x="518.342" y="1023.0" type="line"/>
      <point x="495.775" y="961.0" type="line"/>
      <point x="1943.78" y="961.0" type="line"/>
      <point x="1966.34" y="1023.0" type="line"/>
    </contour>
    <contour>
      <point x="172.746" y="57.0" type="line"/>
      <point x="152.0" y="0.0" type="line"/>
      <point x="1568.0" y="0.0" type="line"/>
      <point x="1588.75" y="57.0" type="line"/>
    </contour>
    <contour>
      <point x="510.342" y="1023.0" type="line"/>
      <point x="138.0" y="0.0" type="line"/>
      <point x="196.0" y="0.0" type="line"/>
      <point x="568.342" y="1023.0" type="line"/>
    </contour>
    <contour>
      <point x="1428.79" y="-344.0" type="line"/>
      <point x="1404.77" y="-410.0" type="line"/>
      <point x="1760.77" y="-410.0" type="line"/>
      <point x="1784.79" y="-344.0" type="line"/>
    </contour>
  </outline>
</glyph>
<glyph name="r" format="2">
  <advance width="2048"/>
  <unicode hex="0072"/>
  <anchor x="1344" y="1214" name="top"/>
  <anchor x="876" y="-126" name="base"/>
  <outline>
    <contour>
      <point x="518" y="1023" type="line"/>
      <point x="496" y="961" type="line"/>
      <point x="2252" y="961" type="line"/>
      <point x="2274" y="1023" type="line"/>
    </contour>
    <contour>
      <point x="1232" y="989" type="line"/>
      <point x="872" y="0" type="line"/>
      <point x="932" y="0" type="line"/>
      <point x="1292" y="989" type="line"/>
    </contour>
    <contour>
      <point x="2197" y="976" type="line"/>
      <point x="2079" y="650" type="line"/>
      <point x="2139" y="650" type="line"/>
      <point x="2257" y="976" type="line"/>
    </contour>
  </outline>
</glyph>
<glyph name="s" format="2">
  <advance width="2048"/>
  <unicode hex="0073"/>
  <outline>
    <contour>
      <point x="579.342" y="1023.0" type="line"/>
      <point x="557.867" y="964.0" type="line"/>
      <point x="2190.87" y="964.0" type="line"/>
      <point x="2212.34" y="1023.0" type="line"/>
    </contour>
    <contour>
      <point x="579.342" y="1023.0" type="line"/>
      <point x="474.882" y="736.0" type="line"/>
      <point x="535.882" y="736.0" type="line"/>
      <point x="640.342" y="1023.0" type="line"/>
    </contour>
    <contour>
      <point x="229.475" y="59.0" type="line"/>
      <point x="208.0" y="0.0" type="line"/>
      <point x="1837.0" y="0.0" type="line"/>
      <point x="1858.47" y="59.0" type="line"/>
    </contour>
    <contour>
      <point x="1883.83" y="299.0" type="line"/>
      <point x="1779.37" y="12.0" type="line"/>
      <point x="1842.37" y="12.0" type="line"/>
      <point x="1946.83" y="299.0" type="line"/>
    </contour>
    <contour>
      <point x="474.882" y="736.0" type="line"/>
      <point x="1883.83" y="299.0" type="line"/>
      <point x="1946.83" y="299.0" type="line"/>
      <point x="535.882" y="736.0" type="line"/>
    </contour>
  </outline>
</glyph>
<glyph name="t" format="2">
  <advance width="2048"/>
  <unicode hex="0074"/>
  <outline>
    <contour>
      <point x="1532.51074219" y="1529.0" type="line"/>
      <point x="976.0" y="0.0" type="line"/>
      <point x="1036.0" y="0.0" type="line"/>
      <point x="1592.51074219" y="1529.0" type="line"/>
    </contour>
    <contour>
      <point x="1009.83789062" y="60.0" type="line"/>
      <point x="988.0" y="0.0" type="line"/>
      <point x="1892.0" y="0.0" type="line"/>
      <point x="1913.83789062" y="60.0" type="line"/>
    </contour>
    <contour>
      <point x="528.341796875" y="1023.0" type="line"/>
      <point x="507.231445312" y="965.0" type="line"/>
      <point x="2205.23144531" y="965.0" type="line"/>
      <point x="2226.34179688" y="1023.0" type="line"/>
    </contour>
  </outline>
</glyph>
<glyph name="u" format="2">
  <advance width="2048"/>
  <unicode hex="0075"/>
  <outline>
    <contour>
      <point x="514.345703125" y="1034.0" type="line"/>
      <point x="138.0" y="0.0" type="line"/>
      <point x="198.0" y="0.0" type="line"/>
      <point x="574.345703125" y="1034.0" type="line"/>
    </contour>
    <contour>
      <point x="1887.98144531" y="1033.0" type="line"/>
      <point x="1513.45605469" y="4.0" type="line"/>
      <point x="1571.45605469" y="4.0" type="line"/>
      <point x="1945.98144531" y="1033.0" type="line"/>
    </contour>
    <contour>
      <point x="206.202148438" y="61.0" type="line"/>
      <point x="184.0" y="0.0" type="line"/>
      <point x="1910.0" y="0.0" type="line"/>
      <point x="1932.20214844" y="61.0" type="line"/>
    </contour>
  </outline>
</glyph>
<glyph name="v" format="2">
  <advance width="2048"/>
  <unicode hex="0076"/>
  <outline>
    <contour>
      <point x="468.342" y="1023.0" type="line"/>
      <point x="996.0" y="0.0" type="line"/>
      <point x="1054.0" y="0.0" type="line"/>
      <point x="528.342" y="1023.0" type="line"/>
    </contour>
    <contour>
      <point x="2264.34" y="1023.0" type="line"/>
      <point x="996.0" y="0.0" type="line"/>
      <point x="1054.0" y="0.0" type="line"/>
      <point x="2324.34" y="1023.0" type="line"/>
    </contour>
  </outline>
</glyph>
<glyph name="w" format="2">
  <advance width="2048"/>
  <unicode hex="0077"/>
  <outline>
    <contour>
      <point x="476.342" y="1023.0" type="line"/>
      <point x="104.0" y="0.0" type="line"/>
      <point x="164.0" y="0.0" type="line"/>
      <point x="536.342" y="1023.0" type="line"/>
    </contour>
    <contour>
      <point x="2260.16" y="1028.0" type="line"/>
      <point x="1890.37" y="12.0" type="line"/>
      <point x="1950.37" y="12.0" type="line"/>
      <point x="2320.16" y="1028.0" type="line"/>
    </contour>
    <contour>
      <point x="1216.02" y="610.0" type="line"/>
      <point x="994.0" y="0.0" type="line"/>
      <point x="1054.0" y="0.0" type="line"/>
      <point x="1276.02" y="610.0" type="line"/>
    </contour>
    <contour>
      <point x="123.475" y="59.0" type="line"/>
      <point x="102.0" y="0.0" type="line"/>
      <point x="1946.0" y="0.0" type="line"/>
      <point x="1967.47" y="59.0" type="line"/>
    </contour>
  </outline>
</glyph>
<glyph name="x" format="2">
  <advance width="2048"/>
  <unicode hex="0078"/>
  <outline>
    <contour>
      <point x="90.0" y="0.0" type="line"/>
      <point x="210.0" y="0.0" type="line"/>
      <point x="2320.34" y="1023.0" type="line"/>
      <point x="2186.34" y="1023.0" type="line"/>
    </contour>
    <contour>
      <point x="468.342" y="1023.0" type="line"/>
      <point x="1816.91" y="-3.0" type="line"/>
      <point x="1956.91" y="-3.0" type="line"/>
      <point x="622.342" y="1023.0" type="line"/>
    </contour>
  </outline>
</glyph>
<glyph name="y" format="2">
  <advance width="2048"/>
  <unicode hex="0079"/>
  <anchor x="1284" y="1094" name="top"/>
  <anchor x="934" y="-458" name="base"/>
  <outline>
    <contour>
      <point x="2213" y="1023" type="line"/>
      <point x="1692" y="-410" type="line"/>
      <point x="1752" y="-410" type="line"/>
      <point x="2273" y="1023" type="line"/>
    </contour>
    <contour>
      <point x="19" y="-351" type="line"/>
      <point x="-2" y="-410" type="line"/>
      <point x="1739" y="-410" type="line"/>
      <point x="1760" y="-351" type="line"/>
    </contour>
    <contour>
      <point x="519" y="1023" type="line"/>
      <point x="243" y="264" type="line"/>
      <point x="303" y="264" type="line"/>
      <point x="579" y="1023" type="line"/>
    </contour>
    <contour>
      <point x="265" y="324" type="line"/>
      <point x="243" y="264" type="line"/>
      <point x="1957" y="264" type="line"/>
      <point x="1979" y="324" type="line"/>
    </contour>
  </outline>
</glyph>
<glyph name="z" format="2">
  <advance width="2048"/>
  <unicode hex="007A"/>
  <anchor x="1356" y="1102" name="top"/>
  <anchor x="1165" y="-72" name="base"/>
  <outline>
    <contour>
      <point x="470.342" y="1023" type="line"/>
      <point x="448.867" y="964" type="line"/>
      <point x="2300.87" y="964" type="line"/>
      <point x="2322.34" y="1023" type="line"/>
    </contour>
    <contour>
      <point x="119.475" y="59" type="line"/>
      <point x="98" y="0" type="line"/>
      <point x="1950" y="0" type="line"/>
      <point x="1971.47" y="59" type="line"/>
    </contour>
    <contour>
      <point x="2223.87" y="964" type="line"/>
      <point x="119.475" y="59" type="line"/>
      <point x="197.475" y="59" type="line"/>
      <point x="2300.87" y="964" type="line"/>
    </contour>
  </outline>
</glyph>
<glyph name="braceleft" format="2">
  <advance width="2048"/>
  <unicode hex="007B"/>
  <outline>
    <contour>
      <point x="1606.35253906" y="1600.0" type="line"/>
      <point x="1329.00683594" y="838.0" type="line"/>
      <point x="1403.00683594" y="838.0" type="line"/>
      <point x="1680.35253906" y="1600.0" type="line"/>
    </contour>
    <contour>
      <point x="1190.32324219" y="424.0" type="line"/>
      <point x="941.00390625" y="-261.0" type="line"/>
      <point x="1027.00390625" y="-261.0" type="line"/>
      <point x="1276.32324219" y="424.0" type="line"/>
    </contour>
    <contour>
      <point x="987.139648438" y="690.0" type="line"/>
      <point x="965.30078125" y="630.0" type="line"/>
      <point x="1404.27929688" y="836.0" type="line"/>
      <point x="1328.27929688" y="836.0" type="line"/>
    </contour>
    <contour>
      <point x="987.139648438" y="690.0" type="line"/>
      <point x="965.30078125" y="630.0" type="line"/>
      <point x="1188.6875" y="425.0" type="line"/>
      <point x="1274.6875" y="425.0" type="line"/>
    </contour>
    <contour>
      <point x="1626.35253906" y="1600.0" type="line"/>
      <point x="1600.51074219" y="1529.0" type="line"/>
      <point x="1871.796875" y="1571.0" type="line"/>
      <point x="1886.35253906" y="1600.0" type="line"/>
    </contour>
    <contour>
      <point x="976.849609375" y="-179.0" type="line"/>
      <point x="946.275390625" y="-263.0" type="line"/>
      <point x="1216.27539062" y="-263.0" type="line"/>
      <point x="1221.0078125" y="-250.0" type="line"/>
    </contour>
  </outline>
</glyph>
<glyph name="bar" format="2">
  <advance width="2048"/>
  <unicode hex="007C"/>
  <outline>
    <contour>
      <point x="1506.296875" y="1435.0" type="line"/>
      <point x="951.243164062" y="-90.0" type="line"/>
      <point x="1031.24316406" y="-90.0" type="line"/>
      <point x="1586.296875" y="1435.0" type="line"/>
    </contour>
  </outline>
</glyph>
<glyph name="braceright" format="2">
  <advance width="2048"/>
  <unicode hex="007D"/>
  <outline>
    <contour>
      <point x="1601.97" y="1544" type="line"/>
      <point x="1542.97" y="1544" type="line"/>
      <point x="1286.01" y="838" type="line"/>
      <point x="1344.01" y="838" type="line"/>
    </contour>
    <contour>
      <point x="1180.32" y="424" type="line"/>
      <point x="1120.32" y="424" type="line"/>
      <point x="861.904" y="-286" type="line"/>
      <point x="921.904" y="-286" type="line"/>
    </contour>
    <contour>
      <point x="1564.14" y="690" type="line"/>
      <point x="1340.01" y="838" type="line"/>
      <point x="1285.01" y="838" type="line"/>
      <point x="1542.3" y="630" type="line"/>
    </contour>
    <contour>
      <point x="1564.14" y="690" type="line"/>
      <point x="1120.32" y="424" type="line"/>
      <point x="1180.32" y="424" type="line"/>
      <point x="1542.3" y="630" type="line"/>
    </contour>
    <contour>
      <point x="1624.44" y="1603" type="line"/>
      <point x="1349.44" y="1603" type="line"/>
      <point x="1342.89" y="1574" type="line"/>
      <point x="1587.23" y="1509" type="line"/>
    </contour>
    <contour>
      <point x="941.206" y="-200" type="line"/>
      <point x="635.272" y="-274" type="line"/>
      <point x="631.633" y="-284" type="line"/>
      <point x="907.633" y="-284" type="line"/>
    </contour>
  </outline>
</glyph>
<glyph name="asciitilde" format="2">
  <advance width="2048"/>
  <unicode hex="007E"/>
  <outline>
    <contour>
      <point x="1156.8" y="766" type="line"/>
      <point x="1138.6" y="716" type="line"/>
      <point x="1462.76" y="645" type="line"/>
      <point x="1480.96" y="695" type="line"/>
    </contour>
    <contour>
      <point x="896.419" y="710" type="line"/>
      <point x="889.309" y="652" type="line"/>
      <point x="1138.6" y="716" type="line"/>
      <point x="1156.8" y="766" type="line"/>
    </contour>
    <contour>
      <point x="1480.96" y="695" type="line"/>
      <point x="1462.76" y="645" type="line"/>
      <point x="1699.72" y="796" type="line"/>
      <point x="1702.83" y="843" type="line"/>
    </contour>
  </outline>
</glyph>
<glyph name="exclamdown" format="2">
  <advance width="2048"/>
  <unicode hex="00A1"/>
  <outline>
    <contour>
      <point x="1607.234375" y="1520.0" type="line"/>
      <point x="1547.234375" y="1520.0" type="line"/>
      <point x="1456.96972656" y="1272.0" type="line"/>
      <point x="1516.96972656" y="1272.0" type="line"/>
    </contour>
    <contour>
      <point x="1426.70898438" y="1035.0" type="line"/>
      <point x="1372.70898438" y="1035.0" type="line"/>
      <point x="1002.1875" y="17.0" type="line"/>
      <point x="1060.1875" y="17.0" type="line"/>
    </contour>
  </outline>
</glyph>
<glyph name="cent" format="2">
  <advance width="2048"/>
  <unicode hex="00A2"/>
  <outline>
    <contour>
      <point x="1546.57714844" y="1183.0" type="line"/>
      <point x="1486.57714844" y="1183.0" type="line"/>
      <point x="1024.69824219" y="-86.0" type="line"/>
      <point x="1084.69824219" y="-86.0" type="line"/>
    </contour>
    <contour>
      <point x="1049.79785156" y="1027.0" type="line"/>
      <point x="1027.59570312" y="966.0" type="line"/>
      <point x="1723.59570312" y="966.0" type="line"/>
      <point x="1745.79785156" y="1027.0" type="line"/>
    </contour>
    <contour>
      <point x="1036.14648438" y="984.0" type="line"/>
      <point x="678.0" y="0.0" type="line"/>
      <point x="743.0" y="0.0" type="line"/>
      <point x="1101.14648438" y="984.0" type="line"/>
    </contour>
    <contour>
      <point x="749.202148438" y="61.0" type="line"/>
      <point x="727.0" y="0.0" type="line"/>
      <point x="1366.0" y="0.0" type="line"/>
      <point x="1388.20214844" y="61.0" type="line"/>
    </contour>
  </outline>
</glyph>
<glyph name="sterling" format="2">
  <advance width="2048"/>
  <unicode hex="00A3"/>
  <outline>
    <contour>
      <point x="1508.60644531" y="1543.0" type="line"/>
      <point x="1486.40429688" y="1482.0" type="line"/>
      <point x="1675.40429688" y="1482.0" type="line"/>
      <point x="1697.60644531" y="1543.0" type="line"/>
    </contour>
    <contour>
      <point x="889.256835938" y="770.0" type="line"/>
      <point x="865.598632812" y="705.0" type="line"/>
      <point x="1591.59863281" y="705.0" type="line"/>
      <point x="1615.25683594" y="770.0" type="line"/>
    </contour>
    <contour>
      <point x="1484.2421875" y="1542.0" type="line"/>
      <point x="924.091796875" y="3.0" type="line"/>
      <point x="1000.09179688" y="3.0" type="line"/>
      <point x="1560.2421875" y="1542.0" type="line"/>
    </contour>
    <contour>
      <point x="739.206054688" y="72.0" type="line"/>
      <point x="714.091796875" y="3.0" type="line"/>
      <point x="1440.09179688" y="3.0" type="line"/>
      <point x="1465.20605469" y="72.0" type="line"/>
    </contour>
  </outline>
</glyph>
<glyph name="currency" format="2">
  <advance width="2048"/>
  <unicode hex="00A4"/>
  <outline>
    <contour>
      <point x="1040" y="1182" type="line"/>
      <point x="668" y="160" type="line"/>
      <point x="728" y="160" type="line"/>
      <point x="1100" y="1182" type="line"/>
    </contour>
    <contour>
      <point x="1799" y="1184" type="line"/>
      <point x="1426" y="160" type="line"/>
      <point x="1486" y="160" type="line"/>
      <point x="1859" y="1184" type="line"/>
    </contour>
    <contour>
      <point x="1104" y="1187" type="line"/>
      <point x="1082" y="1127" type="line"/>
      <point x="1782" y="1127" type="line"/>
      <point x="1804" y="1187" type="line"/>
    </contour>
    <contour>
      <point x="737" y="222" type="line"/>
      <point x="714" y="160" type="line"/>
      <point x="1434" y="160" type="line"/>
      <point x="1457" y="222" type="line"/>
    </contour>
    <contour>
      <point x="991" y="1251" type="line"/>
      <point x="950" y="1137" type="line"/>
      <point x="1094" y="1137" type="line"/>
      <point x="1135" y="1251" type="line"/>
    </contour>
    <contour>
      <point x="1824" y="1241" type="line"/>
      <point x="1782" y="1127" type="line"/>
      <point x="1924" y="1127" type="line"/>
      <point x="1966" y="1241" type="line"/>
    </contour>
    <contour>
      <point x="611" y="223" type="line"/>
      <point x="570" y="109" type="line"/>
      <point x="714" y="109" type="line"/>
      <point x="755" y="223" type="line"/>
    </contour>
    <contour>
      <point x="1454" y="220" type="line"/>
      <point x="1413" y="106" type="line"/>
      <point x="1557" y="106" type="line"/>
      <point x="1598" y="220" type="line"/>
    </contour>
  </outline>
</glyph>
<glyph name="yen" format="2">
  <advance width="2048"/>
  <unicode hex="00A5"/>
  <outline>
    <contour>
      <point x="984.952148438" y="673.0" type="line"/>
      <point x="963.841796875" y="615.0" type="line"/>
      <point x="1509.84179688" y="615.0" type="line"/>
      <point x="1530.95214844" y="673.0" type="line"/>
    </contour>
    <contour>
      <point x="899.418945312" y="438.0" type="line"/>
      <point x="878.30859375" y="380.0" type="line"/>
      <point x="1424.30859375" y="380.0" type="line"/>
      <point x="1445.41894531" y="438.0" type="line"/>
    </contour>
    <contour>
      <point x="1321.48144531" y="897.0" type="line"/>
      <point x="995.0" y="0.0" type="line"/>
      <point x="1056.0" y="0.0" type="line"/>
      <point x="1382.48144531" y="897.0" type="line"/>
    </contour>
    <contour>
      <point x="1235.06152344" y="1547.0" type="line"/>
      <point x="984.650390625" y="859.0" type="line"/>
      <point x="1043.65039062" y="859.0" type="line"/>
      <point x="1294.06152344" y="1547.0" type="line"/>
    </contour>
    <contour>
      <point x="1878.06152344" y="1547.0" type="line"/>
      <point x="1627.65039062" y="859.0" type="line"/>
      <point x="1688.65039062" y="859.0" type="line"/>
      <point x="1939.06152344" y="1547.0" type="line"/>
    </contour>
    <contour>
      <point x="1046.48828125" y="919.0" type="line"/>
      <point x="1024.28613281" y="858.0" type="line"/>
      <point x="1664.28613281" y="858.0" type="line"/>
      <point x="1686.48828125" y="919.0" type="line"/>
    </contour>
  </outline>
</glyph>
<glyph name="brokenbar" format="2">
  <advance width="2048"/>
  <unicode hex="00A6"/>
  <outline>
    <contour>
      <point x="881.162109375" y="-332.0" type="line"/>
      <point x="925.162109375" y="-332.0" type="line"/>
      <point x="1294.22753906" y="682.0" type="line"/>
      <point x="1250.22753906" y="682.0" type="line"/>
    </contour>
    <contour>
      <point x="1296.53613281" y="790.0" type="line"/>
      <point x="1333.53613281" y="790.0" type="line"/>
      <point x="1641.45507812" y="1636.0" type="line"/>
      <point x="1604.45507812" y="1636.0" type="line"/>
    </contour>
  </outline>
</glyph>
<glyph name="section" format="2">
  <advance width="2048"/>
  <unicode hex="00A7"/>
  <outline>
    <contour>
      <point x="1088.23144531" y="1237.0" type="line"/>
      <point x="1066.75683594" y="1178.0" type="line"/>
      <point x="1664.75683594" y="1178.0" type="line"/>
      <point x="1686.23144531" y="1237.0" type="line"/>
    </contour>
    <contour>
      <point x="1088.23144531" y="1237.0" type="line"/>
      <point x="858.202148438" y="605.0" type="line"/>
      <point x="921.202148438" y="605.0" type="line"/>
      <point x="1151.23144531" y="1237.0" type="line"/>
    </contour>
    <contour>
      <point x="602.206054688" y="-200.0" type="line"/>
      <point x="580.368164062" y="-260.0" type="line"/>
      <point x="1288.36816406" y="-260.0" type="line"/>
      <point x="1310.20605469" y="-200.0" type="line"/>
    </contour>
    <contour>
      <point x="1255.73144531" y="-259.0" type="line"/>
      <point x="1315.73144531" y="-259.0" type="line"/>
      <point x="1444.57714844" y="95.0" type="line"/>
      <point x="1384.57714844" y="95.0" type="line"/>
    </contour>
    <contour>
      <point x="858.56640625" y="606.0" type="line"/>
      <point x="1381.02929688" y="88.0" type="line"/>
      <point x="1442.02929688" y="88.0" type="line"/>
      <point x="916.56640625" y="606.0" type="line"/>
    </contour>
    <contour>
      <point x="1229.81542969" y="1626.0" type="line"/>
      <point x="1207.97753906" y="1566.0" type="line"/>
      <point x="1805.97753906" y="1566.0" type="line"/>
      <point x="1827.81542969" y="1626.0" type="line"/>
    </contour>
    <contour>
      <point x="1230.90722656" y="1629.0" type="line"/>
      <point x="1088.23144531" y="1237.0" type="line"/>
      <point x="1151.23144531" y="1237.0" type="line"/>
      <point x="1293.90722656" y="1629.0" type="line"/>
    </contour>
    <contour>
      <point x="698.029296875" y="88.0" type="line"/>
      <point x="680.1953125" y="39.0" type="line"/>
      <point x="1388.1953125" y="39.0" type="line"/>
      <point x="1406.02929688" y="88.0" type="line"/>
    </contour>
    <contour>
      <point x="1381.02929688" y="88.0" type="line"/>
      <point x="1442.02929688" y="88.0" type="line"/>
      <point x="1570.875" y="442.0" type="line"/>
      <point x="1509.875" y="442.0" type="line"/>
    </contour>
    <contour>
      <point x="1088.23144531" y="1237.0" type="line"/>
      <point x="1510.875" y="442.0" type="line"/>
      <point x="1570.875" y="442.0" type="line"/>
      <point x="1151.23144531" y="1237.0" type="line"/>
    </contour>
  </outline>
</glyph>
<glyph name="dieresis" format="2">
  <advance width="2048"/>
  <unicode hex="00A8"/>
  <outline>
    <contour>
      <point x="1237" y="1023" type="line"/>
      <point x="1201" y="923" type="line"/>
      <point x="1313" y="923" type="line"/>
      <point x="1349" y="1023" type="line"/>
    </contour>
    <contour>
      <point x="1479" y="1023" type="line"/>
      <point x="1443" y="923" type="line"/>
      <point x="1555" y="923" type="line"/>
      <point x="1591" y="1023" type="line"/>
    </contour>
  </outline>
</glyph>
<glyph name="copyright" format="2">
  <advance width="2048"/>
  <unicode hex="00A9"/>
  <outline>
    <contour>
      <point x="1084.51464844" y="1540.0" type="line"/>
      <point x="524.0" y="0.0" type="line"/>
      <point x="584.0" y="0.0" type="line"/>
      <point x="1144.51464844" y="1540.0" type="line"/>
    </contour>
    <contour>
      <point x="2023.421875" y="1537.0" type="line"/>
      <point x="1464.0" y="0.0" type="line"/>
      <point x="1524.0" y="0.0" type="line"/>
      <point x="2083.421875" y="1537.0" type="line"/>
    </contour>
    <contour>
      <point x="1135.78613281" y="1538.0" type="line"/>
      <point x="1113.21972656" y="1476.0" type="line"/>
      <point x="2057.21972656" y="1476.0" type="line"/>
      <point x="2079.78613281" y="1538.0" type="line"/>
    </contour>
    <contour>
      <point x="557.837890625" y="60.0" type="line"/>
      <point x="536.0" y="0.0" type="line"/>
      <point x="1506.0" y="0.0" type="line"/>
      <point x="1527.83789062" y="60.0" type="line"/>
    </contour>
    <contour>
      <point x="1205.67285156" y="1197.0" type="line"/>
      <point x="1183.10644531" y="1135.0" type="line"/>
      <point x="1617.10644531" y="1135.0" type="line"/>
      <point x="1639.67285156" y="1197.0" type="line"/>
    </contour>
    <contour>
      <point x="1190.02148438" y="1154.0" type="line"/>
      <point x="893.75" y="340.0" type="line"/>
      <point x="953.75" y="340.0" type="line"/>
      <point x="1250.02148438" y="1154.0" type="line"/>
    </contour>
    <contour>
      <point x="899.573242188" y="356.0" type="line"/>
      <point x="877.006835938" y="294.0" type="line"/>
      <point x="1317.00683594" y="294.0" type="line"/>
      <point x="1339.57324219" y="356.0" type="line"/>
    </contour>
  </outline>
</glyph>
<glyph name="ordfeminine" format="2">
  <advance width="2048"/>
  <unicode hex="00AA"/>
  <outline>
    <contour>
      <point x="1173.07714844" y="1319.0" type="line"/>
      <point x="1148.69042969" y="1252.0" type="line"/>
      <point x="1797.69042969" y="1252.0" type="line"/>
      <point x="1822.07714844" y="1319.0" type="line"/>
    </contour>
    <contour>
      <point x="1784.44042969" y="1320.0" type="line"/>
      <point x="1411.73535156" y="296.0" type="line"/>
      <point x="1488.73535156" y="296.0" type="line"/>
      <point x="1861.44042969" y="1320.0" type="line"/>
    </contour>
    <contour>
      <point x="1021.75292969" y="895.0" type="line"/>
      <point x="999.1875" y="833.0" type="line"/>
      <point x="1623.1875" y="833.0" type="line"/>
      <point x="1645.75292969" y="895.0" type="line"/>
    </contour>
    <contour>
      <point x="1014.38183594" y="872.0" type="line"/>
      <point x="804.006835938" y="294.0" type="line"/>
      <point x="875.006835938" y="294.0" type="line"/>
      <point x="1085.38183594" y="872.0" type="line"/>
    </contour>
    <contour>
      <point x="840.3046875" y="369.0" type="line"/>
      <point x="813.006835938" y="294.0" type="line"/>
      <point x="1477.00683594" y="294.0" type="line"/>
      <point x="1504.3046875" y="369.0" type="line"/>
    </contour>
    <contour>
      <point x="614.385742188" y="67.0" type="line"/>
      <point x="591.456054688" y="4.0" type="line"/>
      <point x="1459.45605469" y="4.0" type="line"/>
      <point x="1482.38574219" y="67.0" type="line"/>
    </contour>
  </outline>
</glyph>
<glyph name="guillemotleft" format="2">
  <advance width="2048"/>
  <unicode hex="00AB"/>
  <outline>
    <contour>
      <point x="795.260742188" y="509.0" type="line"/>
      <point x="781.793945312" y="472.0" type="line"/>
      <point x="1322.52539062" y="757.0" type="line"/>
      <point x="1332.35253906" y="784.0" type="line"/>
    </contour>
    <contour>
      <point x="795.260742188" y="509.0" type="line"/>
      <point x="781.793945312" y="472.0" type="line"/>
      <point x="1022.40429688" y="122.0" type="line"/>
      <point x="1044.23535156" y="160.0" type="line"/>
    </contour>
    <contour>
      <point x="1219.8125" y="527.0" type="line"/>
      <point x="1209.25683594" y="498.0" type="line"/>
      <point x="1722.98828125" y="783.0" type="line"/>
      <point x="1737.54785156" y="823.0" type="line"/>
    </contour>
    <contour>
      <point x="1218.8125" y="527.0" type="line"/>
      <point x="1207.89355469" y="497.0" type="line"/>
      <point x="1437.40429688" y="122.0" type="line"/>
      <point x="1464.23144531" y="149.0" type="line"/>
    </contour>
  </outline>
</glyph>
<glyph name="logicalnot" format="2">
  <advance width="2048"/>
  <unicode hex="00AC"/>
  <outline>
    <contour>
      <point x="1581.3125" y="935.0" type="line"/>
      <point x="1473.94140625" y="640.0" type="line"/>
      <point x="1526.94140625" y="640.0" type="line"/>
      <point x="1634.3125" y="935.0" type="line"/>
    </contour>
    <contour>
      <point x="1094.3125" y="935.0" type="line"/>
      <point x="1072.47363281" y="875.0" type="line"/>
      <point x="1606.47363281" y="875.0" type="line"/>
      <point x="1628.3125" y="935.0" type="line"/>
    </contour>
  </outline>
</glyph>
<glyph name="registered" format="2">
  <advance width="2048"/>
  <unicode hex="00AE"/>
  <outline>
    <contour>
      <point x="1284.6171875" y="1032.0" type="line"/>
      <point x="1091.34863281" y="501.0" type="line"/>
      <point x="1128.34863281" y="501.0" type="line"/>
      <point x="1321.6171875" y="1032.0" type="line"/>
    </contour>
    <contour>
      <point x="1309.6171875" y="1032.0" type="line"/>
      <point x="1295.78613281" y="994.0" type="line"/>
      <point x="1524.78613281" y="994.0" type="line"/>
      <point x="1538.6171875" y="1032.0" type="line"/>
    </contour>
    <contour>
      <point x="1509.6171875" y="1032.0" type="line"/>
      <point x="1425.90429688" y="802.0" type="line"/>
      <point x="1463.90429688" y="802.0" type="line"/>
      <point x="1547.6171875" y="1032.0" type="line"/>
    </contour>
    <contour>
      <point x="1238.64648438" y="848.0" type="line"/>
      <point x="1221.54003906" y="801.0" type="line"/>
      <point x="1459.54003906" y="801.0" type="line"/>
      <point x="1476.64648438" y="848.0" type="line"/>
    </contour>
    <contour>
      <point x="1271.45214844" y="809.0" type="line"/>
      <point x="1357.98535156" y="500.0" type="line"/>
      <point x="1400.98535156" y="500.0" type="line"/>
      <point x="1306.45214844" y="809.0" type="line"/>
    </contour>
    <contour>
      <point x="1113.51464844" y="1540.0" type="line"/>
      <point x="553.0" y="0.0" type="line"/>
      <point x="615.0" y="0.0" type="line"/>
      <point x="1175.51464844" y="1540.0" type="line"/>
    </contour>
    <contour>
      <point x="1992.421875" y="1537.0" type="line"/>
      <point x="1433.0" y="0.0" type="line"/>
      <point x="1495.0" y="0.0" type="line"/>
      <point x="2054.421875" y="1537.0" type="line"/>
    </contour>
    <contour>
      <point x="1151.78613281" y="1538.0" type="line"/>
      <point x="1129.94824219" y="1478.0" type="line"/>
      <point x="2001.94824219" y="1478.0" type="line"/>
      <point x="2023.78613281" y="1538.0" type="line"/>
    </contour>
    <contour>
      <point x="610.202148438" y="61.0" type="line"/>
      <point x="588.0" y="0.0" type="line"/>
      <point x="1480.0" y="0.0" type="line"/>
      <point x="1502.20214844" y="61.0" type="line"/>
    </contour>
  </outline>
</glyph>
<glyph name="macron" format="2">
  <advance width="2048"/>
  <unicode hex="00AF"/>
  <outline>
    <contour>
      <point x="1107.89" y="1019" type="line"/>
      <point x="1092.6" y="977" type="line"/>
      <point x="1652.6" y="977" type="line"/>
      <point x="1667.89" y="1019" type="line"/>
    </contour>
  </outline>
</glyph>
<glyph name="degree" format="2">
  <advance width="2048"/>
  <unicode hex="00B0"/>
  <outline>
    <contour>
      <point x="1427" y="1439" type="line"/>
      <point x="1677" y="1439" type="line"/>
      <point x="1601" y="1231" type="line"/>
      <point x="1351" y="1231" type="line"/>
    </contour>
    <contour>
      <point x="1386" y="1488" type="line"/>
      <point x="1273" y="1179" type="line"/>
      <point x="1633" y="1179" type="line"/>
      <point x="1746" y="1488" type="line"/>
    </contour>
  </outline>
</glyph>
<glyph name="plusminus" format="2">
  <advance width="2048"/>
  <unicode hex="00B1"/>
  <outline>
    <contour>
      <point x="651" y="110" type="line"/>
      <point x="628" y="48" type="line"/>
      <point x="1454" y="48" type="line"/>
      <point x="1477" y="110" type="line"/>
    </contour>
    <contour>
      <point x="1422" y="1221" type="line"/>
      <point x="1061" y="228" type="line"/>
      <point x="1122" y="228" type="line"/>
      <point x="1483" y="1221" type="line"/>
    </contour>
    <contour>
      <point x="844" y="744" type="line"/>
      <point x="823" y="686" type="line"/>
      <point x="1725" y="686" type="line"/>
      <point x="1746" y="744" type="line"/>
    </contour>
  </outline>
</glyph>
<glyph name="uni00B2" format="2">
  <advance width="2048"/>
  <unicode hex="00B2"/>
  <outline>
    <contour>
      <point x="1224.87109375" y="1519.0" type="line"/>
      <point x="2062.87109375" y="1519.0" type="line"/>
      <point x="1974.79003906" y="1277.0" type="line"/>
      <point x="1139.79003906" y="1277.0" type="line"/>
      <point x="1000.75292969" y="895.0" type="line"/>
      <point x="1856.75292969" y="895.0" type="line"/>
      <point x="1865.85253906" y="920.0" type="line"/>
      <point x="1037.85253906" y="920.0" type="line"/>
      <point x="1158.69042969" y="1252.0" type="line"/>
      <point x="1993.69042969" y="1252.0" type="line"/>
      <point x="2099.96972656" y="1544.0" type="line"/>
      <point x="1233.96972656" y="1544.0" type="line"/>
    </contour>
  </outline>
</glyph>
<glyph name="uni00B3" format="2">
  <advance width="2048"/>
  <unicode hex="00B3"/>
  <outline>
    <contour>
      <point x="838" y="1154" type="line"/>
      <point x="1752" y="1154" type="line"/>
      <point x="1627" y="812" type="line"/>
      <point x="693" y="812" type="line"/>
      <point x="687" y="782" type="line"/>
      <point x="1646" y="782" type="line"/>
      <point x="1930" y="1560" type="line"/>
      <point x="981" y="1560" type="line"/>
      <point x="970" y="1532" type="line"/>
      <point x="1888" y="1532" type="line"/>
      <point x="1761" y="1184" type="line"/>
      <point x="849" y="1184" type="line"/>
    </contour>
  </outline>
</glyph>
<glyph name="acute" format="2">
  <advance width="2048"/>
  <unicode hex="00B4"/>
  <outline>
    <contour>
      <point x="1088.33789062" y="1556.0" type="line"/>
      <point x="865.889648438" y="1302.0" type="line"/>
      <point x="937.146484375" y="1256.0" type="line"/>
      <point x="1160.95898438" y="1511.0" type="line"/>
    </contour>
  </outline>
</glyph>
<glyph name="mu" format="2">
  <advance width="2048"/>
  <unicode hex="00B5"/>
  <outline>
    <contour>
      <point x="1878.31" y="935.0" type="line"/>
      <point x="1538.0" y="0.0" type="line"/>
      <point x="1663.0" y="0.0" type="line"/>
      <point x="2003.31" y="935.0" type="line"/>
    </contour>
    <contour>
      <point x="451.838" y="60.0" type="line"/>
      <point x="430.0" y="0.0" type="line"/>
      <point x="1600.0" y="0.0" type="line"/>
      <point x="1621.84" y="60.0" type="line"/>
    </contour>
    <contour>
      <point x="673.312" y="935.0" type="line"/>
      <point x="176.493" y="-430.0" type="line"/>
      <point x="305.493" y="-430.0" type="line"/>
      <point x="802.312" y="935.0" type="line"/>
    </contour>
  </outline>
</glyph>
<glyph name="paragraph" format="2">
  <advance width="2048"/>
  <unicode hex="00B6"/>
  <outline>
    <contour>
      <point x="981.985351562" y="1044.0" type="line"/>
      <point x="960.510742188" y="985.0" type="line"/>
      <point x="1524.51074219" y="985.0" type="line"/>
      <point x="1545.98535156" y="1044.0" type="line"/>
    </contour>
    <contour>
      <point x="1166.15429688" y="1550.0" type="line"/>
      <point x="965.970703125" y="1000.0" type="line"/>
      <point x="1027.97070312" y="1000.0" type="line"/>
      <point x="1228.15429688" y="1550.0" type="line"/>
    </contour>
    <contour>
      <point x="1166.15429688" y="1550.0" type="line"/>
      <point x="1145.40722656" y="1493.0" type="line"/>
      <point x="1965.40722656" y="1493.0" type="line"/>
      <point x="1986.15429688" y="1550.0" type="line"/>
    </contour>
    <contour>
      <point x="1716.15429688" y="1550.0" type="line"/>
      <point x="1152.0" y="0.0" type="line"/>
      <point x="1216.0" y="0.0" type="line"/>
      <point x="1780.15429688" y="1550.0" type="line"/>
    </contour>
    <contour>
      <point x="1948.15429688" y="1550.0" type="line"/>
      <point x="1384.0" y="0.0" type="line"/>
      <point x="1446.0" y="0.0" type="line"/>
      <point x="2010.15429688" y="1550.0" type="line"/>
    </contour>
  </outline>
</glyph>
<glyph name="periodcentered" format="2">
  <advance width="0"/>
  <unicode hex="00B7"/>
  <outline>
    <contour>
      <point x="336" y="1056" type="line"/>
      <point x="300" y="955" type="line"/>
      <point x="396" y="955" type="line"/>
      <point x="432" y="1056" type="line"/>
    </contour>
  </outline>
</glyph>
<glyph name="cedilla" format="2">
  <advance width="2048"/>
  <unicode hex="00B8"/>
  <outline>
    <contour>
      <point x="873.0625" y="187.0" type="line"/>
      <point x="785.709960938" y="-53.0" type="line"/>
      <point x="843.709960938" y="-53.0" type="line"/>
      <point x="931.0625" y="187.0" type="line"/>
    </contour>
    <contour>
      <point x="687.25" y="-340.0" type="line"/>
      <point x="665.047851562" y="-401.0" type="line"/>
      <point x="1111.04785156" y="-401.0" type="line"/>
      <point x="1133.25" y="-340.0" type="line"/>
    </contour>
    <contour>
      <point x="1200.54785156" y="7.0" type="line"/>
      <point x="1065.15039062" y="-365.0" type="line"/>
      <point x="1124.15039062" y="-365.0" type="line"/>
      <point x="1259.54785156" y="7.0" type="line"/>
    </contour>
    <contour>
      <point x="813.547851562" y="7.0" type="line"/>
      <point x="791.709960938" y="-53.0" type="line"/>
      <point x="1237.70996094" y="-53.0" type="line"/>
      <point x="1259.54785156" y="7.0" type="line"/>
    </contour>
  </outline>
</glyph>
<glyph name="uni00B9" format="2">
  <advance width="2048"/>
  <unicode hex="00B9"/>
  <outline>
    <contour>
      <point x="1362" y="888" type="line"/>
      <point x="1392" y="888" type="line"/>
      <point x="1674" y="1662" type="line"/>
      <point x="1644" y="1662" type="line"/>
    </contour>
    <contour>
      <point x="1644" y="1662" type="line"/>
      <point x="1562" y="1600" type="line"/>
      <point x="1582" y="1586" type="line"/>
      <point x="1674" y="1662" type="line"/>
    </contour>
  </outline>
</glyph>
<glyph name="ordmasculine" format="2">
  <advance width="2048"/>
  <unicode hex="00BA"/>
  <outline>
    <contour>
      <point x="992.341796875" y="1023.0" type="line"/>
      <point x="620.0" y="0.0" type="line"/>
      <point x="679.0" y="0.0" type="line"/>
      <point x="1051.34179688" y="1023.0" type="line"/>
    </contour>
    <contour>
      <point x="1749.34179688" y="1023.0" type="line"/>
      <point x="1377.0" y="0.0" type="line"/>
      <point x="1438.0" y="0.0" type="line"/>
      <point x="1810.34179688" y="1023.0" type="line"/>
    </contour>
    <contour>
      <point x="1054.79785156" y="1027.0" type="line"/>
      <point x="1032.95898438" y="967.0" type="line"/>
      <point x="1733.95898438" y="967.0" type="line"/>
      <point x="1755.79785156" y="1027.0" type="line"/>
    </contour>
    <contour>
      <point x="688.56640625" y="62.0" type="line"/>
      <point x="666.0" y="0.0" type="line"/>
      <point x="1385.0" y="0.0" type="line"/>
      <point x="1407.56640625" y="62.0" type="line"/>
    </contour>
    <contour>
      <point x="486.522460938" y="-70.0" type="line"/>
      <point x="462.5" y="-136.0" type="line"/>
      <point x="1486.5" y="-136.0" type="line"/>
      <point x="1510.52246094" y="-70.0" type="line"/>
    </contour>
  </outline>
</glyph>
<glyph name="guillemotright" format="2">
  <advance width="2048"/>
  <unicode hex="00BB"/>
  <outline>
    <contour>
      <point x="1623.26" y="509.0" type="line"/>
      <point x="1286.35" y="784.0" type="line"/>
      <point x="1276.53" y="757.0" type="line"/>
      <point x="1608.79" y="472.0" type="line"/>
    </contour>
    <contour>
      <point x="1623.26" y="509.0" type="line"/>
      <point x="1120.24" y="160.0" type="line"/>
      <point x="1114.4" y="122.0" type="line"/>
      <point x="1608.79" y="472.0" type="line"/>
    </contour>
    <contour>
      <point x="1211.81" y="527.0" type="line"/>
      <point x="909.548" y="823.0" type="line"/>
      <point x="894.988" y="783.0" type="line"/>
      <point x="1202.26" y="498.0" type="line"/>
    </contour>
    <contour>
      <point x="1212.81" y="527.0" type="line"/>
      <point x="692.231" y="149.0" type="line"/>
      <point x="699.404" y="122.0" type="line"/>
      <point x="1201.89" y="497.0" type="line"/>
    </contour>
  </outline>
</glyph>
<glyph name="onequarter" format="2">
  <advance width="2048"/>
  <unicode hex="00BC"/>
  <outline>
    <contour>
      <point x="2100.67578125" y="1480.0" type="line"/>
      <point x="82.6396484375" y="10.0" type="line"/>
      <point x="185.639648438" y="10.0" type="line"/>
      <point x="2203.67578125" y="1480.0" type="line"/>
    </contour>
    <contour>
      <point x="766.348632812" y="1045.0" type="line"/>
      <point x="800.348632812" y="1045.0" type="line"/>
      <point x="984.154296875" y="1550.0" type="line"/>
      <point x="950.154296875" y="1550.0" type="line"/>
    </contour>
    <contour>
      <point x="950.154296875" y="1550.0" type="line"/>
      <point x="805.940429688" y="1456.0" type="line"/>
      <point x="807.844726562" y="1442.0" type="line"/>
      <point x="983.154296875" y="1550.0" type="line"/>
    </contour>
    <contour>
      <point x="1601.94433594" y="379.0" type="line"/>
      <point x="1940.94433594" y="379.0" type="line"/>
      <point x="1805.54785156" y="7.0" type="line"/>
      <point x="1830.54785156" y="7.0" type="line"/>
      <point x="2107.52929688" y="768.0" type="line"/>
      <point x="2081.52929688" y="768.0" type="line"/>
      <point x="1950.86425781" y="409.0" type="line"/>
      <point x="1638.86425781" y="409.0" type="line"/>
      <point x="1770.25683594" y="770.0" type="line"/>
      <point x="1744.25683594" y="770.0" type="line"/>
    </contour>
  </outline>
</glyph>
<glyph name="onehalf" format="2">
  <advance width="2048"/>
  <unicode hex="00BD"/>
  <outline>
    <contour>
      <point x="1932" y="1480" type="line"/>
      <point x="101" y="10" type="line"/>
      <point x="204" y="10" type="line"/>
      <point x="2035" y="1480" type="line"/>
    </contour>
    <contour>
      <point x="667" y="1017" type="line"/>
      <point x="731" y="1017" type="line"/>
      <point x="925" y="1550" type="line"/>
      <point x="861" y="1550" type="line"/>
    </contour>
    <contour>
      <point x="861" y="1550" type="line"/>
      <point x="719" y="1508" type="line"/>
      <point x="769" y="1498" type="line"/>
      <point x="925" y="1550" type="line"/>
    </contour>
    <contour>
      <point x="1541" y="623" type="line"/>
      <point x="1831" y="623" type="line"/>
      <point x="1743" y="381" type="line"/>
      <point x="1456" y="381" type="line"/>
      <point x="1317" y="0" type="line"/>
      <point x="1622" y="0" type="line"/>
      <point x="1631" y="25" type="line"/>
      <point x="1349" y="25" type="line"/>
      <point x="1470" y="356" type="line"/>
      <point x="1757" y="356" type="line"/>
      <point x="1863" y="648" type="line"/>
      <point x="1550" y="648" type="line"/>
    </contour>
  </outline>
</glyph>
<glyph name="threequarters" format="2">
  <advance width="2048"/>
  <unicode hex="00BE"/>
  <outline>
    <contour>
      <point x="1913.77" y="1483" type="line"/>
      <point x="212.184" y="6" type="line"/>
      <point x="235.614" y="-67" type="line"/>
      <point x="1936.2" y="1410" type="line"/>
    </contour>
    <contour>
      <point x="558.97" y="1272" type="line"/>
      <point x="1125.97" y="1272" type="line"/>
      <point x="1057.54" y="1084" type="line"/>
      <point x="453.544" y="1084" type="line"/>
      <point x="436.43" y="1015" type="line"/>
      <point x="1100.43" y="1015" type="line"/>
      <point x="1296.25" y="1553" type="line"/>
      <point x="651.246" y="1553" type="line"/>
      <point x="626.132" y="1484" type="line"/>
      <point x="1201.13" y="1484" type="line"/>
      <point x="1148.72" y="1340" type="line"/>
      <point x="583.72" y="1340" type="line"/>
    </contour>
    <contour>
      <point x="1374.75" y="340" type="line"/>
      <point x="2002.75" y="340" type="line"/>
      <point x="1881.55" y="7" type="line"/>
      <point x="1959.55" y="7" type="line"/>
      <point x="2207.05" y="687" type="line"/>
      <point x="2127.05" y="687" type="line"/>
      <point x="2032.78" y="428" type="line"/>
      <point x="1493.78" y="428" type="line"/>
      <point x="1588.78" y="689" type="line"/>
      <point x="1501.78" y="689" type="line"/>
    </contour>
  </outline>
</glyph>
<glyph name="questiondown" format="2">
  <advance width="2048"/>
  <unicode hex="00BF"/>
  <outline>
    <contour>
      <point x="1631.33398438" y="1273.0" type="line"/>
      <point x="1720.87109375" y="1519.0" type="line"/>
      <point x="1662.87109375" y="1519.0" type="line"/>
      <point x="1572.96972656" y="1272.0" type="line"/>
    </contour>
    <contour>
      <point x="1344.0" y="0.0" type="line"/>
      <point x="1366.20214844" y="61.0" type="line"/>
      <point x="730.202148438" y="61.0" type="line"/>
      <point x="708.0" y="0.0" type="line"/>
    </contour>
    <contour>
      <point x="765.8203125" y="5.0" type="line"/>
      <point x="965.275390625" y="553.0" type="line"/>
      <point x="905.275390625" y="553.0" type="line"/>
      <point x="705.8203125" y="5.0" type="line"/>
    </contour>
    <contour>
      <point x="1351.44140625" y="504.0" type="line"/>
      <point x="1374.00683594" y="566.0" type="line"/>
      <point x="910.006835938" y="566.0" type="line"/>
      <point x="887.44140625" y="504.0" type="line"/>
    </contour>
    <contour>
      <point x="1352.89648438" y="508.0" type="line"/>
      <point x="1578.19433594" y="1127.0" type="line"/>
      <point x="1520.19433594" y="1127.0" type="line"/>
      <point x="1294.89648438" y="508.0" type="line"/>
    </contour>
  </outline>
</glyph>
<glyph name="AE" format="2">
  <advance width="2048"/>
  <unicode hex="00C6"/>
  <outline>
    <contour>
      <point x="1062.56640625" y="62.0" type="line"/>
      <point x="1040.0" y="0.0" type="line"/>
      <point x="1972.0" y="0.0" type="line"/>
      <point x="1994.56640625" y="62.0" type="line"/>
    </contour>
    <contour>
      <point x="76.0" y="0.0" type="line"/>
      <point x="138.0" y="0.0" type="line"/>
      <point x="702.154296875" y="1550.0" type="line"/>
      <point x="640.154296875" y="1550.0" type="line"/>
    </contour>
    <contour>
      <point x="661.952148438" y="1489.0" type="line"/>
      <point x="2491.95214844" y="1489.0" type="line"/>
      <point x="2514.15429688" y="1550.0" type="line"/>
      <point x="684.154296875" y="1550.0" type="line"/>
    </contour>
    <contour>
      <point x="496.341796875" y="1023.0" type="line"/>
      <point x="474.8671875" y="964.0" type="line"/>
      <point x="2248.8671875" y="964.0" type="line"/>
      <point x="2270.34179688" y="1023.0" type="line"/>
    </contour>
    <contour>
      <point x="1014.0" y="0.0" type="line"/>
      <point x="1074.0" y="0.0" type="line"/>
      <point x="1638.15429688" y="1550.0" type="line"/>
      <point x="1578.15429688" y="1550.0" type="line"/>
    </contour>
  </outline>
</glyph>
<glyph name="Eth" format="2">
  <advance width="2048"/>
  <unicode hex="00D0"/>
  <anchor x="2068" y="1648" name="top"/>
  <anchor x="852" y="-48" name="base"/>
  <outline>
    <contour>
      <point x="736" y="935" type="line"/>
      <point x="690" y="873" type="line"/>
      <point x="997" y="873" type="line"/>
      <point x="1043" y="935" type="line"/>
    </contour>
    <contour>
      <point x="1292" y="1553" type="line"/>
      <point x="162" y="0" type="line"/>
      <point x="223" y="0" type="line"/>
      <point x="1353" y="1553" type="line"/>
    </contour>
    <contour>
      <point x="2642" y="1553" type="line"/>
      <point x="2592" y="1484" type="line"/>
      <point x="2695" y="964" type="line"/>
      <point x="2738" y="1023" type="line"/>
    </contour>
    <contour>
      <point x="1564" y="60" type="line"/>
      <point x="1520" y="0" type="line"/>
      <point x="2695" y="964" type="line"/>
      <point x="2738" y="1023" type="line"/>
    </contour>
    <contour>
      <point x="1332" y="1553" type="line"/>
      <point x="1282" y="1484" type="line"/>
      <point x="2592" y="1484" type="line"/>
      <point x="2642" y="1553" type="line"/>
    </contour>
    <contour>
      <point x="254" y="60" type="line"/>
      <point x="210" y="0" type="line"/>
      <point x="1520" y="0" type="line"/>
      <point x="1564" y="60" type="line"/>
    </contour>
  </outline>
</glyph>
<glyph name="multiply" format="2">
  <advance width="2048"/>
  <unicode hex="00D7"/>
  <outline>
    <contour>
      <point x="199.371" y="295" type="line"/>
      <point x="295.371" y="295" type="line"/>
      <point x="2429.53" y="1323" type="line"/>
      <point x="2347.53" y="1323" type="line"/>
    </contour>
    <contour>
      <point x="571.169" y="1322" type="line"/>
      <point x="1974.82" y="288" type="line"/>
      <point x="2062.82" y="288" type="line"/>
      <point x="655.169" y="1322" type="line"/>
    </contour>
  </outline>
</glyph>
<glyph name="Oslash" format="2">
  <advance width="2048"/>
  <unicode hex="00D8"/>
  <outline>
    <contour>
      <point x="2516.27148438" y="1630.0" type="line"/>
      <point x="51.529296875" y="-48.0" type="line"/>
      <point x="81.7021484375" y="-75.0" type="line"/>
      <point x="2556.984375" y="1588.0" type="line"/>
    </contour>
    <contour>
      <point x="667.514648438" y="1540.0" type="line"/>
      <point x="107.0" y="0.0" type="line"/>
      <point x="167.0" y="0.0" type="line"/>
      <point x="727.514648438" y="1540.0" type="line"/>
    </contour>
    <contour>
      <point x="2431.421875" y="1537.0" type="line"/>
      <point x="1872.0" y="0.0" type="line"/>
      <point x="1931.0" y="0.0" type="line"/>
      <point x="2490.421875" y="1537.0" type="line"/>
    </contour>
    <contour>
      <point x="696.786132812" y="1538.0" type="line"/>
      <point x="674.948242188" y="1478.0" type="line"/>
      <point x="2438.94824219" y="1478.0" type="line"/>
      <point x="2460.78613281" y="1538.0" type="line"/>
    </contour>
    <contour>
      <point x="174.297851562" y="75.0" type="line"/>
      <point x="147.0" y="0.0" type="line"/>
      <point x="1872.0" y="0.0" type="line"/>
      <point x="1899.29785156" y="75.0" type="line"/>
    </contour>
  </outline>
</glyph>
<glyph name="Thorn" format="2">
  <advance width="2048"/>
  <unicode hex="00DE"/>
  <outline>
    <contour>
      <point x="1207.24" y="1542" type="line"/>
      <point x="649.275" y="9" type="line"/>
      <point x="709.275" y="9" type="line"/>
      <point x="1267.24" y="1542" type="line"/>
    </contour>
    <contour>
      <point x="1145.32" y="1240" type="line"/>
      <point x="1126.03" y="1187" type="line"/>
      <point x="1814.03" y="1187" type="line"/>
      <point x="1833.32" y="1240" type="line"/>
    </contour>
    <contour>
      <point x="1794.05" y="1242" type="line"/>
      <point x="1535.27" y="531" type="line"/>
      <point x="1595.27" y="531" type="line"/>
      <point x="1854.05" y="1242" type="line"/>
    </contour>
    <contour>
      <point x="912" y="544" type="line"/>
      <point x="890.161" y="484" type="line"/>
      <point x="1576.16" y="484" type="line"/>
      <point x="1598" y="544" type="line"/>
    </contour>
  </outline>
</glyph>
<glyph name="germandbls" format="2">
  <advance width="2048"/>
  <unicode hex="00DF"/>
  <outline>
    <contour>
      <point x="983" y="1084" type="line"/>
      <point x="960" y="1023" type="line"/>
      <point x="1211" y="1023" type="line"/>
      <point x="1234" y="1084" type="line"/>
    </contour>
    <contour>
      <point x="1336" y="1547" type="line"/>
      <point x="772" y="-4" type="line"/>
      <point x="836" y="-4" type="line"/>
      <point x="1400" y="1547" type="line"/>
    </contour>
    <contour>
      <point x="1389" y="1550" type="line"/>
      <point x="1367" y="1488" type="line"/>
      <point x="1974" y="1488" type="line"/>
      <point x="1996" y="1550" type="line"/>
    </contour>
    <contour>
      <point x="1962" y="1550" type="line"/>
      <point x="1770" y="1023" type="line"/>
      <point x="1831" y="1023" type="line"/>
      <point x="2023" y="1550" type="line"/>
    </contour>
    <contour>
      <point x="1789" y="1062" type="line"/>
      <point x="1551" y="1062" type="line"/>
      <point x="1465" y="826" type="line"/>
      <point x="1703" y="826" type="line"/>
    </contour>
    <contour>
      <point x="1709" y="848" type="line"/>
      <point x="1464" y="175" type="line"/>
      <point x="1522" y="175" type="line"/>
      <point x="1767" y="848" type="line"/>
    </contour>
    <contour>
      <point x="1185" y="187" type="line"/>
      <point x="1165" y="131" type="line"/>
      <point x="1508" y="131" type="line"/>
      <point x="1528" y="187" type="line"/>
    </contour>
  </outline>
</glyph>
<glyph name="ae" format="2">
  <advance width="2048"/>
  <unicode hex="00E6"/>
  <anchor x="1460" y="1160" name="top"/>
  <anchor x="1004" y="-168" name="base"/>
  <outline>
    <contour>
      <point x="476.342" y="1023" type="line"/>
      <point x="453.775" y="961" type="line"/>
      <point x="2243.78" y="961" type="line"/>
      <point x="2266.34" y="1023" type="line"/>
    </contour>
    <contour>
      <point x="1396.34" y="1023" type="line"/>
      <point x="1024" y="0" type="line"/>
      <point x="1084" y="0" type="line"/>
      <point x="1456.34" y="1023" type="line"/>
    </contour>
    <contour>
      <point x="346.019" y="599" type="line"/>
      <point x="323.816" y="538" type="line"/>
      <point x="2063.82" y="538" type="line"/>
      <point x="2086.02" y="599" type="line"/>
    </contour>
    <contour>
      <point x="337.283" y="575" type="line"/>
      <point x="128" y="0" type="line"/>
      <point x="188" y="0" type="line"/>
      <point x="397.283" y="575" type="line"/>
    </contour>
    <contour>
      <point x="148.202" y="61" type="line"/>
      <point x="126" y="0" type="line"/>
      <point x="1946" y="0" type="line"/>
      <point x="1968.2" y="61" type="line"/>
    </contour>
    <contour>
      <point x="2234.34" y="1023" type="line"/>
      <point x="2057.82" y="538" type="line"/>
      <point x="2119.82" y="538" type="line"/>
      <point x="2296.34" y="1023" type="line"/>
    </contour>
  </outline>
</glyph>
<glyph name="eth" format="2">
  <advance width="2048"/>
  <unicode hex="00F0"/>
  <anchor x="1348" y="1664" name="top"/>
  <anchor x="1084" y="-112" name="base"/>
  <outline>
    <contour>
      <point x="1316.15" y="1550" type="line"/>
      <point x="1856" y="0" type="line"/>
      <point x="1904" y="0" type="line"/>
      <point x="1372.15" y="1550" type="line"/>
    </contour>
    <contour>
      <point x="556.342" y="1023" type="line"/>
      <point x="534.867" y="964" type="line"/>
      <point x="1526.87" y="964" type="line"/>
      <point x="1548.34" y="1023" type="line"/>
    </contour>
    <contour>
      <point x="516.342" y="1023" type="line"/>
      <point x="144" y="0" type="line"/>
      <point x="204" y="0" type="line"/>
      <point x="576.342" y="1023" type="line"/>
    </contour>
    <contour>
      <point x="211.475" y="59" type="line"/>
      <point x="190" y="0" type="line"/>
      <point x="1856" y="0" type="line"/>
      <point x="1877.47" y="59" type="line"/>
    </contour>
    <contour>
      <point x="1187.38" y="1416" type="line"/>
      <point x="1163.72" y="1351" type="line"/>
      <point x="1507.72" y="1351" type="line"/>
      <point x="1531.38" y="1416" type="line"/>
    </contour>
  </outline>
</glyph>
<glyph name="divide" format="2">
  <advance width="2048"/>
  <unicode hex="00F7"/>
  <outline>
    <contour>
      <point x="1131.91210938" y="280.0" type="line"/>
      <point x="1097.33496094" y="185.0" type="line"/>
      <point x="1249.33496094" y="185.0" type="line"/>
      <point x="1283.91210938" y="280.0" type="line"/>
    </contour>
    <contour>
      <point x="1431.19433594" y="1127.0" type="line"/>
      <point x="1396.25292969" y="1031.0" type="line"/>
      <point x="1533.25292969" y="1031.0" type="line"/>
      <point x="1568.19433594" y="1127.0" type="line"/>
    </contour>
    <contour>
      <point x="351.948242188" y="662.0" type="line"/>
      <point x="329.381835938" y="600.0" type="line"/>
      <point x="2155.38183594" y="600.0" type="line"/>
      <point x="2177.94824219" y="662.0" type="line"/>
    </contour>
  </outline>
</glyph>
<glyph name="oslash" format="2">
  <advance width="2048"/>
  <unicode hex="00F8"/>
  <outline>
    <contour>
      <point x="2337.46679688" y="1125.0" type="line"/>
      <point x="64.8974609375" y="-36.0" type="line"/>
      <point x="92.5224609375" y="-70.0" type="line"/>
      <point x="2360.54003906" y="1073.0" type="line"/>
    </contour>
    <contour>
      <point x="484.341796875" y="1023.0" type="line"/>
      <point x="112.0" y="0.0" type="line"/>
      <point x="172.0" y="0.0" type="line"/>
      <point x="544.341796875" y="1023.0" type="line"/>
    </contour>
    <contour>
      <point x="2240.34179688" y="1023.0" type="line"/>
      <point x="1868.0" y="0.0" type="line"/>
      <point x="1928.0" y="0.0" type="line"/>
      <point x="2300.34179688" y="1023.0" type="line"/>
    </contour>
    <contour>
      <point x="526.341796875" y="1023.0" type="line"/>
      <point x="504.502929688" y="963.0" type="line"/>
      <point x="2250.50292969" y="963.0" type="line"/>
      <point x="2272.34179688" y="1023.0" type="line"/>
    </contour>
    <contour>
      <point x="178.9296875" y="63.0" type="line"/>
      <point x="156.0" y="0.0" type="line"/>
      <point x="1904.0" y="0.0" type="line"/>
      <point x="1926.9296875" y="63.0" type="line"/>
    </contour>
  </outline>
</glyph>
<glyph name="thorn" format="2">
  <advance width="2048"/>
  <unicode hex="00FE"/>
  <outline>
    <contour>
      <point x="530.345703125" y="1034.0" type="line"/>
      <point x="6.228515625" y="-406.0" type="line"/>
      <point x="64.228515625" y="-406.0" type="line"/>
      <point x="588.345703125" y="1034.0" type="line"/>
    </contour>
    <contour>
      <point x="448.768554688" y="667.0" type="line"/>
      <point x="426.202148438" y="605.0" type="line"/>
      <point x="2114.20214844" y="605.0" type="line"/>
      <point x="2136.76855469" y="667.0" type="line"/>
    </contour>
    <contour>
      <point x="142.864257812" y="-135.0" type="line"/>
      <point x="121.025390625" y="-195.0" type="line"/>
      <point x="1823.02539062" y="-195.0" type="line"/>
      <point x="1844.86425781" y="-135.0" type="line"/>
    </contour>
    <contour>
      <point x="2069.125" y="646.0" type="line"/>
      <point x="1772.125" y="-170.0" type="line"/>
      <point x="1832.125" y="-170.0" type="line"/>
      <point x="2129.125" y="646.0" type="line"/>
    </contour>
  </outline>
</glyph>
<glyph name="dcaron" format="2">
  <advance width="2048"/>
  <unicode hex="010F"/>
  <outline>
    <contour>
      <point x="2325.78" y="1527.0" type="line"/>
      <point x="1770.0" y="0.0" type="line"/>
      <point x="1830.0" y="0.0" type="line"/>
      <point x="2385.78" y="1527.0" type="line"/>
    </contour>
    <contour>
      <point x="486.342" y="1023.0" type="line"/>
      <point x="464.14" y="962.0" type="line"/>
      <point x="2140.14" y="962.0" type="line"/>
      <point x="2162.34" y="1023.0" type="line"/>
    </contour>
    <contour>
      <point x="442.342" y="1023.0" type="line"/>
      <point x="70.0" y="0.0" type="line"/>
      <point x="128.0" y="0.0" type="line"/>
      <point x="500.342" y="1023.0" type="line"/>
    </contour>
    <contour>
      <point x="107.838" y="60.0" type="line"/>
      <point x="86.0" y="0.0" type="line"/>
      <point x="1782.0" y="0.0" type="line"/>
      <point x="1803.84" y="60.0" type="line"/>
    </contour>
    <contour>
      <point x="2472.5" y="1496.0" type="line"/>
      <point x="2388.06" y="1264.0" type="line"/>
      <point x="2438.06" y="1264.0" type="line"/>
      <point x="2522.5" y="1496.0" type="line"/>
    </contour>
  </outline>
</glyph>
<glyph name="Dcroat" format="2">
  <advance width="2048"/>
  <unicode hex="0110"/>
  <anchor x="1379" y="1652" name="top"/>
  <anchor x="1021" y="-145" name="base"/>
  <outline>
    <contour>
      <point x="396" y="935" type="line"/>
      <point x="375" y="876" type="line"/>
      <point x="787" y="876" type="line"/>
      <point x="808" y="935" type="line"/>
    </contour>
    <contour>
      <point x="726" y="1550" type="line"/>
      <point x="162" y="0" type="line"/>
      <point x="224" y="0" type="line"/>
      <point x="788" y="1550" type="line"/>
    </contour>
    <contour>
      <point x="2076" y="1550" type="line"/>
      <point x="2054" y="1488" type="line"/>
      <point x="2322" y="906" type="line"/>
      <point x="2363" y="1019" type="line"/>
    </contour>
    <contour>
      <point x="1542" y="61" type="line"/>
      <point x="1520" y="0" type="line"/>
      <point x="2325" y="915" type="line"/>
      <point x="2364" y="1023" type="line"/>
    </contour>
    <contour>
      <point x="772" y="1550" type="line"/>
      <point x="750" y="1488" type="line"/>
      <point x="2054" y="1488" type="line"/>
      <point x="2076" y="1550" type="line"/>
    </contour>
    <contour>
      <point x="226" y="61" type="line"/>
      <point x="204" y="0" type="line"/>
      <point x="1520" y="0" type="line"/>
      <point x="1542" y="61" type="line"/>
    </contour>
  </outline>
</glyph>
<glyph name="dcroat" format="2">
  <advance width="2048"/>
  <unicode hex="0111"/>
  <outline>
    <contour>
      <point x="2347.78" y="1527.0" type="line"/>
      <point x="1792.0" y="0.0" type="line"/>
      <point x="1852.0" y="0.0" type="line"/>
      <point x="2407.78" y="1527.0" type="line"/>
    </contour>
    <contour>
      <point x="494.342" y="1023.0" type="line"/>
      <point x="472.14" y="962.0" type="line"/>
      <point x="2164.14" y="962.0" type="line"/>
      <point x="2186.34" y="1023.0" type="line"/>
    </contour>
    <contour>
      <point x="462.342" y="1023.0" type="line"/>
      <point x="90.0" y="0.0" type="line"/>
      <point x="150.0" y="0.0" type="line"/>
      <point x="522.342" y="1023.0" type="line"/>
    </contour>
    <contour>
      <point x="160.202" y="61.0" type="line"/>
      <point x="138.0" y="0.0" type="line"/>
      <point x="1804.0" y="0.0" type="line"/>
      <point x="1826.2" y="61.0" type="line"/>
    </contour>
    <contour>
      <point x="2108.6" y="1260.0" type="line"/>
      <point x="2087.49" y="1202.0" type="line"/>
      <point x="2395.49" y="1202.0" type="line"/>
      <point x="2416.6" y="1260.0" type="line"/>
    </contour>
  </outline>
</glyph>
<glyph name="uni0123" format="2">
  <advance width="2048"/>
  <unicode hex="0123"/>
  <outline>
    <contour>
      <point x="598.341796875" y="1023.0" type="line"/>
      <point x="226.0" y="0.0" type="line"/>
      <point x="285.0" y="0.0" type="line"/>
      <point x="657.341796875" y="1023.0" type="line"/>
    </contour>
    <contour>
      <point x="638.341796875" y="1023.0" type="line"/>
      <point x="616.8671875" y="964.0" type="line"/>
      <point x="2156.8671875" y="964.0" type="line"/>
      <point x="2178.34179688" y="1023.0" type="line"/>
    </contour>
    <contour>
      <point x="2139.34179688" y="1023.0" type="line"/>
      <point x="1617.40820312" y="-411.0" type="line"/>
      <point x="1678.40820312" y="-411.0" type="line"/>
      <point x="2200.34179688" y="1023.0" type="line"/>
    </contour>
    <contour>
      <point x="311.202148438" y="61.0" type="line"/>
      <point x="289.0" y="0.0" type="line"/>
      <point x="1770.0" y="0.0" type="line"/>
      <point x="1792.20214844" y="61.0" type="line"/>
    </contour>
    <contour>
      <point x="91.154296875" y="-354.0" type="line"/>
      <point x="69.6806640625" y="-413.0" type="line"/>
      <point x="1628.68066406" y="-413.0" type="line"/>
      <point x="1650.15429688" y="-354.0" type="line"/>
    </contour>
    <contour>
      <point x="1564.19433594" y="1399.0" type="line"/>
      <point x="1491.03613281" y="1198.0" type="line"/>
      <point x="1552.03613281" y="1198.0" type="line"/>
      <point x="1625.19433594" y="1399.0" type="line"/>
    </contour>
  </outline>
</glyph>
<glyph name="Hbar" format="2">
  <advance width="2048"/>
  <unicode hex="0126"/>
  <outline>
    <contour>
      <point x="670.514648438" y="1540.0" type="line"/>
      <point x="110.0" y="0.0" type="line"/>
      <point x="170.0" y="0.0" type="line"/>
      <point x="730.514648438" y="1540.0" type="line"/>
    </contour>
    <contour>
      <point x="2430.51464844" y="1540.0" type="line"/>
      <point x="1870.0" y="0.0" type="line"/>
      <point x="1930.0" y="0.0" type="line"/>
      <point x="2490.51464844" y="1540.0" type="line"/>
    </contour>
    <contour>
      <point x="521.25" y="1020.0" type="line"/>
      <point x="499.047851562" y="959.0" type="line"/>
      <point x="2235.04785156" y="959.0" type="line"/>
      <point x="2257.25" y="1020.0" type="line"/>
    </contour>
    <contour>
      <point x="571.93359375" y="1434.0" type="line"/>
      <point x="550.094726562" y="1374.0" type="line"/>
      <point x="2498.09472656" y="1374.0" type="line"/>
      <point x="2519.93359375" y="1434.0" type="line"/>
    </contour>
  </outline>
</glyph>
<glyph name="hbar" format="2">
  <advance width="2048"/>
  <unicode hex="0127"/>
  <outline>
    <contour>
      <point x="802.878" y="1541.0" type="line"/>
      <point x="244.184" y="6.0" type="line"/>
      <point x="304.184" y="6.0" type="line"/>
      <point x="862.878" y="1541.0" type="line"/>
    </contour>
    <contour>
      <point x="648.342" y="1023.0" type="line"/>
      <point x="627.596" y="966.0" type="line"/>
      <point x="2285.6" y="966.0" type="line"/>
      <point x="2306.34" y="1023.0" type="line"/>
    </contour>
    <contour>
      <point x="2255.34" y="1023.0" type="line"/>
      <point x="1883.0" y="0.0" type="line"/>
      <point x="1942.0" y="0.0" type="line"/>
      <point x="2314.34" y="1023.0" type="line"/>
    </contour>
    <contour>
      <point x="626.113" y="1429.0" type="line"/>
      <point x="604.275" y="1369.0" type="line"/>
      <point x="1060.28" y="1369.0" type="line"/>
      <point x="1082.11" y="1429.0" type="line"/>
    </contour>
  </outline>
</glyph>
<glyph name="dotlessi" format="2">
  <advance width="2048"/>
  <unicode hex="0131"/>
  <anchor x="1476" y="1295" name="top"/>
  <anchor x="1182" y="-9" name="base"/>
  <outline>
    <contour>
      <point x="1394.34" y="1023" type="line"/>
      <point x="1040.93" y="52" type="line"/>
      <point x="1100.93" y="52" type="line"/>
      <point x="1454.34" y="1023" type="line"/>
    </contour>
    <contour>
      <point x="162.838" y="60" type="line"/>
      <point x="141" y="0" type="line"/>
      <point x="1907" y="0" type="line"/>
      <point x="1928.84" y="60" type="line"/>
    </contour>
    <contour>
      <point x="563.342" y="1023" type="line"/>
      <point x="541.14" y="962" type="line"/>
      <point x="1389.14" y="962" type="line"/>
      <point x="1411.34" y="1023" type="line"/>
    </contour>
  </outline>
</glyph>
<glyph name="kgreenlandic" format="2">
  <advance width="2048"/>
  <unicode hex="0138"/>
  <anchor x="1006" y="-48" name="base"/>
  <anchor x="731" y="1151" name="top"/>
  <outline>
    <contour>
      <point x="647" y="1033" type="line"/>
      <point x="90" y="5" type="line"/>
      <point x="150" y="5" type="line"/>
      <point x="707" y="1033" type="line"/>
    </contour>
    <contour>
      <point x="290" y="421" type="line"/>
      <point x="265" y="352" type="line"/>
      <point x="2166" y="1023" type="line"/>
      <point x="2106" y="1023" type="line"/>
    </contour>
    <contour>
      <point x="690" y="551" type="line"/>
      <point x="632" y="508" type="line"/>
      <point x="1899" y="0" type="line"/>
      <point x="1960" y="0" type="line"/>
    </contour>
  </outline>
</glyph>
<glyph name="Lcaron" format="2">
  <advance width="2048"/>
  <unicode hex="013D"/>
  <outline>
    <contour>
      <point x="655.2421875" y="1542.0" type="line"/>
      <point x="95.091796875" y="3.0" type="line"/>
      <point x="157.091796875" y="3.0" type="line"/>
      <point x="717.2421875" y="1542.0" type="line"/>
    </contour>
    <contour>
      <point x="144.56640625" y="62.0" type="line"/>
      <point x="123.091796875" y="3.0" type="line"/>
      <point x="1955.09179688" y="3.0" type="line"/>
      <point x="1976.56640625" y="62.0" type="line"/>
    </contour>
    <contour>
      <point x="1032.49902344" y="1496.0" type="line"/>
      <point x="948.05859375" y="1264.0" type="line"/>
      <point x="988.05859375" y="1264.0" type="line"/>
      <point x="1072.49902344" y="1496.0" type="line"/>
    </contour>
  </outline>
</glyph>
<glyph name="lcaron" format="2">
  <advance width="2048"/>
  <unicode hex="013E"/>
  <outline>
    <contour>
      <point x="218.56640625" y="62.0" type="line"/>
      <point x="196.0" y="0.0" type="line"/>
      <point x="1854.0" y="0.0" type="line"/>
      <point x="1876.56640625" y="62.0" type="line"/>
    </contour>
    <contour>
      <point x="1567.06152344" y="1547.0" type="line"/>
      <point x="1020.7421875" y="46.0" type="line"/>
      <point x="1078.7421875" y="46.0" type="line"/>
      <point x="1625.06152344" y="1547.0" type="line"/>
    </contour>
    <contour>
      <point x="758.154296875" y="1550.0" type="line"/>
      <point x="735.952148438" y="1489.0" type="line"/>
      <point x="1559.95214844" y="1489.0" type="line"/>
      <point x="1582.15429688" y="1550.0" type="line"/>
    </contour>
    <contour>
      <point x="1686.49902344" y="1496.0" type="line"/>
      <point x="1602.05859375" y="1264.0" type="line"/>
      <point x="1654.05859375" y="1264.0" type="line"/>
      <point x="1738.49902344" y="1496.0" type="line"/>
    </contour>
  </outline>
</glyph>
<glyph name="Lslash" format="2">
  <advance width="2048"/>
  <unicode hex="0141"/>
  <outline>
    <contour>
      <point x="733" y="1542" type="line"/>
      <point x="173" y="3" type="line"/>
      <point x="233" y="3" type="line"/>
      <point x="793" y="1542" type="line"/>
    </contour>
    <contour>
      <point x="219" y="64" type="line"/>
      <point x="197" y="3" type="line"/>
      <point x="2032" y="3" type="line"/>
      <point x="2054" y="64" type="line"/>
    </contour>
    <contour>
      <point x="345" y="902" type="line"/>
      <point x="412" y="866" type="line"/>
      <point x="920" y="1068" type="line"/>
      <point x="853" y="1104" type="line"/>
    </contour>
  </outline>
</glyph>
<glyph name="lslash" format="2">
  <advance width="2048"/>
  <unicode hex="0142"/>
  <outline>
    <contour>
      <point x="216.837890625" y="60.0" type="line"/>
      <point x="195.0" y="0.0" type="line"/>
      <point x="1853.0" y="0.0" type="line"/>
      <point x="1874.83789062" y="60.0" type="line"/>
    </contour>
    <contour>
      <point x="1629.24609375" y="1553.0" type="line"/>
      <point x="1072.0078125" y="22.0" type="line"/>
      <point x="1132.0078125" y="22.0" type="line"/>
      <point x="1689.24609375" y="1553.0" type="line"/>
    </contour>
    <contour>
      <point x="821.24609375" y="1553.0" type="line"/>
      <point x="799.407226562" y="1493.0" type="line"/>
      <point x="1633.40722656" y="1493.0" type="line"/>
      <point x="1655.24609375" y="1553.0" type="line"/>
    </contour>
    <contour>
      <point x="1705.16503906" y="1039.0" type="line"/>
      <point x="1003.50683594" y="702.0" type="line"/>
      <point x="1105.50683594" y="702.0" type="line"/>
      <point x="1807.16503906" y="1039.0" type="line"/>
    </contour>
  </outline>
</glyph>
<glyph name="Eng" format="2">
  <advance width="2048"/>
  <unicode hex="014A"/>
  <outline>
    <contour>
      <point x="1419.0" y="-348.0" type="line"/>
      <point x="1399.5" y="-408.0" type="line"/>
      <point x="1786.5" y="-408.0" type="line"/>
      <point x="1806.0" y="-348.0" type="line"/>
    </contour>
    <contour>
      <point x="654.315" y="1490.0" type="line"/>
      <point x="112.0" y="0.0" type="line"/>
      <point x="177.0" y="0.0" type="line"/>
      <point x="719.0" y="1490.0" type="line"/>
    </contour>
    <contour>
      <point x="2436.0" y="1550.0" type="line"/>
      <point x="1724.0" y="-408.0" type="line"/>
      <point x="1787.5" y="-408.0" type="line"/>
      <point x="2500.0" y="1550.0" type="line"/>
    </contour>
    <contour>
      <point x="676.154" y="1550.0" type="line"/>
      <point x="604.0" y="1490.0" type="line"/>
      <point x="2427.0" y="1490.0" type="line"/>
      <point x="2499.15" y="1550.0" type="line"/>
    </contour>
  </outline>
</glyph>
<glyph name="eng" format="2">
  <advance width="1024"/>
  <unicode hex="014B"/>
  <outline>
    <contour>
      <point x="379.202148438" y="-211.0" type="line"/>
      <point x="307.5" y="-408.0" type="line"/>
      <point x="694.5" y="-408.0" type="line"/>
      <point x="766.202148438" y="-211.0" type="line"/>
    </contour>
    <contour>
      <point x="604.330078125" y="990.0" type="line"/>
      <point x="244.0" y="0.0" type="line"/>
      <point x="445.0" y="0.0" type="line"/>
      <point x="805.330078125" y="990.0" type="line"/>
    </contour>
    <contour>
      <point x="998.235351562" y="976.0" type="line"/>
      <point x="494.5" y="-408.0" type="line"/>
      <point x="695.5" y="-408.0" type="line"/>
      <point x="1199.23535156" y="976.0" type="line"/>
    </contour>
    <contour>
      <point x="437.341796875" y="1023.0" type="line"/>
      <point x="365.639648438" y="826.0" type="line"/>
      <point x="1143.63964844" y="826.0" type="line"/>
      <point x="1215.34179688" y="1023.0" type="line"/>
    </contour>
  </outline>
</glyph>
<glyph name="OE" format="2">
  <advance width="2048"/>
  <unicode hex="0152"/>
  <outline>
    <contour>
      <point x="688.24609375" y="1553.0" type="line"/>
      <point x="123.0" y="0.0" type="line"/>
      <point x="182.0" y="0.0" type="line"/>
      <point x="747.24609375" y="1553.0" type="line"/>
    </contour>
    <contour>
      <point x="1664.24609375" y="1553.0" type="line"/>
      <point x="1099.0" y="0.0" type="line"/>
      <point x="1158.0" y="0.0" type="line"/>
      <point x="1723.24609375" y="1553.0" type="line"/>
    </contour>
    <contour>
      <point x="726.24609375" y="1553.0" type="line"/>
      <point x="704.407226562" y="1493.0" type="line"/>
      <point x="2460.40722656" y="1493.0" type="line"/>
      <point x="2482.24609375" y="1553.0" type="line"/>
    </contour>
    <contour>
      <point x="185.202148438" y="61.0" type="line"/>
      <point x="163.0" y="0.0" type="line"/>
      <point x="1925.0" y="0.0" type="line"/>
      <point x="1947.20214844" y="61.0" type="line"/>
    </contour>
    <contour>
      <point x="1443.65039062" y="859.0" type="line"/>
      <point x="1421.44824219" y="798.0" type="line"/>
      <point x="2156.44824219" y="798.0" type="line"/>
      <point x="2178.65039062" y="859.0" type="line"/>
    </contour>
  </outline>
</glyph>
<glyph name="oe" format="2">
  <advance width="2048"/>
  <unicode hex="0153"/>
  <anchor x="1468" y="1152" name="top"/>
  <anchor x="1076" y="-128" name="base"/>
  <outline>
    <contour>
      <point x="1283" y="506" type="line"/>
      <point x="1261" y="446" type="line"/>
      <point x="2073" y="446" type="line"/>
      <point x="2095" y="506" type="line"/>
    </contour>
    <contour>
      <point x="2258" y="1023" type="line"/>
      <point x="2048" y="445" type="line"/>
      <point x="2107" y="445" type="line"/>
      <point x="2317" y="1023" type="line"/>
    </contour>
    <contour>
      <point x="465" y="1023" type="line"/>
      <point x="93" y="0" type="line"/>
      <point x="152" y="0" type="line"/>
      <point x="524" y="1023" type="line"/>
    </contour>
    <contour>
      <point x="1432" y="1023" type="line"/>
      <point x="1060" y="0" type="line"/>
      <point x="1121" y="0" type="line"/>
      <point x="1493" y="1023" type="line"/>
    </contour>
    <contour>
      <point x="520" y="1023" type="line"/>
      <point x="499" y="964" type="line"/>
      <point x="2297" y="964" type="line"/>
      <point x="2318" y="1023" type="line"/>
    </contour>
    <contour>
      <point x="162" y="62" type="line"/>
      <point x="139" y="0" type="line"/>
      <point x="1955" y="0" type="line"/>
      <point x="1978" y="62" type="line"/>
    </contour>
  </outline>
</glyph>
<glyph name="tcaron" format="2">
  <advance width="2048"/>
  <unicode hex="0165"/>
  <outline>
    <contour>
      <point x="1532.51" y="1529" type="line"/>
      <point x="976" y="0" type="line"/>
      <point x="1036" y="0" type="line"/>
      <point x="1592.51" y="1529" type="line"/>
    </contour>
    <contour>
      <point x="1009.84" y="60" type="line"/>
      <point x="988" y="0" type="line"/>
      <point x="1892" y="0" type="line"/>
      <point x="1913.84" y="60" type="line"/>
    </contour>
    <contour>
      <point x="528.342" y="1023" type="line"/>
      <point x="507.231" y="965" type="line"/>
      <point x="2205.23" y="965" type="line"/>
      <point x="2226.34" y="1023" type="line"/>
    </contour>
    <contour>
      <point x="1710.5" y="1496" type="line"/>
      <point x="1645.35" y="1317" type="line"/>
      <point x="1707.35" y="1317" type="line"/>
      <point x="1772.5" y="1496" type="line"/>
    </contour>
  </outline>
</glyph>
<glyph name="longs" format="2">
  <advance width="2048"/>
  <unicode hex="017F"/>
  <outline>
    <contour>
      <point x="471" y="1084" type="line"/>
      <point x="448" y="1023" type="line"/>
      <point x="699" y="1023" type="line"/>
      <point x="722" y="1084" type="line"/>
    </contour>
    <contour>
      <point x="825" y="1550" type="line"/>
      <point x="261" y="0" type="line"/>
      <point x="325" y="0" type="line"/>
      <point x="889" y="1550" type="line"/>
    </contour>
    <contour>
      <point x="877" y="1550" type="line"/>
      <point x="855" y="1488" type="line"/>
      <point x="2486" y="1488" type="line"/>
      <point x="2508" y="1550" type="line"/>
    </contour>
  </outline>
</glyph>
<glyph name="Btopbar" format="2">
  <advance width="2048"/>
  <unicode hex="0182"/>
  <anchor x="1174" y="1629" name="top"/>
  <anchor x="586" y="-95" name="base"/>
  <outline>
    <contour>
      <point x="114" y="0" type="line"/>
      <point x="171" y="0" type="line"/>
      <point x="736" y="1553" type="line"/>
      <point x="679" y="1553" type="line"/>
    </contour>
    <contour>
      <point x="1088" y="62" type="line"/>
      <point x="1065" y="0" type="line"/>
      <point x="2091" y="434" type="line"/>
      <point x="2115" y="500" type="line"/>
    </contour>
    <contour>
      <point x="1331" y="719" type="line"/>
      <point x="2091" y="430" type="line"/>
      <point x="2116" y="501" type="line"/>
      <point x="1353" y="781" type="line"/>
    </contour>
    <contour>
      <point x="443" y="781" type="line"/>
      <point x="421" y="721" type="line"/>
      <point x="1331" y="721" type="line"/>
      <point x="1353" y="781" type="line"/>
    </contour>
    <contour>
      <point x="178" y="62" type="line"/>
      <point x="155" y="0" type="line"/>
      <point x="1065" y="0" type="line"/>
      <point x="1088" y="62" type="line"/>
    </contour>
    <contour>
      <point x="715" y="1553" type="line"/>
      <point x="694" y="1494" type="line"/>
      <point x="2082" y="1494" type="line"/>
      <point x="2103" y="1553" type="line"/>
    </contour>
  </outline>
</glyph>
<glyph name="uni018F" format="2">
  <advance width="2048"/>
  <unicode hex="018F"/>
  <anchor x="1567.45" y="1614" name="top"/>
  <anchor x="989.239" y="-101" name="base"/>
  <outline>
    <contour>
      <point x="1828" y="0" type="line"/>
      <point x="1857.12" y="80" type="line"/>
      <point x="294.117" y="80" type="line"/>
      <point x="265" y="0" type="line"/>
    </contour>
    <contour>
      <point x="1878" y="0" type="line"/>
      <point x="2439.61" y="1543" type="line"/>
      <point x="2363.61" y="1543" type="line"/>
      <point x="1802" y="0" type="line"/>
    </contour>
    <contour>
      <point x="2342.22" y="1465" type="line"/>
      <point x="2370.61" y="1543" type="line"/>
      <point x="731.606" y="1543" type="line"/>
      <point x="703.217" y="1465" type="line"/>
    </contour>
    <contour>
      <point x="2099.54" y="801" type="line"/>
      <point x="2123.93" y="868" type="line"/>
      <point x="445.926" y="868" type="line"/>
      <point x="421.54" y="801" type="line"/>
    </contour>
    <contour>
      <point x="354.919" y="30" type="line"/>
      <point x="500.29" y="869" type="line"/>
      <point x="423.29" y="869" type="line"/>
      <point x="277.919" y="30" type="line"/>
    </contour>
  </outline>
</glyph>
<glyph name="Eopen" format="2">
  <advance width="2048"/>
  <unicode hex="0190"/>
  <outline>
    <contour>
      <point x="518" y="1542" type="line"/>
      <point x="417" y="860" type="line"/>
      <point x="477" y="859" type="line"/>
      <point x="578" y="1541" type="line"/>
    </contour>
    <contour>
      <point x="561" y="1541" type="line"/>
      <point x="539" y="1481" type="line"/>
      <point x="2317" y="1481" type="line"/>
      <point x="2339" y="1541" type="line"/>
    </contour>
    <contour>
      <point x="180" y="60" type="line"/>
      <point x="158" y="0" type="line"/>
      <point x="1940" y="0" type="line"/>
      <point x="1962" y="60" type="line"/>
    </contour>
    <contour>
      <point x="477" y="861" type="line"/>
      <point x="456" y="801" type="line"/>
      <point x="1378" y="801" type="line"/>
      <point x="1399" y="861" type="line"/>
    </contour>
    <contour>
      <point x="398" y="804" type="line"/>
      <point x="103" y="0" type="line"/>
      <point x="164" y="0" type="line"/>
      <point x="457" y="803" type="line"/>
    </contour>
  </outline>
</glyph>
<glyph name="uni0192" format="2">
  <advance width="2048"/>
  <unicode hex="0192"/>
  <outline>
    <contour>
      <point x="1346.34" y="1023" type="line"/>
      <point x="826.229" y="-406" type="line"/>
      <point x="888.229" y="-406" type="line"/>
      <point x="1408.34" y="1023" type="line"/>
    </contour>
    <contour>
      <point x="1374.34" y="1023" type="line"/>
      <point x="1353.6" y="966" type="line"/>
      <point x="2145.6" y="966" type="line"/>
      <point x="2166.34" y="1023" type="line"/>
    </contour>
    <contour>
      <point x="519.459" y="559" type="line"/>
      <point x="497.985" y="500" type="line"/>
      <point x="1715.99" y="500" type="line"/>
      <point x="1737.46" y="559" type="line"/>
    </contour>
    <contour>
      <point x="128.431" y="-345" type="line"/>
      <point x="106.229" y="-406" type="line"/>
      <point x="880.229" y="-406" type="line"/>
      <point x="902.431" y="-345" type="line"/>
    </contour>
  </outline>
</glyph>
<glyph name="uni0194" format="2">
  <advance width="2048"/>
  <unicode hex="0194"/>
  <outline>
    <contour>
      <point x="880" y="1543" type="line"/>
      <point x="1538" y="-158" type="line"/>
      <point x="1598" y="-158" type="line"/>
      <point x="940" y="1543" type="line"/>
    </contour>
    <contour>
      <point x="2424" y="1543" type="line"/>
      <point x="804" y="-158" type="line"/>
      <point x="864" y="-158" type="line"/>
      <point x="2485" y="1543" type="line"/>
    </contour>
    <contour>
      <point x="731" y="-217" type="line"/>
      <point x="1525" y="-218" type="line"/>
      <point x="1599" y="-158" type="line"/>
      <point x="805" y="-158" type="line"/>
    </contour>
  </outline>
</glyph>
<glyph name="Iota_latin" format="2">
  <advance width="2048"/>
  <unicode hex="0196"/>
  <outline>
    <contour>
      <point x="992" y="1543" type="line"/>
      <point x="661" y="107" type="line"/>
      <point x="721" y="107" type="line"/>
      <point x="1052" y="1543" type="line"/>
    </contour>
    <contour>
      <point x="684" y="172" type="line"/>
      <point x="660" y="106" type="line"/>
      <point x="1632" y="6" type="line"/>
      <point x="1656" y="72" type="line"/>
    </contour>
  </outline>
</glyph>
<glyph name="Khook" format="2">
  <advance width="2048"/>
  <unicode hex="0198"/>
  <outline>
    <contour>
      <point x="725" y="1553" type="line"/>
      <point x="168" y="5" type="line"/>
      <point x="228" y="5" type="line"/>
      <point x="785" y="1553" type="line"/>
    </contour>
    <contour>
      <point x="588" y="1015" type="line"/>
      <point x="528" y="944" type="line"/>
      <point x="2319" y="1550" type="line"/>
      <point x="2249" y="1550" type="line"/>
    </contour>
    <contour>
      <point x="514" y="934" type="line"/>
      <point x="438" y="844" type="line"/>
      <point x="1746" y="0" type="line"/>
      <point x="1796" y="0" type="line"/>
    </contour>
    <contour>
      <point x="2534" y="1617" type="line"/>
      <point x="2526" y="1679" type="line"/>
      <point x="2323" y="1583" type="line"/>
      <point x="2376" y="1551" type="line"/>
    </contour>
    <contour>
      <point x="2433" y="1599" type="line"/>
      <point x="2425" y="1631" type="line"/>
      <point x="2247" y="1550" type="line"/>
      <point x="2320" y="1550" type="line"/>
    </contour>
  </outline>
</glyph>
<glyph name="Mturned" format="2">
  <advance width="2048"/>
  <unicode hex="019C"/>
  <anchor x="1178" y="-159" name="base"/>
  <anchor x="1554" y="1098" name="top"/>
  <outline>
    <contour>
      <point x="1999" y="30" type="line"/>
      <point x="2360" y="1546" type="line"/>
      <point x="2300" y="1546" type="line"/>
      <point x="1939" y="30" type="line"/>
    </contour>
    <contour>
      <point x="1159" y="51" type="line"/>
      <point x="1513" y="1546" type="line"/>
      <point x="1453" y="1546" type="line"/>
      <point x="1099" y="51" type="line"/>
    </contour>
    <contour>
      <point x="411" y="47" type="line"/>
      <point x="766" y="1546" type="line"/>
      <point x="706" y="1546" type="line"/>
      <point x="351" y="47" type="line"/>
    </contour>
    <contour>
      <point x="2262" y="0" type="line"/>
      <point x="2282" y="57" type="line"/>
      <point x="354" y="57" type="line"/>
      <point x="334" y="0" type="line"/>
    </contour>
  </outline>
</glyph>
<glyph name="uni019F" format="2">
  <advance width="2048"/>
  <unicode hex="019F"/>
  <anchor x="1627" y="1778" name="top"/>
  <anchor x="1024" y="-214" name="base"/>
  <outline>
    <contour>
      <point x="677" y="1553" type="line"/>
      <point x="112" y="0" type="line"/>
      <point x="171" y="0" type="line"/>
      <point x="736" y="1553" type="line"/>
    </contour>
    <contour>
      <point x="2442" y="1553" type="line"/>
      <point x="1877" y="0" type="line"/>
      <point x="1936" y="0" type="line"/>
      <point x="2501" y="1553" type="line"/>
    </contour>
    <contour>
      <point x="715" y="1553" type="line"/>
      <point x="693" y="1493" type="line"/>
      <point x="2449" y="1493" type="line"/>
      <point x="2471" y="1553" type="line"/>
    </contour>
    <contour>
      <point x="174" y="61" type="line"/>
      <point x="152" y="0" type="line"/>
      <point x="1914" y="0" type="line"/>
      <point x="1936" y="61" type="line"/>
    </contour>
    <contour>
      <point x="468.338" y="810" type="line"/>
      <point x="390.822" y="750" type="line"/>
      <point x="2169.38" y="750" type="line"/>
      <point x="2246.9" y="810" type="line"/>
    </contour>
  </outline>
</glyph>
<glyph name="Phook" format="2">
  <advance width="2048"/>
  <unicode hex="01A4"/>
  <anchor x="1305" y="-36" name="base"/>
  <anchor x="1741" y="1706" name="top"/>
  <outline>
    <contour>
      <point x="833" y="1535" type="line"/>
      <point x="274" y="0" type="line"/>
      <point x="333" y="0" type="line"/>
      <point x="892" y="1535" type="line"/>
    </contour>
    <contour>
      <point x="838" y="1550" type="line"/>
      <point x="810" y="1472" type="line"/>
      <point x="2594" y="1472" type="line"/>
      <point x="2622" y="1550" type="line"/>
    </contour>
    <contour>
      <point x="2556" y="1536" type="line"/>
      <point x="2314" y="872" type="line"/>
      <point x="2375" y="872" type="line"/>
      <point x="2617" y="1536" type="line"/>
    </contour>
    <contour>
      <point x="658" y="931" type="line"/>
      <point x="636" y="871" type="line"/>
      <point x="2347" y="871" type="line"/>
      <point x="2369" y="931" type="line"/>
    </contour>
    <contour>
      <point x="591.664" y="1414.32" type="line"/>
      <point x="756.621" y="1440.53" type="line"/>
      <point x="690.723" y="1559.5" type="line"/>
      <point x="525.766" y="1533.29" type="line"/>
    </contour>
    <contour>
      <point x="582.535" y="1492.72" type="line"/>
      <point x="848.767" y="1495.01" type="line"/>
      <point x="876.126" y="1546.74" type="line"/>
      <point x="673.039" y="1554.28" type="line"/>
    </contour>
  </outline>
</glyph>
<glyph name="Thook" format="2">
  <advance width="2048"/>
  <unicode hex="01AC"/>
  <anchor x="1748" y="1642" name="top"/>
  <anchor x="1161" y="-131" name="base"/>
  <outline>
    <contour>
      <point x="793" y="1553" type="line"/>
      <point x="772" y="1494" type="line"/>
      <point x="2579.9999999999995" y="1494" type="line"/>
      <point x="2600.9999999999995" y="1553" type="line"/>
    </contour>
    <contour>
      <point x="1724" y="1512" type="line"/>
      <point x="1178" y="12" type="line"/>
      <point x="1238" y="12" type="line"/>
      <point x="1784" y="1512" type="line"/>
    </contour>
    <contour>
      <point x="959.962718" y="1554.897586" type="line"/>
      <point x="494.46207100000004" y="1563.792085" type="line"/>
      <point x="519.167613" y="1510.213772" type="line"/>
      <point x="982.852046" y="1500.481797" type="line"/>
    </contour>
    <contour>
      <point x="494.46207100000004" y="1563.792085" type="line"/>
      <point x="618.4085190000001" y="1294.992413" type="line"/>
      <point x="703.462813" y="1253.824882" type="line"/>
      <point x="579.516365" y="1522.624554" type="line"/>
    </contour>
  </outline>
</glyph>
<glyph name="thook" format="2">
  <advance width="2048"/>
  <unicode hex="01AD"/>
  <anchor x="1636" y="1706" name="top"/>
  <anchor x="995.9999999999999" y="-178" name="base"/>
  <outline>
    <contour>
      <point x="1533" y="1529" type="line"/>
      <point x="976" y="0" type="line"/>
      <point x="1036" y="0" type="line"/>
      <point x="1593" y="1529" type="line"/>
    </contour>
    <contour>
      <point x="1010" y="60" type="line"/>
      <point x="988" y="0" type="line"/>
      <point x="1892" y="0" type="line"/>
      <point x="1914" y="60" type="line"/>
    </contour>
    <contour>
      <point x="528" y="1023" type="line"/>
      <point x="507" y="965" type="line"/>
      <point x="2205" y="965" type="line"/>
      <point x="2226" y="1023" type="line"/>
    </contour>
    <contour>
      <point x="1877.84697" y="1259.92635" type="line"/>
      <point x="1547.764813" y="1588.279699" type="line"/>
      <point x="1528.556301" y="1532.494078" type="line"/>
      <point x="1856.74742" y="1204.791865" type="line"/>
    </contour>
    <contour>
      <point x="1547.764813" y="1588.279699" type="line"/>
      <point x="1451.396685" y="1308.4060749999999" type="line"/>
      <point x="1484.361361" y="1219.849108" type="line"/>
      <point x="1580.729489" y="1499.722732" type="line"/>
    </contour>
  </outline>
</glyph>
<glyph name="uni01AE" format="2">
  <advance width="2048"/>
  <unicode hex="01AE"/>
  <anchor x="1640" y="1642" name="top"/>
  <anchor x="1053" y="-131" name="base"/>
  <outline>
    <contour>
      <point x="685" y="1553" type="line"/>
      <point x="664" y="1494" type="line"/>
      <point x="2472" y="1494" type="line"/>
      <point x="2493" y="1553" type="line"/>
    </contour>
    <contour>
      <point x="1616" y="1512" type="line"/>
      <point x="1070" y="12" type="line"/>
      <point x="1130" y="12" type="line"/>
      <point x="1676" y="1512" type="line"/>
    </contour>
    <contour>
      <point x="1151.07" y="229.342" type="line"/>
      <point x="988.809" y="-207.054" type="line"/>
      <point x="1047.54" y="-201.447" type="line"/>
      <point x="1209.99" y="232.959" type="line"/>
    </contour>
    <contour>
      <point x="988.809" y="-207.054" type="line"/>
      <point x="1283.47" y="-178.922" type="line"/>
      <point x="1350.44" y="-112.256" type="line"/>
      <point x="1055.78" y="-140.388" type="line"/>
    </contour>
  </outline>
</glyph>
<glyph name="Vhook" format="2">
  <advance width="2048"/>
  <unicode hex="01B2"/>
  <anchor x="1400" y="1086" name="top"/>
  <anchor x="1008" y="-118" name="base"/>
  <outline>
    <contour>
      <point x="476" y="1623" type="line"/>
      <point x="104" y="0" type="line"/>
      <point x="160" y="0" type="line"/>
      <point x="532" y="1623" type="line"/>
    </contour>
    <contour>
      <point x="2256" y="1623" type="line"/>
      <point x="1884" y="0" type="line"/>
      <point x="1946" y="0" type="line"/>
      <point x="2318" y="1623" type="line"/>
    </contour>
    <contour>
      <point x="1683" y="1623" type="line"/>
      <point x="1663" y="1567" type="line"/>
      <point x="2241" y="1567" type="line"/>
      <point x="2261" y="1623" type="line"/>
    </contour>
    <contour>
      <point x="173" y="62" type="line"/>
      <point x="150" y="0" type="line"/>
      <point x="1892" y="0" type="line"/>
      <point x="1915" y="62" type="line"/>
    </contour>
  </outline>
</glyph>
<glyph name="Ezh" format="2">
  <advance width="2048"/>
  <unicode hex="01B7"/>
  <outline>
    <contour>
      <point x="1834" y="0" type="line"/>
      <point x="1906" y="60" type="line"/>
      <point x="186" y="60" type="line"/>
      <point x="114" y="0" type="line"/>
    </contour>
    <contour>
      <point x="1906" y="60" type="line"/>
      <point x="2210" y="889" type="line"/>
      <point x="2149" y="889" type="line"/>
      <point x="1842" y="59" type="line"/>
    </contour>
    <contour>
      <point x="2122" y="829" type="line"/>
      <point x="2196" y="889" type="line"/>
      <point x="498" y="889" type="line"/>
      <point x="424" y="829" type="line"/>
    </contour>
    <contour>
      <point x="683" y="1544" type="line"/>
      <point x="611" y="1484" type="line"/>
      <point x="2463" y="1484" type="line"/>
      <point x="2535" y="1544" type="line"/>
    </contour>
    <contour>
      <point x="2300" y="1484" type="line"/>
      <point x="498" y="889" type="line"/>
      <point x="721" y="889" type="line"/>
      <point x="2463" y="1484" type="line"/>
    </contour>
  </outline>
</glyph>
<glyph name="uni01B8" format="2">
  <advance width="2048"/>
  <unicode hex="01B8"/>
  <outline>
    <contour>
      <point x="210" y="0" type="line"/>
      <point x="1930" y="0" type="line"/>
      <point x="2002" y="60" type="line"/>
      <point x="282" y="60" type="line"/>
    </contour>
    <contour>
      <point x="226" y="39" type="line"/>
      <point x="287" y="39" type="line"/>
      <point x="593" y="889" type="line"/>
      <point x="532" y="889" type="line"/>
    </contour>
    <contour>
      <point x="507" y="829" type="line"/>
      <point x="2170" y="829" type="line"/>
      <point x="2244" y="889" type="line"/>
      <point x="581" y="889" type="line"/>
    </contour>
    <contour>
      <point x="2535" y="1544" type="line"/>
      <point x="683" y="1544" type="line"/>
      <point x="611" y="1484" type="line"/>
      <point x="2463" y="1484" type="line"/>
    </contour>
    <contour>
      <point x="774" y="1484" type="line"/>
      <point x="611" y="1484" type="line"/>
      <point x="2026" y="889" type="line"/>
      <point x="2249" y="889" type="line"/>
    </contour>
  </outline>
</glyph>
<glyph name="uni01B9" format="2">
  <advance width="2048"/>
  <unicode hex="01B9"/>
  <outline>
    <contour>
      <point x="210" y="0" type="line"/>
      <point x="1930" y="0" type="line"/>
      <point x="2002" y="60" type="line"/>
      <point x="282" y="60" type="line"/>
    </contour>
    <contour>
      <point x="226" y="39" type="line"/>
      <point x="287" y="39" type="line"/>
      <point x="494" y="619" type="line"/>
      <point x="433" y="619" type="line"/>
    </contour>
    <contour>
      <point x="409" y="559" type="line"/>
      <point x="2072" y="559" type="line"/>
      <point x="2145" y="619" type="line"/>
      <point x="482" y="619" type="line"/>
    </contour>
    <contour>
      <point x="2437" y="1274" type="line"/>
      <point x="585" y="1274" type="line"/>
      <point x="513" y="1214" type="line"/>
      <point x="2365" y="1214" type="line"/>
    </contour>
    <contour>
      <point x="676" y="1214" type="line"/>
      <point x="513" y="1214" type="line"/>
      <point x="1927" y="619" type="line"/>
      <point x="2150" y="619" type="line"/>
    </contour>
  </outline>
</glyph>
<glyph name="uni021C" format="2">
  <advance width="2048"/>
  <unicode hex="021C"/>
  <outline>
    <contour>
      <point x="369" y="502" type="line"/>
      <point x="2195" y="736" type="line"/>
      <point x="1946" y="52" type="line"/>
      <point x="78" y="-182" type="line"/>
      <point x="65" y="-242" type="line"/>
      <point x="1984" y="-8" type="line"/>
      <point x="2551" y="1550" type="line"/>
      <point x="653" y="1365" type="line"/>
      <point x="632" y="1308" type="line"/>
      <point x="2468" y="1493" type="line"/>
      <point x="2215" y="796" type="line"/>
      <point x="391" y="562" type="line"/>
    </contour>
  </outline>
</glyph>
<glyph name="uni021D" format="2">
  <advance width="2048"/>
  <unicode hex="021D"/>
  <outline>
    <contour>
      <point x="369" y="93" type="line"/>
      <point x="2195" y="327" type="line"/>
      <point x="1946" y="-277" type="line"/>
      <point x="78" y="-511" type="line"/>
      <point x="65" y="-571" type="line"/>
      <point x="1984" y="-337" type="line"/>
      <point x="2551" y="1097" type="line"/>
      <point x="653" y="912" type="line"/>
      <point x="632" y="855" type="line"/>
      <point x="2468" y="1040" type="line"/>
      <point x="2215" y="387" type="line"/>
      <point x="391" y="153" type="line"/>
    </contour>
  </outline>
</glyph>
<glyph name="dcurl" format="2">
  <advance width="2048"/>
  <unicode hex="0221"/>
  <anchor x="956" y="-167" name="base"/>
  <anchor x="2468" y="1635" name="top"/>
  <outline>
    <contour>
      <point x="2037" y="1537" type="line"/>
      <point x="1473" y="-13" type="line"/>
      <point x="1533" y="-13" type="line"/>
      <point x="2097" y="1537" type="line"/>
    </contour>
    <contour>
      <point x="473" y="1026" type="line"/>
      <point x="454" y="966" type="line"/>
      <point x="1885" y="966" type="line"/>
      <point x="1903" y="1026" type="line"/>
    </contour>
    <contour>
      <point x="430" y="1023" type="line"/>
      <point x="58" y="0" type="line"/>
      <point x="118" y="0" type="line"/>
      <point x="490" y="1023" type="line"/>
    </contour>
    <contour>
      <point x="122" y="59" type="line"/>
      <point x="97" y="-4" type="line"/>
      <point x="1928" y="-4" type="line"/>
      <point x="1953" y="59" type="line"/>
    </contour>
    <contour>
      <point x="659" y="-189" type="line"/>
      <point x="634" y="-252" type="line"/>
      <point x="1832" y="313" type="line"/>
      <point x="1857" y="376" type="line"/>
    </contour>
    <contour>
      <point x="1294" y="507" type="line"/>
      <point x="922" y="6" type="line"/>
      <point x="896" y="10" type="line"/>
      <point x="1268" y="511" type="line"/>
    </contour>
  </outline>
</glyph>
<glyph name="OU" format="2">
  <advance width="2048"/>
  <unicode hex="0222"/>
  <outline>
    <contour>
      <point x="680" y="1552" type="line"/>
      <point x="447" y="692" type="line"/>
      <point x="507" y="692" type="line"/>
      <point x="740" y="1552" type="line"/>
    </contour>
    <contour>
      <point x="2456" y="1552" type="line"/>
      <point x="2221" y="696" type="line"/>
      <point x="2281" y="696" type="line"/>
      <point x="2516" y="1552" type="line"/>
    </contour>
    <contour>
      <point x="386" y="637" type="line"/>
      <point x="367" y="581" type="line"/>
      <point x="2178" y="578" type="line"/>
      <point x="2251" y="641" type="line"/>
    </contour>
    <contour>
      <point x="386" y="637" type="line"/>
      <point x="104" y="24" type="line"/>
      <point x="167" y="24" type="line"/>
      <point x="442" y="637" type="line"/>
    </contour>
    <contour>
      <point x="2192" y="638" type="line"/>
      <point x="1914" y="0" type="line"/>
      <point x="1976" y="3" type="line"/>
      <point x="2251" y="641" type="line"/>
    </contour>
    <contour>
      <point x="117" y="60" type="line"/>
      <point x="92" y="0" type="line"/>
      <point x="1966" y="0" type="line"/>
      <point x="1989" y="60" type="line"/>
    </contour>
    <contour>
      <point x="2251" y="636" type="line"/>
      <point x="529" y="782" type="line"/>
      <point x="448" y="691" type="line"/>
      <point x="2178" y="578" type="line"/>
    </contour>
    <contour>
      <point x="368" y="581" type="line"/>
      <point x="2281" y="696" type="line"/>
      <point x="2300" y="759" type="line"/>
      <point x="386" y="633" type="line"/>
    </contour>
    <contour>
      <point x="1466" y="1554" type="line"/>
      <point x="683" y="1552" type="line"/>
      <point x="666" y="1496" type="line"/>
      <point x="1433" y="1495" type="line"/>
    </contour>
    <contour>
      <point x="1609" y="1492" type="line"/>
      <point x="2449" y="1490" type="line"/>
      <point x="2514" y="1553" type="line"/>
      <point x="1642" y="1551" type="line"/>
    </contour>
  </outline>
</glyph>
<glyph name="uni0222" format="2">
  <advance width="2048"/>
  <unicode hex="0222"/>
  <outline>
    <contour>
      <point x="670" y="1548" type="line"/>
      <point x="437" y="838" type="line"/>
      <point x="497" y="838" type="line"/>
      <point x="730" y="1548" type="line"/>
    </contour>
    <contour>
      <point x="2438" y="1548" type="line"/>
      <point x="2211" y="842" type="line"/>
      <point x="2271" y="842" type="line"/>
      <point x="2498" y="1548" type="line"/>
    </contour>
    <contour>
      <point x="376" y="779" type="line"/>
      <point x="362" y="722" type="line"/>
      <point x="2168" y="719" type="line"/>
      <point x="2241" y="783" type="line"/>
    </contour>
    <contour>
      <point x="376" y="779" type="line"/>
      <point x="94" y="24" type="line"/>
      <point x="158" y="24" type="line"/>
      <point x="433" y="779" type="line"/>
    </contour>
    <contour>
      <point x="2181" y="780" type="line"/>
      <point x="1903" y="0" type="line"/>
      <point x="1966" y="3" type="line"/>
      <point x="2241" y="783" type="line"/>
    </contour>
    <contour>
      <point x="157" y="60" type="line"/>
      <point x="82" y="0" type="line"/>
      <point x="1956" y="0" type="line"/>
      <point x="2029" y="60" type="line"/>
    </contour>
    <contour>
      <point x="2245" y="780" type="line"/>
      <point x="464" y="905" type="line"/>
      <point x="438" y="837" type="line"/>
      <point x="2168" y="719" type="line"/>
    </contour>
    <contour>
      <point x="363" y="722" type="line"/>
      <point x="2271" y="842" type="line"/>
      <point x="2289" y="925" type="line"/>
      <point x="376" y="780" type="line"/>
    </contour>
    <contour>
      <point x="1218" y="1548" type="line"/>
      <point x="670" y="1548" type="line"/>
      <point x="651" y="1483" type="line"/>
      <point x="1201" y="1482" type="line"/>
    </contour>
    <contour>
      <point x="1925" y="1481" type="line"/>
      <point x="2471" y="1480" type="line"/>
      <point x="2504" y="1548" type="line"/>
      <point x="1953" y="1546" type="line"/>
    </contour>
  </outline>
</glyph>
<glyph name="uni0223" format="2">
  <advance width="2048"/>
  <unicode hex="0223"/>
  <outline>
    <contour>
      <point x="680" y="1552" type="line"/>
      <point x="447" y="840" type="line"/>
      <point x="507" y="840" type="line"/>
      <point x="740" y="1552" type="line"/>
    </contour>
    <contour>
      <point x="2456" y="1552" type="line"/>
      <point x="2221" y="844" type="line"/>
      <point x="2281" y="844" type="line"/>
      <point x="2516" y="1552" type="line"/>
    </contour>
    <contour>
      <point x="386" y="779" type="line"/>
      <point x="365" y="723" type="line"/>
      <point x="2178" y="720" type="line"/>
      <point x="2251" y="783" type="line"/>
    </contour>
    <contour>
      <point x="386" y="779" type="line"/>
      <point x="104" y="24" type="line"/>
      <point x="168" y="24" type="line"/>
      <point x="443" y="779" type="line"/>
    </contour>
    <contour>
      <point x="2191" y="780" type="line"/>
      <point x="1913" y="0" type="line"/>
      <point x="1976" y="3" type="line"/>
      <point x="2251" y="783" type="line"/>
    </contour>
    <contour>
      <point x="167" y="60" type="line"/>
      <point x="92" y="0" type="line"/>
      <point x="1966" y="0" type="line"/>
      <point x="2039" y="60" type="line"/>
    </contour>
    <contour>
      <point x="2251" y="781" type="line"/>
      <point x="529" y="906" type="line"/>
      <point x="448" y="839" type="line"/>
      <point x="2178" y="720" type="line"/>
    </contour>
    <contour>
      <point x="366" y="723" type="line"/>
      <point x="2281" y="844" type="line"/>
      <point x="2302" y="904" type="line"/>
      <point x="386" y="780" type="line"/>
    </contour>
  </outline>
</glyph>
<glyph name="uni0234" format="2">
  <advance width="2048"/>
  <unicode hex="0234"/>
  <anchor x="1011" y="-189" name="base"/>
  <anchor x="1640" y="1670" name="top"/>
  <outline>
    <contour>
      <point x="1111" y="129" type="line"/>
      <point x="1085" y="57" type="line"/>
      <point x="1854" y="340" type="line"/>
      <point x="1880" y="412" type="line"/>
    </contour>
    <contour>
      <point x="1571" y="1553" type="line"/>
      <point x="1027" y="57" type="line"/>
      <point x="1084" y="57" type="line"/>
      <point x="1628" y="1553" type="line"/>
    </contour>
    <contour>
      <point x="833" y="1553" type="line"/>
      <point x="812" y="1494" type="line"/>
      <point x="1559" y="1494" type="line"/>
      <point x="1580" y="1553" type="line"/>
    </contour>
    <contour>
      <point x="215" y="362" type="line"/>
      <point x="189" y="290" type="line"/>
      <point x="1858" y="352" type="line"/>
      <point x="1884" y="424" type="line"/>
    </contour>
  </outline>
</glyph>
<glyph name="uni0235" format="2">
  <advance width="2048"/>
  <unicode hex="0235"/>
  <anchor x="1203" y="-133" name="base"/>
  <anchor x="1631" y="1124" name="top"/>
  <outline>
    <contour>
      <point x="767" y="982" type="line"/>
      <point x="407" y="-8" type="line"/>
      <point x="468" y="-8" type="line"/>
      <point x="828" y="982" type="line"/>
    </contour>
    <contour>
      <point x="1975" y="968" type="line"/>
      <point x="1620" y="-8" type="line"/>
      <point x="1680" y="-8" type="line"/>
      <point x="2035" y="968" type="line"/>
    </contour>
    <contour>
      <point x="401" y="1019" type="line"/>
      <point x="379" y="959" type="line"/>
      <point x="2030" y="959" type="line"/>
      <point x="2052" y="1019" type="line"/>
    </contour>
    <contour>
      <point x="1052" y="54" type="line"/>
      <point x="1030" y="-6" type="line"/>
      <point x="2138" y="303" type="line"/>
      <point x="2160" y="363" type="line"/>
    </contour>
    <contour>
      <point x="1678" y="51" type="line"/>
      <point x="1675" y="-9" type="line"/>
      <point x="1921" y="-9" type="line"/>
      <point x="1924" y="51" type="line"/>
    </contour>
    <contour>
      <point x="2160" y="363" type="line"/>
      <point x="1877" y="-9" type="line"/>
      <point x="1937" y="-9" type="line"/>
      <point x="2220" y="363" type="line"/>
    </contour>
  </outline>
</glyph>
<glyph name="tcurl" format="2">
  <advance width="2048"/>
  <unicode hex="0236"/>
  <anchor x="1636" y="1706" name="top"/>
  <anchor x="996" y="-178" name="base"/>
  <outline>
    <contour>
      <point x="1533" y="1529" type="line"/>
      <point x="976" y="0" type="line"/>
      <point x="1036" y="0" type="line"/>
      <point x="1593" y="1529" type="line"/>
    </contour>
    <contour>
      <point x="1010" y="60" type="line"/>
      <point x="988" y="0" type="line"/>
      <point x="1892" y="0" type="line"/>
      <point x="1914" y="60" type="line"/>
    </contour>
    <contour>
      <point x="528" y="1023" type="line"/>
      <point x="507" y="965" type="line"/>
      <point x="2205" y="965" type="line"/>
      <point x="2226" y="1023" type="line"/>
    </contour>
    <contour>
      <point x="603" y="62" type="line"/>
      <point x="582" y="4" type="line"/>
      <point x="1855" y="494" type="line"/>
      <point x="1855" y="552" type="line"/>
    </contour>
    <contour>
      <point x="1855" y="0" type="line"/>
      <point x="1915" y="0" type="line"/>
      <point x="1915" y="539" type="line"/>
      <point x="1855" y="552" type="line"/>
    </contour>
  </outline>
</glyph>
<glyph name="uni0237" format="2">
  <advance width="2048"/>
  <unicode hex="0237"/>
  <anchor x="2196" y="1098" name="top"/>
  <outline>
    <contour>
      <point x="2164" y="1023" type="line"/>
      <point x="1642" y="-411" type="line"/>
      <point x="1700" y="-411" type="line"/>
      <point x="2222" y="1023" type="line"/>
    </contour>
    <contour>
      <point x="71" y="-348" type="line"/>
      <point x="49" y="-409" type="line"/>
      <point x="1663" y="-409" type="line"/>
      <point x="1685" y="-348" type="line"/>
    </contour>
    <contour>
      <point x="196" y="-6" type="line"/>
      <point x="60" y="-378" type="line"/>
      <point x="120" y="-378" type="line"/>
      <point x="256" y="-6" type="line"/>
    </contour>
  </outline>
</glyph>
<glyph name="aturned" format="2">
  <advance width="2048"/>
  <unicode hex="0250"/>
  <anchor x="1006" y="-163" name="top"/>
  <anchor x="1425" y="1165" name="base"/>
  <outline>
    <contour>
      <point x="1881" y="3" type="line"/>
      <point x="1905" y="69" type="line"/>
      <point x="232" y="69" type="line"/>
      <point x="208" y="3" type="line"/>
    </contour>
    <contour>
      <point x="246" y="3" type="line"/>
      <point x="618" y="1026" type="line"/>
      <point x="541" y="1026" type="line"/>
      <point x="169" y="3" type="line"/>
    </contour>
    <contour>
      <point x="2032" y="426" type="line"/>
      <point x="2054" y="488" type="line"/>
      <point x="406" y="488" type="line"/>
      <point x="384" y="426" type="line"/>
    </contour>
    <contour>
      <point x="2039" y="449" type="line"/>
      <point x="2249" y="1026" type="line"/>
      <point x="2178" y="1026" type="line"/>
      <point x="1968" y="449" type="line"/>
    </contour>
    <contour>
      <point x="2213" y="952" type="line"/>
      <point x="2240" y="1026" type="line"/>
      <point x="552" y="1026" type="line"/>
      <point x="525" y="952" type="line"/>
    </contour>
  </outline>
</glyph>
<glyph name="alpha-latin" format="2">
  <advance width="2048"/>
  <unicode hex="0251"/>
  <anchor x="1400" y="1086" name="top"/>
  <anchor x="1008" y="-118" name="base"/>
  <outline>
    <contour>
      <point x="476" y="1023" type="line"/>
      <point x="104" y="0" type="line"/>
      <point x="160" y="0" type="line"/>
      <point x="532" y="1023" type="line"/>
    </contour>
    <contour>
      <point x="2256" y="1116" type="line"/>
      <point x="1884" y="-127" type="line"/>
      <point x="1946" y="-127" type="line"/>
      <point x="2318" y="1116" type="line"/>
    </contour>
    <contour>
      <point x="524" y="1023" type="line"/>
      <point x="504" y="967" type="line"/>
      <point x="2241" y="967" type="line"/>
      <point x="2261" y="1023" type="line"/>
    </contour>
    <contour>
      <point x="173" y="62" type="line"/>
      <point x="150" y="0" type="line"/>
      <point x="1892" y="0" type="line"/>
      <point x="1915" y="62" type="line"/>
    </contour>
  </outline>
</glyph>
<glyph name="oopen" format="2">
  <advance width="2048"/>
  <unicode hex="0254"/>
  <anchor x="978" y="-112" name="base"/>
  <anchor x="1504" y="1173" name="top"/>
  <outline>
    <contour>
      <point x="1886" y="0" type="line"/>
      <point x="1908" y="60" type="line"/>
      <point x="188" y="60" type="line"/>
      <point x="166" y="0" type="line"/>
    </contour>
    <contour>
      <point x="1900" y="43" type="line"/>
      <point x="2258" y="1027" type="line"/>
      <point x="2198" y="1027" type="line"/>
      <point x="1840" y="43" type="line"/>
    </contour>
    <contour>
      <point x="2188" y="967" type="line"/>
      <point x="2210" y="1027" type="line"/>
      <point x="546" y="1027" type="line"/>
      <point x="524" y="967" type="line"/>
    </contour>
  </outline>
</glyph>
<glyph name="uni0259" format="2">
  <advance width="2048"/>
  <unicode hex="0259"/>
  <outline>
    <contour>
      <point x="1828" y="0" type="line"/>
      <point x="1866.94" y="107" type="line"/>
      <point x="303.331" y="174" type="line"/>
      <point x="264.386" y="67" type="line"/>
    </contour>
    <contour>
      <point x="1878" y="0" type="line"/>
      <point x="2250.34" y="1023" type="line"/>
      <point x="2149.34" y="1023" type="line"/>
      <point x="1777" y="0" type="line"/>
    </contour>
    <contour>
      <point x="2108.67" y="914" type="line"/>
      <point x="2148.34" y="1023" type="line"/>
      <point x="542.342" y="1023" type="line"/>
      <point x="502.669" y="914" type="line"/>
    </contour>
    <contour>
      <point x="1987.8" y="494" type="line"/>
      <point x="2018.01" y="577" type="line"/>
      <point x="404.011" y="577" type="line"/>
      <point x="373.802" y="494" type="line"/>
    </contour>
    <contour>
      <point x="353.305" y="97" type="line"/>
      <point x="457.375" y="578" type="line"/>
      <point x="381.375" y="578" type="line"/>
      <point x="277.305" y="97" type="line"/>
    </contour>
  </outline>
</glyph>
<glyph name="eopen" format="2">
  <advance width="2048"/>
  <unicode hex="025B"/>
  <anchor x="1447" y="1210" name="top"/>
  <anchor x="976" y="-151" name="base"/>
  <outline>
    <contour>
      <point x="518" y="1140" type="line"/>
      <point x="417" y="599" type="line"/>
      <point x="477" y="598" type="line"/>
      <point x="578" y="1139" type="line"/>
    </contour>
    <contour>
      <point x="561" y="1139" type="line"/>
      <point x="539" y="1079" type="line"/>
      <point x="2317" y="1079" type="line"/>
      <point x="2339" y="1139" type="line"/>
    </contour>
    <contour>
      <point x="180" y="60" type="line"/>
      <point x="158" y="0" type="line"/>
      <point x="1940" y="0" type="line"/>
      <point x="1962" y="60" type="line"/>
    </contour>
    <contour>
      <point x="477" y="600" type="line"/>
      <point x="456" y="540" type="line"/>
      <point x="1378" y="540" type="line"/>
      <point x="1399" y="600" type="line"/>
    </contour>
    <contour>
      <point x="398" y="543" type="line"/>
      <point x="103" y="0" type="line"/>
      <point x="164" y="0" type="line"/>
      <point x="457" y="542" type="line"/>
    </contour>
  </outline>
</glyph>
<glyph name="ramshorn" format="2">
  <advance width="2048"/>
  <unicode hex="0264"/>
  <anchor x="1276" y="1140" name="top"/>
  <outline>
    <contour>
      <point x="880" y="935" type="line"/>
      <point x="1538" y="202" type="line"/>
      <point x="1598" y="202" type="line"/>
      <point x="940" y="935" type="line"/>
    </contour>
    <contour>
      <point x="2424" y="965" type="line"/>
      <point x="804" y="202" type="line"/>
      <point x="864" y="202" type="line"/>
      <point x="2485" y="965" type="line"/>
    </contour>
    <contour>
      <point x="731" y="143" type="line"/>
      <point x="1525" y="142" type="line"/>
      <point x="1599" y="202" type="line"/>
      <point x="805" y="202" type="line"/>
    </contour>
  </outline>
</glyph>
<glyph name="iota_latin" format="2">
  <advance width="2048"/>
  <unicode hex="0269"/>
  <anchor x="1460" y="1172" name="top"/>
  <outline>
    <contour>
      <point x="992" y="1018" type="line"/>
      <point x="661" y="107" type="line"/>
      <point x="721" y="107" type="line"/>
      <point x="1052" y="1018" type="line"/>
    </contour>
    <contour>
      <point x="684" y="172" type="line"/>
      <point x="660" y="106" type="line"/>
      <point x="1632" y="6" type="line"/>
      <point x="1656" y="72" type="line"/>
    </contour>
  </outline>
</glyph>
<glyph name="icapitalsmall" format="2">
  <advance width="2048"/>
  <unicode hex="026A"/>
  <anchor x="1680" y="1718" name="top"/>
  <anchor x="1084" y="-56" name="base"/>
  <outline>
    <contour>
      <point x="718" y="1032" type="line"/>
      <point x="696" y="971" type="line"/>
      <point x="2421" y="971" type="line"/>
      <point x="2443" y="1032" type="line"/>
    </contour>
    <contour>
      <point x="1609" y="997" type="line"/>
      <point x="1070" y="34" type="line"/>
      <point x="1129" y="34" type="line"/>
      <point x="1668" y="997" type="line"/>
    </contour>
    <contour>
      <point x="158" y="66" type="line"/>
      <point x="136" y="6" type="line"/>
      <point x="1916" y="6" type="line"/>
      <point x="1938" y="66" type="line"/>
    </contour>
  </outline>
</glyph>
<glyph name="uni0275" format="2">
  <advance width="2048"/>
  <unicode hex="0275"/>
  <anchor x="1442" y="1086" name="top"/>
  <anchor x="1008" y="-118" name="base"/>
  <outline>
    <contour>
      <point x="476" y="1023" type="line"/>
      <point x="104" y="0" type="line"/>
      <point x="160" y="0" type="line"/>
      <point x="532" y="1023" type="line"/>
    </contour>
    <contour>
      <point x="2256" y="1023" type="line"/>
      <point x="1884" y="0" type="line"/>
      <point x="1946" y="0" type="line"/>
      <point x="2318" y="1023" type="line"/>
    </contour>
    <contour>
      <point x="524" y="1023" type="line"/>
      <point x="504" y="967" type="line"/>
      <point x="2241" y="967" type="line"/>
      <point x="2261" y="1023" type="line"/>
    </contour>
    <contour>
      <point x="173" y="62" type="line"/>
      <point x="150" y="0" type="line"/>
      <point x="1892" y="0" type="line"/>
      <point x="1915" y="62" type="line"/>
    </contour>
    <contour>
      <point x="376.019" y="578" type="line"/>
      <point x="298.979" y="518" type="line"/>
      <point x="2066.64" y="518" type="line"/>
      <point x="2143.68" y="578" type="line"/>
    </contour>
  </outline>
</glyph>
<glyph name="rfishhookreversed" format="2">
  <advance width="2048"/>
  <unicode hex="027F"/>
  <anchor x="1344" y="1214" name="top"/>
  <anchor x="876" y="-126" name="base"/>
  <outline>
    <contour>
      <point x="514" y="1023" type="line"/>
      <point x="496" y="961" type="line"/>
      <point x="1933" y="961" type="line"/>
      <point x="1951" y="1023" type="line"/>
    </contour>
    <contour>
      <point x="1881" y="989" type="line"/>
      <point x="1521" y="-492" type="line"/>
      <point x="1581" y="-492" type="line"/>
      <point x="1941" y="989" type="line"/>
    </contour>
  </outline>
</glyph>
<glyph name="uni0283" format="2">
  <advance width="2048"/>
  <unicode hex="0283"/>
  <outline>
    <contour>
      <point x="1785" y="1641" type="line"/>
      <point x="823" y="-390" type="line"/>
      <point x="890" y="-390" type="line"/>
      <point x="1852" y="1641" type="line"/>
    </contour>
    <contour>
      <point x="370" y="-339" type="line"/>
      <point x="351" y="-390" type="line"/>
      <point x="890" y="-390" type="line"/>
      <point x="909" y="-339" type="line"/>
    </contour>
    <contour>
      <point x="1840" y="1641" type="line"/>
      <point x="1816" y="1575" type="line"/>
      <point x="2492" y="1572" type="line"/>
      <point x="2516" y="1638" type="line"/>
    </contour>
  </outline>
</glyph>
<glyph name="eshsquatreversed" format="2">
  <advance width="2048"/>
  <unicode hex="0285"/>
  <outline>
    <contour>
      <point x="837" y="1001" type="line"/>
      <point x="1005" y="-399" type="line"/>
      <point x="1072" y="-399" type="line"/>
      <point x="904" y="1001" type="line"/>
    </contour>
    <contour>
      <point x="1004" y="-348" type="line"/>
      <point x="1004" y="-399" type="line"/>
      <point x="1725" y="-399" type="line"/>
      <point x="1725" y="-348" type="line"/>
    </contour>
    <contour>
      <point x="213" y="1004" type="line"/>
      <point x="213" y="938" type="line"/>
      <point x="873" y="935" type="line"/>
      <point x="873" y="1001" type="line"/>
    </contour>
  </outline>
</glyph>
<glyph name="tretroflexhook" format="2">
  <advance width="2048"/>
  <unicode hex="0288"/>
  <anchor x="1636" y="1706" name="top"/>
  <anchor x="1017" y="-583" name="base"/>
  <outline>
    <contour>
      <point x="1533" y="1529" type="line"/>
      <point x="976" y="-423" type="line"/>
      <point x="1036" y="-423" type="line"/>
      <point x="1593" y="1529" type="line"/>
    </contour>
    <contour>
      <point x="1010" y="-363" type="line"/>
      <point x="988" y="-423" type="line"/>
      <point x="1892" y="-423" type="line"/>
      <point x="1914" y="-363" type="line"/>
    </contour>
    <contour>
      <point x="528" y="1023" type="line"/>
      <point x="507" y="965" type="line"/>
      <point x="2205" y="965" type="line"/>
      <point x="2226" y="1023" type="line"/>
    </contour>
  </outline>
</glyph>
<glyph name="upsilon-latin" format="2">
  <advance width="2048"/>
  <unicode hex="028A"/>
  <outline>
    <contour>
      <point x="1198" y="1023" type="line"/>
      <point x="269" y="0" type="line"/>
      <point x="329" y="0" type="line"/>
      <point x="1258" y="1023" type="line"/>
    </contour>
    <contour>
      <point x="1637" y="1023" type="line"/>
      <point x="1755" y="0" type="line"/>
      <point x="1815" y="0" type="line"/>
      <point x="1697" y="1023" type="line"/>
    </contour>
    <contour>
      <point x="351" y="56" type="line"/>
      <point x="327" y="0" type="line"/>
      <point x="1754" y="0" type="line"/>
      <point x="1781" y="63" type="line"/>
    </contour>
    <contour>
      <point x="1673" y="1023" type="line"/>
      <point x="1679" y="963" type="line"/>
      <point x="2422" y="963" type="line"/>
      <point x="2416" y="1023" type="line"/>
    </contour>
    <contour>
      <point x="475" y="1023" type="line"/>
      <point x="441" y="963" type="line"/>
      <point x="1176" y="963" type="line"/>
      <point x="1210" y="1023" type="line"/>
    </contour>
  </outline>
</glyph>
<glyph name="ezh" format="2">
  <advance width="2048"/>
  <unicode hex="0292"/>
  <outline>
    <contour>
      <point x="1830" y="0" type="line"/>
      <point x="1902" y="60" type="line"/>
      <point x="236" y="60" type="line"/>
      <point x="164" y="0" type="line"/>
    </contour>
    <contour>
      <point x="1901" y="58" type="line"/>
      <point x="2111" y="619" type="line"/>
      <point x="2050" y="619" type="line"/>
      <point x="1840" y="58" type="line"/>
    </contour>
    <contour>
      <point x="2026" y="559" type="line"/>
      <point x="2099" y="619" type="line"/>
      <point x="399" y="619" type="line"/>
      <point x="326" y="559" type="line"/>
    </contour>
    <contour>
      <point x="585" y="1274" type="line"/>
      <point x="513" y="1214" type="line"/>
      <point x="2365" y="1214" type="line"/>
      <point x="2437" y="1274" type="line"/>
    </contour>
    <contour>
      <point x="2202" y="1214" type="line"/>
      <point x="399" y="619" type="line"/>
      <point x="617" y="619" type="line"/>
      <point x="2365" y="1214" type="line"/>
    </contour>
  </outline>
</glyph>
<glyph name="glottalstop" format="2">
  <advance width="2048"/>
  <unicode hex="0294"/>
  <outline>
    <contour>
      <point x="1157" y="1543" type="line"/>
      <point x="1085" y="1483" type="line"/>
      <point x="1613" y="1483" type="line"/>
      <point x="1685" y="1543" type="line"/>
    </contour>
    <contour>
      <point x="1625" y="1543" type="line"/>
      <point x="1438" y="1028" type="line"/>
      <point x="1498" y="1028" type="line"/>
      <point x="1685" y="1543" type="line"/>
    </contour>
    <contour>
      <point x="1054" y="1073" type="line"/>
      <point x="1026" y="1013" type="line"/>
      <point x="1486" y="1013" type="line"/>
      <point x="1514" y="1073" type="line"/>
    </contour>
    <contour>
      <point x="1041" y="1073" type="line"/>
      <point x="736" y="167" type="line"/>
      <point x="796" y="167" type="line"/>
      <point x="1101" y="1073" type="line"/>
    </contour>
  </outline>
</glyph>
<glyph name="glottalstopreversed" format="2">
  <advance width="2048"/>
  <unicode hex="0295"/>
  <outline>
    <contour>
      <point x="1833" y="1543" type="line"/>
      <point x="1804" y="1483" type="line"/>
      <point x="1276" y="1483" type="line"/>
      <point x="1305" y="1543" type="line"/>
    </contour>
    <contour>
      <point x="1365" y="1543" type="line"/>
      <point x="1177" y="1028" type="line"/>
      <point x="1117" y="1028" type="line"/>
      <point x="1305" y="1543" type="line"/>
    </contour>
    <contour>
      <point x="1594" y="1073" type="line"/>
      <point x="1571" y="1013" type="line"/>
      <point x="1111" y="1013" type="line"/>
      <point x="1134" y="1073" type="line"/>
    </contour>
    <contour>
      <point x="1607" y="1073" type="line"/>
      <point x="1277" y="167" type="line"/>
      <point x="1217" y="167" type="line"/>
      <point x="1547" y="1073" type="line"/>
    </contour>
  </outline>
</glyph>
<glyph name="jcrossedtail" format="2">
  <advance width="2048"/>
  <unicode hex="029D"/>
  <anchor x="2304" y="1348" name="top"/>
  <anchor x="1018" y="-497" name="base"/>
  <outline>
    <contour>
      <point x="2164" y="1023" type="line"/>
      <point x="1642" y="-411" type="line"/>
      <point x="1700" y="-411" type="line"/>
      <point x="2222" y="1023" type="line"/>
    </contour>
    <contour>
      <point x="71" y="-348" type="line"/>
      <point x="49" y="-409" type="line"/>
      <point x="1663" y="-409" type="line"/>
      <point x="1685" y="-348" type="line"/>
    </contour>
    <contour>
      <point x="196" y="-6" type="line"/>
      <point x="60" y="-378" type="line"/>
      <point x="120" y="-378" type="line"/>
      <point x="256" y="-6" type="line"/>
    </contour>
    <contour>
      <point x="2218" y="1216" type="line"/>
      <point x="2185" y="1127" type="line"/>
      <point x="2275" y="1127" type="line"/>
      <point x="2308" y="1216" type="line"/>
    </contour>
    <contour>
      <point x="198.02822196150896" y="-8" type="line"/>
      <point x="2071.252964229551" y="-8" type="line"/>
      <point x="2137.019934599736" y="70" type="line"/>
      <point x="263.7951923316946" y="70" type="line"/>
    </contour>
  </outline>
</glyph>
<glyph name="glottalstopmod" format="2">
  <advance width="2048"/>
  <unicode hex="02C0"/>
  <outline>
    <contour>
      <point x="1157" y="1543" type="line"/>
      <point x="1085" y="1483" type="line"/>
      <point x="1613" y="1483" type="line"/>
      <point x="1685" y="1543" type="line"/>
    </contour>
    <contour>
      <point x="1625" y="1543" type="line"/>
      <point x="1438" y="1028" type="line"/>
      <point x="1498" y="1028" type="line"/>
      <point x="1685" y="1543" type="line"/>
    </contour>
    <contour>
      <point x="1054" y="1073" type="line"/>
      <point x="1038" y="1013" type="line"/>
      <point x="1498" y="1013" type="line"/>
      <point x="1514" y="1073" type="line"/>
    </contour>
    <contour>
      <point x="1041" y="1073" type="line"/>
      <point x="859" y="572" type="line"/>
      <point x="919" y="572" type="line"/>
      <point x="1101" y="1073" type="line"/>
    </contour>
  </outline>
</glyph>
<glyph name="circumflex" format="2">
  <advance width="2048"/>
  <unicode hex="02C6"/>
  <outline>
    <contour>
      <point x="1863.04" y="2308" type="line"/>
      <point x="1827.04" y="2308" type="line"/>
      <point x="1582.21" y="1998" type="line"/>
      <point x="1603.03" y="1981" type="line"/>
    </contour>
    <contour>
      <point x="1830.77" y="2310" type="line"/>
      <point x="1871.21" y="1976" type="line"/>
      <point x="1918.76" y="1994" type="line"/>
      <point x="1867.77" y="2310" type="line"/>
    </contour>
  </outline>
</glyph>
